Merritest-LightItalic.ufo
<glyph name="exclam" format="1">
  <advance width="686"/>
  <unicode hex="0021"/>
  <outline>
    <contour>
      <point x="270" y="488" type="line"/>
      <point x="417" y="1778" type="line"/>
      <point x="612" y="1778" type="line"/>
      <point x="381" y="488" type="line"/>
    </contour>
    <contour>
      <point x="157" y="88" type="curve" smooth="yes"/>
      <point x="166" y="160"/>
      <point x="238" y="210"/>
      <point x="298" y="210" type="curve" smooth="yes"/>
      <point x="374" y="210"/>
      <point x="400" y="165"/>
      <point x="392" y="105" type="curve" smooth="yes"/>
      <point x="382" y="28"/>
      <point x="313" y="-18"/>
      <point x="251" y="-18" type="curve" smooth="yes"/>
      <point x="194" y="-18"/>
      <point x="148" y="19"/>
    </contour>
  </outline>
</glyph>
<glyph name="numbersign" format="1">
  <advance width="1405"/>
  <unicode hex="0023"/>
  <outline>
    <contour>
      <point x="266" y="0" type="line"/>
      <point x="325" y="365" type="line"/>
      <point x="111" y="365" type="line"/>
      <point x="117" y="468" type="line"/>
      <point x="341" y="468" type="line"/>
      <point x="413" y="922" type="line"/>
      <point x="191" y="922" type="line"/>
      <point x="197" y="1025" type="line"/>
      <point x="429" y="1025" type="line"/>
      <point x="482" y="1357" type="line"/>
      <point x="614" y="1357" type="line"/>
      <point x="563" y="1025" type="line"/>
      <point x="940" y="1025" type="line"/>
      <point x="996" y="1357" type="line"/>
      <point x="1128" y="1357" type="line"/>
      <point x="1074" y="1025" type="line"/>
      <point x="1306" y="1025" type="line"/>
      <point x="1300" y="922" type="line"/>
      <point x="1058" y="922" type="line"/>
      <point x="985" y="468" type="line"/>
      <point x="1214" y="468" type="line"/>
      <point x="1208" y="365" type="line"/>
      <point x="969" y="365" type="line"/>
      <point x="912" y="0" type="line"/>
      <point x="784" y="0" type="line"/>
      <point x="836" y="365" type="line"/>
      <point x="458" y="365" type="line"/>
      <point x="396" y="0" type="line"/>
    </contour>
    <contour>
      <point x="474" y="468" type="line"/>
      <point x="852" y="468" type="line"/>
      <point x="923" y="922" type="line"/>
      <point x="547" y="922" type="line"/>
    </contour>
  </outline>
</glyph>
<glyph name="asterisk" format="1">
  <advance width="1366"/>
  <unicode hex="002A"/>
  <outline>
    <contour>
      <point x="347" y="829" type="line"/>
      <point x="284" y="963" type="line"/>
      <point x="603" y="1099" type="line"/>
      <point x="727" y="1147" type="line"/>
      <point x="614" y="1197" type="line"/>
      <point x="322" y="1340" type="line"/>
      <point x="413" y="1473" type="line"/>
      <point x="665" y="1272" type="line"/>
      <point x="757" y="1192" type="line"/>
      <point x="749" y="1319" type="line"/>
      <point x="746" y="1653" type="line"/>
      <point x="899" y="1652" type="line"/>
      <point x="836" y="1319" type="line"/>
      <point x="808" y="1192" type="line"/>
      <point x="917" y="1272" type="line"/>
      <point x="1210" y="1469" type="line"/>
      <point x="1272" y="1335" type="line"/>
      <point x="952" y="1196" type="line"/>
      <point x="829" y="1146" type="line"/>
      <point x="939" y="1098" type="line"/>
      <point x="1226" y="956" type="line"/>
      <point x="1134" y="824" type="line"/>
      <point x="888" y="1023" type="line"/>
      <point x="798" y="1104" type="line"/>
      <point x="805" y="981" type="line"/>
      <point x="808" y="647" type="line"/>
      <point x="654" y="648" type="line"/>
      <point x="718" y="981" type="line"/>
      <point x="747" y="1104" type="line"/>
      <point x="639" y="1024" type="line"/>
    </contour>
  </outline>
</glyph>
<glyph name="plus" format="1">
  <advance width="1366"/>
  <unicode hex="002B"/>
  <outline>
    <contour>
      <point x="580" y="295" type="line"/>
      <point x="609" y="536" type="line"/>
      <point x="636" y="715" type="line"/>
      <point x="479" y="709" type="line"/>
      <point x="254" y="709" type="line"/>
      <point x="268" y="836" type="line"/>
      <point x="494" y="836" type="line"/>
      <point x="649" y="827" type="line"/>
      <point x="665" y="1005" type="line"/>
      <point x="692" y="1235" type="line"/>
      <point x="835" y="1235" type="line"/>
      <point x="809" y="1005" type="line"/>
      <point x="779" y="827" type="line"/>
      <point x="911" y="836" type="line"/>
      <point x="1166" y="836" type="line"/>
      <point x="1151" y="709" type="line"/>
      <point x="896" y="709" type="line"/>
      <point x="767" y="715" type="line"/>
      <point x="766" y="672"/>
      <point x="756" y="579"/>
      <point x="754" y="536" type="curve"/>
      <point x="724" y="295" type="line"/>
    </contour>
  </outline>
</glyph>
<glyph name="slash" format="1">
  <advance width="854"/>
  <unicode hex="002F"/>
  <outline>
    <contour>
      <point x="21" y="-362" type="line"/>
      <point x="-117" y="-362" type="line"/>
      <point x="745" y="1597" type="line"/>
      <point x="884" y="1597" type="line"/>
    </contour>
  </outline>
</glyph>
<glyph name="zero" format="1">
  <advance width="1270"/>
  <unicode hex="0030"/>
  <outline>
    <contour>
      <point x="129" y="450" type="curve" smooth="yes"/>
      <point x="129" y="853"/>
      <point x="398" y="1162"/>
      <point x="740" y="1162" type="curve" smooth="yes"/>
      <point x="1047" y="1162"/>
      <point x="1151" y="941"/>
      <point x="1151" y="697" type="curve" smooth="yes"/>
      <point x="1151" y="321"/>
      <point x="905" y="-16"/>
      <point x="545" y="-16" type="curve" smooth="yes"/>
      <point x="250" y="-16"/>
      <point x="129" y="198"/>
    </contour>
    <contour>
      <point x="294" y="462" type="curve" smooth="yes"/>
      <point x="294" y="254"/>
      <point x="368" y="73"/>
      <point x="562" y="73" type="curve" smooth="yes"/>
      <point x="846" y="73"/>
      <point x="985" y="392"/>
      <point x="985" y="682" type="curve" smooth="yes"/>
      <point x="985" y="916"/>
      <point x="913" y="1074"/>
      <point x="719" y="1074" type="curve" smooth="yes"/>
      <point x="415" y="1074"/>
      <point x="294" y="728"/>
    </contour>
  </outline>
</glyph>
<glyph name="one" format="1">
  <advance width="954"/>
  <unicode hex="0031"/>
  <outline>
    <contour>
      <point x="130" y="0" type="line"/>
      <point x="138" y="70" type="line"/>
      <point x="356" y="91" type="line"/>
      <point x="482" y="966" type="line"/>
      <point x="410" y="943"/>
      <point x="313" y="904"/>
      <point x="206" y="882" type="curve"/>
      <point x="194" y="960" type="line"/>
      <point x="334" y="991"/>
      <point x="494" y="1089"/>
      <point x="600" y="1162" type="curve"/>
      <point x="670" y="1143" type="line"/>
      <point x="518" y="92" type="line"/>
      <point x="751" y="70" type="line"/>
      <point x="743" y="0" type="line"/>
    </contour>
  </outline>
</glyph>
<glyph name="four" format="1">
  <advance width="1288"/>
  <unicode hex="0034"/>
  <outline>
    <contour>
      <point x="74" y="0" type="line"/>
      <point x="45" y="76" type="line"/>
      <point x="271" y="427"/>
      <point x="487" y="804"/>
      <point x="740" y="1256" type="curve"/>
      <point x="841" y="1256" type="line"/>
      <point x="905" y="1184" type="line"/>
      <point x="305" y="246" type="line"/>
      <point x="202" y="97" type="line"/>
      <point x="745" y="119" type="line"/>
      <point x="817" y="602" type="line"/>
      <point x="972" y="649" type="line"/>
      <point x="895" y="128" type="line"/>
      <point x="1144" y="139" type="line"/>
      <point x="1127" y="0" type="line"/>
      <point x="877" y="0" type="line"/>
      <point x="822" y="-375" type="line"/>
      <point x="670" y="-375" type="line"/>
      <point x="727" y="0" type="line"/>
    </contour>
  </outline>
</glyph>
<glyph name="five" format="1">
  <advance width="1140"/>
  <unicode hex="0035"/>
  <outline>
    <contour>
      <point x="69" y="-255" type="line"/>
      <point x="102" y="-262"/>
      <point x="128" y="-264"/>
      <point x="158" y="-264" type="curve" smooth="yes"/>
      <point x="466" y="-264"/>
      <point x="786" y="-117"/>
      <point x="786" y="180" type="curve" smooth="yes"/>
      <point x="786" y="383"/>
      <point x="674" y="486"/>
      <point x="495" y="486" type="curve" smooth="yes"/>
      <point x="394" y="486"/>
      <point x="298" y="449"/>
      <point x="214" y="417" type="curve"/>
      <point x="173" y="449" type="line"/>
      <point x="336" y="1146" type="line"/>
      <point x="909" y="1146" type="line"/>
      <point x="929" y="1162" type="line"/>
      <point x="1063" y="1162" type="line"/>
      <point x="1015" y="1011" type="line"/>
      <point x="443" y="1011" type="line"/>
      <point x="324" y="531" type="line"/>
      <point x="389" y="556"/>
      <point x="479" y="580"/>
      <point x="571" y="580" type="curve" smooth="yes"/>
      <point x="815" y="580"/>
      <point x="969" y="462"/>
      <point x="969" y="204" type="curve" smooth="yes"/>
      <point x="969" y="-133"/>
      <point x="546" y="-346"/>
      <point x="188" y="-346" type="curve" smooth="yes"/>
      <point x="155" y="-346"/>
      <point x="98" y="-343"/>
      <point x="58" y="-329" type="curve"/>
    </contour>
  </outline>
</glyph>
<glyph name="six" format="1">
  <advance width="1292"/>
  <unicode hex="0036"/>
  <outline>
    <contour>
      <point x="156" y="469" type="curve" smooth="yes"/>
      <point x="156" y="953"/>
      <point x="519" y="1434"/>
      <point x="1011" y="1571" type="curve"/>
      <point x="1035" y="1502" type="line"/>
      <point x="719" y="1387"/>
      <point x="484" y="1134"/>
      <point x="385" y="843" type="curve"/>
      <point x="452" y="899"/>
      <point x="578" y="975"/>
      <point x="761" y="975" type="curve" smooth="yes"/>
      <point x="1021" y="975"/>
      <point x="1127" y="791"/>
      <point x="1127" y="601" type="curve" smooth="yes"/>
      <point x="1127" y="309"/>
      <point x="905" y="-20"/>
      <point x="567" y="-20" type="curve" smooth="yes"/>
      <point x="295" y="-20"/>
      <point x="156" y="196"/>
    </contour>
    <contour>
      <point x="322" y="454" type="curve" smooth="yes"/>
      <point x="322" y="224"/>
      <point x="410" y="68"/>
      <point x="603" y="68" type="curve" smooth="yes"/>
      <point x="851" y="68"/>
      <point x="960" y="355"/>
      <point x="960" y="563" type="curve" smooth="yes"/>
      <point x="960" y="762"/>
      <point x="864" y="876"/>
      <point x="724" y="876" type="curve" smooth="yes"/>
      <point x="514" y="876"/>
      <point x="397" y="749"/>
      <point x="351" y="696" type="curve"/>
      <point x="333" y="618"/>
      <point x="322" y="539"/>
    </contour>
  </outline>
</glyph>
<glyph name="colon" format="1">
  <advance width="526"/>
  <unicode hex="003A"/>
  <outline>
    <contour>
      <point x="186" y="897" type="curve" smooth="yes"/>
      <point x="195" y="969"/>
      <point x="252" y="1019"/>
      <point x="313" y="1019" type="curve" smooth="yes"/>
      <point x="389" y="1019"/>
      <point x="415" y="974"/>
      <point x="407" y="914" type="curve" smooth="yes"/>
      <point x="397" y="837"/>
      <point x="336" y="791"/>
      <point x="273" y="791" type="curve" smooth="yes"/>
      <point x="215" y="791"/>
      <point x="177" y="828"/>
    </contour>
    <contour>
      <point x="93" y="88" type="curve" smooth="yes"/>
      <point x="102" y="160"/>
      <point x="159" y="210"/>
      <point x="220" y="210" type="curve" smooth="yes"/>
      <point x="296" y="210"/>
      <point x="322" y="165"/>
      <point x="314" y="105" type="curve" smooth="yes"/>
      <point x="304" y="28"/>
      <point x="243" y="-18"/>
      <point x="180" y="-18" type="curve" smooth="yes"/>
      <point x="122" y="-18"/>
      <point x="84" y="19"/>
    </contour>
  </outline>
</glyph>
<glyph name="equal" format="1">
  <advance width="1063"/>
  <unicode hex="003D"/>
  <outline>
    <contour>
      <point x="152" y="865" type="line"/>
      <point x="166" y="990" type="line"/>
      <point x="981" y="990" type="line"/>
      <point x="967" y="865" type="line"/>
    </contour>
    <contour>
      <point x="82" y="355" type="line"/>
      <point x="96" y="480" type="line"/>
      <point x="911" y="480" type="line"/>
      <point x="897" y="355" type="line"/>
    </contour>
  </outline>
</glyph>
<glyph name="question" format="1">
  <advance width="1020"/>
  <unicode hex="003F"/>
  <outline>
    <contour>
      <point x="386" y="464" type="line"/>
      <point x="341" y="509"/>
      <point x="306" y="622"/>
      <point x="306" y="722" type="curve" smooth="yes"/>
      <point x="306" y="853"/>
      <point x="438" y="929"/>
      <point x="603" y="1020" type="curve" smooth="yes"/>
      <point x="713" y="1080"/>
      <point x="824" y="1144"/>
      <point x="855" y="1217" type="curve"/>
      <point x="864" y="1248"/>
      <point x="867" y="1276"/>
      <point x="867" y="1305" type="curve" smooth="yes"/>
      <point x="867" y="1551"/>
      <point x="705" y="1684"/>
      <point x="514" y="1684" type="curve" smooth="yes"/>
      <point x="452" y="1684"/>
      <point x="382" y="1672"/>
      <point x="331" y="1646" type="curve"/>
      <point x="353" y="1760" type="line"/>
      <point x="382" y="1790"/>
      <point x="477" y="1813"/>
      <point x="556" y="1813" type="curve" smooth="yes"/>
      <point x="910" y="1813"/>
      <point x="1005" y="1584"/>
      <point x="1005" y="1373" type="curve" smooth="yes"/>
      <point x="1005" y="919"/>
      <point x="453" y="970"/>
      <point x="453" y="695" type="curve" smooth="yes"/>
      <point x="453" y="627"/>
      <point x="486" y="546"/>
      <point x="503" y="503" type="curve"/>
      <point x="401" y="463" type="line"/>
    </contour>
    <contour>
      <point x="324" y="73" type="curve" smooth="yes"/>
      <point x="325" y="150"/>
      <point x="408" y="210"/>
      <point x="469" y="210" type="curve" smooth="yes"/>
      <point x="535" y="210"/>
      <point x="563" y="177"/>
      <point x="562" y="127" type="curve" smooth="yes"/>
      <point x="560" y="37"/>
      <point x="479" y="-18"/>
      <point x="413" y="-18" type="curve" smooth="yes"/>
      <point x="362" y="-18"/>
      <point x="323" y="15"/>
    </contour>
  </outline>
</glyph>
<glyph name="D" format="1">
  <advance width="1426"/>
  <unicode hex="0044"/>
  <outline>
    <contour>
      <point x="39" y="0" type="line"/>
      <point x="46" y="69" type="line"/>
      <point x="193" y="94" type="line"/>
      <point x="374" y="1430" type="line"/>
      <point x="242" y="1449" type="line"/>
      <point x="252" y="1530" type="line"/>
      <point x="484" y="1530" type="line"/>
      <point x="580" y="1531"/>
      <point x="706" y="1546"/>
      <point x="805" y="1546" type="curve" smooth="yes"/>
      <point x="1205" y="1546"/>
      <point x="1366" y="1295"/>
      <point x="1371" y="924" type="curve" smooth="yes"/>
      <point x="1379" y="395"/>
      <point x="1056" y="-28"/>
      <point x="586" y="-16" type="curve" smooth="yes"/>
      <point x="558" y="-15"/>
      <point x="504" y="-12"/>
      <point x="473" y="-9" type="curve" smooth="yes"/>
      <point x="428" y="-5"/>
      <point x="322" y="0"/>
      <point x="266" y="0" type="curve" smooth="yes"/>
    </contour>
    <contour>
      <point x="354" y="105" type="line"/>
      <point x="355" y="106" type="line"/>
      <point x="433" y="91"/>
      <point x="562" y="79"/>
      <point x="631" y="79" type="curve"/>
      <point x="1028" y="101"/>
      <point x="1214" y="506"/>
      <point x="1209" y="911" type="curve" smooth="yes"/>
      <point x="1204" y="1287"/>
      <point x="1059" y="1452"/>
      <point x="760" y="1452" type="curve" smooth="yes"/>
      <point x="692" y="1452"/>
      <point x="594" y="1442"/>
      <point x="534" y="1433" type="curve"/>
    </contour>
  </outline>
</glyph>
<glyph name="F" format="1">
  <advance width="1121"/>
  <unicode hex="0046"/>
  <outline>
    <contour>
      <point x="39" y="0" type="line"/>
      <point x="46" y="70" type="line"/>
      <point x="193" y="94" type="line"/>
      <point x="374" y="1430" type="line"/>
      <point x="242" y="1449" type="line"/>
      <point x="252" y="1530" type="line"/>
      <point x="1182" y="1530" type="line"/>
      <point x="1162" y="1220" type="line"/>
      <point x="1065" y="1220" type="line"/>
      <point x="1043" y="1427" type="line"/>
      <point x="537" y="1442" type="line"/>
      <point x="455" y="838" type="line"/>
      <point x="938" y="846" type="line"/>
      <point x="928" y="718" type="line"/>
      <point x="441" y="731" type="line"/>
      <point x="354" y="96" type="line"/>
      <point x="597" y="70" type="line"/>
      <point x="591" y="0" type="line"/>
    </contour>
  </outline>
</glyph>
<glyph name="K" format="1">
  <advance width="1352"/>
  <unicode hex="004B"/>
  <outline>
    <contour>
      <point x="37" y="0" type="line"/>
      <point x="44" y="69" type="line"/>
      <point x="193" y="94" type="line"/>
      <point x="374" y="1430" type="line"/>
      <point x="239" y="1449" type="line"/>
      <point x="249" y="1530" type="line"/>
      <point x="694" y="1530" type="line"/>
      <point x="686" y="1449" type="line"/>
      <point x="535" y="1430" type="line"/>
      <point x="431" y="663" type="line"/>
      <point x="1125" y="1430" type="line"/>
      <point x="989" y="1449" type="line"/>
      <point x="998" y="1530" type="line"/>
      <point x="1415" y="1530" type="line"/>
      <point x="1406" y="1449" type="line"/>
      <point x="1283" y="1431" type="line"/>
      <point x="712" y="827" type="line"/>
      <point x="774" y="733"/>
      <point x="887" y="537"/>
      <point x="956" y="422" type="curve"/>
      <point x="1074" y="221"/>
      <point x="1123" y="139"/>
      <point x="1165" y="114" type="curve"/>
      <point x="1310" y="75" type="line"/>
      <point x="1299" y="0" type="line"/>
      <point x="1050" y="0" type="line"/>
      <point x="1002" y="5"/>
      <point x="945" y="152"/>
      <point x="835" y="357" type="curve"/>
      <point x="770" y="473"/>
      <point x="678" y="640"/>
      <point x="622" y="732" type="curve"/>
      <point x="410" y="508" type="line"/>
      <point x="354" y="94" type="line"/>
      <point x="510" y="70" type="line"/>
      <point x="503" y="0" type="line"/>
    </contour>
  </outline>
</glyph>
<glyph name="L" format="1">
  <advance width="1173"/>
  <unicode hex="004C"/>
  <outline>
    <contour>
      <point x="38" y="0" type="line"/>
      <point x="45" y="70" type="line"/>
      <point x="194" y="94" type="line"/>
      <point x="374" y="1430" type="line"/>
      <point x="239" y="1449" type="line"/>
      <point x="249" y="1530" type="line"/>
      <point x="722" y="1530" type="line"/>
      <point x="713" y="1449" type="line"/>
      <point x="535" y="1430" type="line"/>
      <point x="354" y="94" type="line"/>
      <point x="892" y="103" type="line"/>
      <point x="1022" y="449" type="line"/>
      <point x="1116" y="431" type="line"/>
      <point x="1020" y="0" type="line"/>
    </contour>
  </outline>
</glyph>
<glyph name="S" format="1">
  <advance width="1094"/>
  <unicode hex="0053"/>
  <outline>
    <contour>
      <point x="50" y="65" type="curve"/>
      <point x="91" y="343" type="line"/>
      <point x="185" y="347" type="line"/>
      <point x="198" y="137" type="line"/>
      <point x="254" y="99"/>
      <point x="368" y="74"/>
      <point x="460" y="74" type="curve" smooth="yes"/>
      <point x="610" y="74"/>
      <point x="796" y="149"/>
      <point x="796" y="354" type="curve" smooth="yes"/>
      <point x="796" y="524"/>
      <point x="690" y="620"/>
      <point x="561" y="703" type="curve"/>
      <point x="404" y="800"/>
      <point x="225" y="920"/>
      <point x="221" y="1138" type="curve" smooth="yes"/>
      <point x="216" y="1395"/>
      <point x="425" y="1550"/>
      <point x="680" y="1550" type="curve" smooth="yes"/>
      <point x="871" y="1550"/>
      <point x="998" y="1502"/>
      <point x="1053" y="1465" type="curve"/>
      <point x="1007" y="1203" type="line"/>
      <point x="921" y="1203" type="line"/>
      <point x="907" y="1400" type="line"/>
      <point x="866" y="1428"/>
      <point x="781" y="1455"/>
      <point x="677" y="1455" type="curve" smooth="yes"/>
      <point x="554" y="1455"/>
      <point x="378" y="1407"/>
      <point x="378" y="1200" type="curve" smooth="yes"/>
      <point x="378" y="1020"/>
      <point x="510" y="925"/>
      <point x="651" y="840" type="curve"/>
      <point x="800" y="747"/>
      <point x="950" y="633"/>
      <point x="954" y="424" type="curve" smooth="yes"/>
      <point x="959" y="142"/>
      <point x="733" y="-23"/>
      <point x="455" y="-23" type="curve" smooth="yes"/>
      <point x="270" y="-23"/>
      <point x="98" y="28"/>
    </contour>
  </outline>
</glyph>
<glyph name="Y" format="1">
  <advance width="1167"/>
  <unicode hex="0059"/>
  <outline>
    <contour>
      <point x="239" y="0" type="line"/>
      <point x="245" y="70" type="line"/>
      <point x="458" y="94" type="line"/>
      <point x="525" y="586" type="line"/>
      <point x="186" y="1430" type="line"/>
      <point x="70" y="1449" type="line"/>
      <point x="78" y="1530" type="line"/>
      <point x="546" y="1530" type="line"/>
      <point x="536" y="1449" type="line"/>
      <point x="361" y="1430" type="line"/>
      <point x="581" y="822" type="line"/>
      <point x="623" y="685" type="line"/>
      <point x="701" y="822" type="line"/>
      <point x="1076" y="1430" type="line"/>
      <point x="929" y="1449" type="line"/>
      <point x="938" y="1530" type="line"/>
      <point x="1350" y="1530" type="line"/>
      <point x="1338" y="1449" type="line"/>
      <point x="1225" y="1431" type="line"/>
      <point x="678" y="586" type="line"/>
      <point x="611" y="94" type="line"/>
      <point x="834" y="70" type="line"/>
      <point x="827" y="0" type="line"/>
    </contour>
  </outline>
</glyph>
<glyph name="backslash" format="1">
  <advance width="854"/>
  <unicode hex="005C"/>
  <outline>
    <contour>
      <point x="709" y="-362" type="line"/>
      <point x="133" y="1597" type="line"/>
      <point x="271" y="1597" type="line"/>
      <point x="848" y="-362" type="line"/>
    </contour>
  </outline>
</glyph>
<glyph name="bracketright" format="1">
  <advance width="854"/>
  <unicode hex="005D"/>
  <outline>
    <contour>
      <point x="700" y="1528" type="curve" smooth="yes"/>
      <point x="683" y="1242"/>
      <point x="546" y="398"/>
      <point x="500" y="43" type="curve" smooth="yes"/>
      <point x="480" y="-110"/>
      <point x="442" y="-157"/>
      <point x="315" y="-157" type="curve" smooth="yes"/>
      <point x="221" y="-157"/>
      <point x="58" y="-120"/>
      <point x="39" y="-120" type="curve"/>
      <point x="50" y="-50" type="line"/>
      <point x="338" y="-50" type="line"/>
      <point x="560" y="1622" type="line"/>
      <point x="491" y="1622"/>
      <point x="335" y="1624"/>
      <point x="267" y="1624" type="curve"/>
      <point x="270" y="1646"/>
      <point x="273" y="1671"/>
      <point x="275" y="1693" type="curve"/>
      <point x="360" y="1714"/>
      <point x="469" y="1730"/>
      <point x="567" y="1730" type="curve" smooth="yes"/>
      <point x="666" y="1730"/>
      <point x="703" y="1704"/>
      <point x="703" y="1617" type="curve" smooth="yes"/>
      <point x="703" y="1590"/>
      <point x="702" y="1561"/>
    </contour>
  </outline>
</glyph>
<glyph name="asciicircum" format="1">
  <advance width="1364"/>
  <unicode hex="005E"/>
  <outline>
    <contour>
      <point x="182" y="510" type="line"/>
      <point x="708" y="1531" type="line"/>
      <point x="867" y="1531" type="line"/>
      <point x="1137" y="510" type="line"/>
      <point x="1004" y="510" type="line"/>
      <point x="768" y="1350" type="line"/>
      <point x="316" y="510" type="line"/>
    </contour>
  </outline>
</glyph>
<glyph name="grave" format="1">
  <advance width="541"/>
  <unicode hex="0060"/>
  <outline>
    <contour>
      <point x="435" y="1255" type="line"/>
      <point x="341" y="1315"/>
      <point x="110" y="1504"/>
      <point x="58" y="1596" type="curve"/>
      <point x="179" y="1729" type="line"/>
      <point x="479" y="1304" type="line"/>
    </contour>
  </outline>
</glyph>
<glyph name="j" format="1">
  <advance width="622"/>
  <unicode hex="006A"/>
  <outline>
    <contour>
      <point x="174" y="58" type="curve" smooth="yes"/>
      <point x="283" y="1016" type="line"/>
      <point x="140" y="1056" type="line"/>
      <point x="154" y="1121" type="line"/>
      <point x="419" y="1163" type="line"/>
      <point x="459" y="1142" type="line"/>
      <point x="324" y="2" type="line" smooth="yes"/>
      <point x="284" y="-341"/>
      <point x="126" y="-518"/>
      <point x="-102" y="-518" type="curve" smooth="yes"/>
      <point x="-167" y="-518"/>
      <point x="-220" y="-505"/>
      <point x="-242" y="-481" type="curve"/>
      <point x="-214" y="-415" type="line"/>
      <point x="-196" y="-424"/>
      <point x="-155" y="-432"/>
      <point x="-129" y="-432" type="curve" smooth="yes"/>
      <point x="72" y="-432"/>
      <point x="144" y="-205"/>
    </contour>
    <contour>
      <point x="413" y="1421" type="curve" smooth="yes"/>
      <point x="360" y="1421"/>
      <point x="318" y="1464"/>
      <point x="322" y="1522" type="curve"/>
      <point x="325" y="1590"/>
      <point x="386" y="1642"/>
      <point x="438" y="1642" type="curve" smooth="yes"/>
      <point x="500" y="1642"/>
      <point x="537" y="1600"/>
      <point x="534" y="1544" type="curve" smooth="yes"/>
      <point x="530" y="1476"/>
      <point x="475" y="1421"/>
    </contour>
  </outline>
</glyph>
<glyph name="l" format="1">
  <advance width="598"/>
  <unicode hex="006C"/>
  <outline>
    <contour>
      <point x="133" y="102" type="curve" smooth="yes"/>
      <point x="133" y="116"/>
      <point x="135" y="150"/>
      <point x="139" y="170" type="curve"/>
      <point x="339" y="1515" type="line"/>
      <point x="220" y="1548" type="line"/>
      <point x="236" y="1615" type="line"/>
      <point x="465" y="1650" type="line"/>
      <point x="505" y="1627" type="line"/>
      <point x="289" y="158" type="line" smooth="yes"/>
      <point x="282" y="110"/>
      <point x="296" y="85"/>
      <point x="314" y="85" type="curve" smooth="yes"/>
      <point x="342" y="85"/>
      <point x="374" y="102"/>
      <point x="425" y="155" type="curve"/>
      <point x="451" y="112" type="line"/>
      <point x="436" y="84"/>
      <point x="346" y="-20"/>
      <point x="234" y="-20" type="curve" smooth="yes"/>
      <point x="165" y="-20"/>
      <point x="131" y="15"/>
    </contour>
  </outline>
</glyph>
<glyph name="t" format="1">
  <advance width="706"/>
  <unicode hex="0074"/>
  <outline>
    <contour>
      <point x="150" y="147" type="curve" smooth="yes"/>
      <point x="150" y="161"/>
      <point x="150" y="184"/>
      <point x="161" y="268" type="curve" smooth="yes"/>
      <point x="262" y="1043" type="line"/>
      <point x="138" y="1043" type="line"/>
      <point x="154" y="1113" type="line"/>
      <point x="281" y="1151" type="line"/>
      <point x="316" y="1200"/>
      <point x="364" y="1332"/>
      <point x="393" y="1416" type="curve"/>
      <point x="469" y="1416" type="line"/>
      <point x="436" y="1155" type="line"/>
      <point x="697" y="1155" type="line"/>
      <point x="681" y="1043" type="line"/>
      <point x="422" y="1043" type="line"/>
      <point x="326" y="344" type="line" smooth="yes"/>
      <point x="317" y="275"/>
      <point x="312" y="221"/>
      <point x="312" y="188" type="curve" smooth="yes"/>
      <point x="312" y="116"/>
      <point x="330" y="92"/>
      <point x="409" y="92" type="curve" smooth="yes"/>
      <point x="470" y="92"/>
      <point x="572" y="150"/>
      <point x="612" y="180" type="curve"/>
      <point x="626" y="116" type="line"/>
      <point x="584" y="65"/>
      <point x="438" y="-20"/>
      <point x="326" y="-20" type="curve" smooth="yes"/>
      <point x="217" y="-20"/>
      <point x="150" y="30"/>
    </contour>
  </outline>
</glyph>
<glyph name="z" format="1">
  <advance width="1001"/>
  <unicode hex="007A"/>
  <outline>
    <contour>
      <point x="4" y="28" type="line"/>
      <point x="649" y="850" type="line"/>
      <point x="774" y="997" type="line"/>
      <point x="677" y="1000"/>
      <point x="366" y="1011"/>
      <point x="354" y="1003" type="curve"/>
      <point x="275" y="999"/>
      <point x="205" y="916"/>
      <point x="198" y="818" type="curve"/>
      <point x="145" y="818" type="line"/>
      <point x="143" y="903"/>
      <point x="165" y="1103"/>
      <point x="221" y="1143" type="curve" smooth="yes"/>
      <point x="238" y="1155"/>
      <point x="275" y="1163"/>
      <point x="325" y="1163" type="curve" smooth="yes"/>
      <point x="477" y="1163"/>
      <point x="705" y="1127"/>
      <point x="823" y="1127" type="curve" smooth="yes"/>
      <point x="850" y="1127"/>
      <point x="906" y="1136"/>
      <point x="939" y="1163" type="curve"/>
      <point x="938" y="1159" type="line"/>
      <point x="984" y="1116" type="line"/>
      <point x="315" y="253" type="line"/>
      <point x="218" y="137" type="line"/>
      <point x="325" y="135"/>
      <point x="614" y="129"/>
      <point x="643" y="129" type="curve" smooth="yes"/>
      <point x="747" y="129"/>
      <point x="808" y="192"/>
      <point x="826" y="315" type="curve"/>
      <point x="878" y="315" type="line"/>
      <point x="871" y="195"/>
      <point x="852" y="36"/>
      <point x="795" y="-2" type="curve" smooth="yes"/>
      <point x="778" y="-13"/>
      <point x="744" y="-22"/>
      <point x="695" y="-22" type="curve" smooth="yes"/>
      <point x="548" y="-22"/>
      <point x="276" y="13"/>
      <point x="157" y="13" type="curve" smooth="yes"/>
      <point x="133" y="13"/>
      <point x="95" y="5"/>
      <point x="68" y="-14" type="curve"/>
      <point x="67" y="-15" type="line"/>
      <point x="59" y="-22" type="line"/>
    </contour>
  </outline>
</glyph>
<glyph name="currency" format="1">
  <advance width="1540"/>
  <unicode hex="00A4"/>
  <outline>
    <contour>
      <point x="239" y="231" type="line"/>
      <point x="429" y="422" type="line"/>
      <point x="372" y="496"/>
      <point x="338" y="589"/>
      <point x="338" y="690" type="curve" smooth="yes"/>
      <point x="338" y="790"/>
      <point x="371" y="882"/>
      <point x="427" y="955" type="curve"/>
      <point x="236" y="1147" type="line"/>
      <point x="327" y="1238" type="line"/>
      <point x="519" y="1045" type="line"/>
      <point x="591" y="1097"/>
      <point x="681" y="1128"/>
      <point x="778" y="1128" type="curve" smooth="yes"/>
      <point x="879" y="1128"/>
      <point x="972" y="1094"/>
      <point x="1046" y="1037" type="curve"/>
      <point x="1235" y="1225" type="line"/>
      <point x="1325" y="1134" type="line"/>
      <point x="1136" y="945" type="line"/>
      <point x="1187" y="873"/>
      <point x="1218" y="785"/>
      <point x="1218" y="690" type="curve" smooth="yes"/>
      <point x="1218" y="592"/>
      <point x="1186" y="501"/>
      <point x="1131" y="428" type="curve"/>
      <point x="1323" y="237" type="line"/>
      <point x="1232" y="146" type="line"/>
      <point x="1041" y="338" type="line"/>
      <point x="967" y="283"/>
      <point x="876" y="252"/>
      <point x="778" y="252" type="curve" smooth="yes"/>
      <point x="683" y="252"/>
      <point x="595" y="282"/>
      <point x="523" y="333" type="curve"/>
      <point x="331" y="141" type="line"/>
    </contour>
    <contour>
      <point x="457" y="690" type="curve" smooth="yes"/>
      <point x="457" y="508"/>
      <point x="600" y="359"/>
      <point x="778" y="359" type="curve" smooth="yes"/>
      <point x="955" y="359"/>
      <point x="1098" y="508"/>
      <point x="1098" y="690" type="curve" smooth="yes"/>
      <point x="1098" y="872"/>
      <point x="955" y="1021"/>
      <point x="778" y="1021" type="curve" smooth="yes"/>
      <point x="600" y="1021"/>
      <point x="457" y="872"/>
    </contour>
  </outline>
</glyph>
<glyph name="brokenbar" format="1">
  <advance width="854"/>
  <unicode hex="00A6"/>
  <outline>
    <contour>
      <point x="380" y="886" type="line"/>
      <point x="380" y="1780" type="line"/>
      <point x="518" y="1780" type="line"/>
      <point x="518" y="886" type="line"/>
    </contour>
    <contour>
      <point x="380" y="-186" type="line"/>
      <point x="380" y="708" type="line"/>
      <point x="518" y="708" type="line"/>
      <point x="518" y="-186" type="line"/>
    </contour>
  </outline>
</glyph>
<glyph name="section" format="1">
  <advance width="1194"/>
  <unicode hex="00A7"/>
  <outline>
    <contour>
      <point x="55" y="-100" type="curve"/>
      <point x="95" y="230" type="line"/>
      <point x="189" y="230" type="line"/>
      <point x="209" y="-2" type="line"/>
      <point x="280" y="-79"/>
      <point x="388" y="-94"/>
      <point x="492" y="-94" type="curve" smooth="yes"/>
      <point x="630" y="-94"/>
      <point x="832" y="-40"/>
      <point x="858" y="170" type="curve" smooth="yes"/>
      <point x="895" y="470"/>
      <point x="136" y="412"/>
      <point x="182" y="810" type="curve"/>
      <point x="194" y="903"/>
      <point x="249" y="1015"/>
      <point x="321" y="1093" type="curve"/>
      <point x="267" y="1147"/>
      <point x="236" y="1215"/>
      <point x="248" y="1308" type="curve" smooth="yes"/>
      <point x="282" y="1587"/>
      <point x="595" y="1673"/>
      <point x="750" y="1673" type="curve" smooth="yes"/>
      <point x="934" y="1673"/>
      <point x="1079" y="1631"/>
      <point x="1133" y="1597" type="curve"/>
      <point x="1096" y="1296" type="line"/>
      <point x="1019" y="1296" type="line"/>
      <point x="984" y="1522" type="line"/>
      <point x="944" y="1569"/>
      <point x="822" y="1588"/>
      <point x="728" y="1587" type="curve" smooth="yes"/>
      <point x="619" y="1586"/>
      <point x="420" y="1537"/>
      <point x="397" y="1347" type="curve" smooth="yes"/>
      <point x="361" y="1037"/>
      <point x="1115" y="1085"/>
      <point x="1062" y="679" type="curve" smooth="yes"/>
      <point x="1049" y="582"/>
      <point x="1003" y="477"/>
      <point x="937" y="397" type="curve"/>
      <point x="986" y="345"/>
      <point x="1014" y="281"/>
      <point x="1004" y="194" type="curve" smooth="yes"/>
      <point x="971" y="-89"/>
      <point x="663" y="-186"/>
      <point x="468" y="-186" type="curve" smooth="yes"/>
      <point x="303" y="-186"/>
      <point x="106" y="-135"/>
    </contour>
    <contour>
      <point x="318" y="868" type="curve"/>
      <point x="291" y="633"/>
      <point x="657" y="595"/>
      <point x="866" y="457" type="curve"/>
      <point x="894" y="504"/>
      <point x="918" y="562"/>
      <point x="925" y="616" type="curve" smooth="yes"/>
      <point x="956" y="856"/>
      <point x="599" y="900"/>
      <point x="390" y="1038" type="curve"/>
      <point x="356" y="988"/>
      <point x="326" y="926"/>
    </contour>
  </outline>
</glyph>
<glyph name="logicalnot" format="1">
  <advance width="1370"/>
  <unicode hex="00AC"/>
  <outline>
    <contour>
      <point x="214" y="731" type="line"/>
      <point x="226" y="837" type="line"/>
      <point x="1188" y="837" type="line"/>
      <point x="1126" y="322" type="line"/>
      <point x="985" y="322" type="line"/>
      <point x="1035" y="731" type="line"/>
    </contour>
  </outline>
</glyph>
<glyph name="macron" format="1">
  <advance width="614"/>
  <unicode hex="00AF"/>
  <outline>
    <contour>
      <point x="47" y="1432" type="line"/>
      <point x="51" y="1551" type="line"/>
      <point x="561" y="1551" type="line"/>
      <point x="556" y="1432" type="line"/>
    </contour>
  </outline>
</glyph>
<glyph name="plusminus" format="1">
  <advance width="1370"/>
  <unicode hex="00B1"/>
  <outline>
    <contour>
      <point x="578" y="295" type="line"/>
      <point x="606" y="536" type="line"/>
      <point x="634" y="715" type="line"/>
      <point x="476" y="709" type="line"/>
      <point x="251" y="709" type="line"/>
      <point x="266" y="836" type="line"/>
      <point x="491" y="836" type="line"/>
      <point x="647" y="827" type="line"/>
      <point x="650" y="869"/>
      <point x="660" y="963"/>
      <point x="663" y="1005" type="curve"/>
      <point x="690" y="1235" type="line"/>
      <point x="833" y="1235" type="line"/>
      <point x="807" y="1005" type="line"/>
      <point x="777" y="827" type="line"/>
      <point x="908" y="836" type="line"/>
      <point x="1163" y="836" type="line"/>
      <point x="1149" y="709" type="line"/>
      <point x="893" y="709" type="line"/>
      <point x="765" y="715" type="line"/>
      <point x="763" y="672"/>
      <point x="753" y="579"/>
      <point x="750" y="536" type="curve"/>
      <point x="722" y="295" type="line"/>
    </contour>
    <contour>
      <point x="180" y="30" type="line"/>
      <point x="193" y="150" type="line"/>
      <point x="1062" y="150" type="line"/>
      <point x="1049" y="30" type="line"/>
    </contour>
  </outline>
</glyph>
<glyph name="twosuperior" format="1">
  <advance width="1163"/>
  <unicode hex="00B2"/>
  <outline>
    <contour>
      <point x="235" y="655" type="line"/>
      <point x="198" y="733" type="line"/>
      <point x="379" y="838"/>
      <point x="875" y="1126"/>
      <point x="875" y="1388" type="curve" smooth="yes"/>
      <point x="875" y="1488"/>
      <point x="789" y="1542"/>
      <point x="662" y="1542" type="curve" smooth="yes"/>
      <point x="534" y="1542"/>
      <point x="413" y="1484"/>
      <point x="325" y="1392" type="curve"/>
      <point x="269" y="1468" type="line"/>
      <point x="330" y="1548"/>
      <point x="513" y="1662"/>
      <point x="716" y="1665" type="curve" smooth="yes"/>
      <point x="939" y="1668"/>
      <point x="1036" y="1540"/>
      <point x="1036" y="1438" type="curve" smooth="yes"/>
      <point x="1036" y="1161"/>
      <point x="718" y="954"/>
      <point x="413" y="756" type="curve"/>
      <point x="932" y="776" type="line"/>
      <point x="1016" y="935" type="line"/>
      <point x="1099" y="912" type="line"/>
      <point x="1016" y="655" type="line"/>
    </contour>
  </outline>
</glyph>
<glyph name="threesuperior" format="1">
  <advance width="1071"/>
  <unicode hex="00B3"/>
  <outline>
    <contour>
      <point x="185" y="624" type="curve"/>
      <point x="199" y="712" type="line"/>
      <point x="271" y="673"/>
      <point x="381" y="654"/>
      <point x="448" y="655" type="curve" smooth="yes"/>
      <point x="596" y="656"/>
      <point x="801" y="736"/>
      <point x="806" y="915" type="curve"/>
      <point x="811" y="1011"/>
      <point x="744" y="1079"/>
      <point x="614" y="1080" type="curve"/>
      <point x="399" y="1030" type="line"/>
      <point x="415" y="1131" type="line"/>
      <point x="601" y="1169"/>
      <point x="795" y="1246"/>
      <point x="816" y="1423" type="curve"/>
      <point x="824" y="1501"/>
      <point x="769" y="1558"/>
      <point x="633" y="1556" type="curve" smooth="yes"/>
      <point x="520" y="1554"/>
      <point x="403" y="1511"/>
      <point x="319" y="1455" type="curve"/>
      <point x="290" y="1538" type="line"/>
      <point x="404" y="1617"/>
      <point x="555" y="1662"/>
      <point x="699" y="1662" type="curve" smooth="yes"/>
      <point x="893" y="1662"/>
      <point x="988" y="1564"/>
      <point x="984" y="1446" type="curve" smooth="yes"/>
      <point x="980" y="1299"/>
      <point x="862" y="1205"/>
      <point x="721" y="1152" type="curve"/>
      <point x="928" y="1153"/>
      <point x="974" y="1015"/>
      <point x="971" y="922" type="curve" smooth="yes"/>
      <point x="963" y="680"/>
      <point x="699" y="552"/>
      <point x="465" y="552" type="curve" smooth="yes"/>
      <point x="394" y="552"/>
      <point x="262" y="575"/>
    </contour>
  </outline>
</glyph>
<glyph name="acute" format="1">
  <advance width="559"/>
  <unicode hex="00B4"/>
  <outline>
    <contour>
      <point x="100" y="1255" type="curve"/>
      <point x="57" y="1304" type="line"/>
      <point x="379" y="1729" type="line"/>
      <point x="492" y="1596" type="line"/>
      <point x="454" y="1530"/>
      <point x="221" y="1323"/>
    </contour>
  </outline>
</glyph>
<glyph name="paragraph" format="1">
  <advance width="1364"/>
  <unicode hex="00B6"/>
  <outline>
    <contour>
      <point x="256" y="0" type="line"/>
      <point x="262" y="70" type="line"/>
      <point x="444" y="94" type="line"/>
      <point x="537" y="774" type="line"/>
      <point x="319" y="779"/>
      <point x="184" y="899"/>
      <point x="180" y="1117" type="curve" smooth="yes"/>
      <point x="175" y="1387"/>
      <point x="332" y="1571"/>
      <point x="731" y="1571" type="curve" smooth="yes"/>
      <point x="913" y="1571"/>
      <point x="1002" y="1552"/>
      <point x="1107" y="1552" type="curve" smooth="yes"/>
      <point x="1368" y="1552" type="line"/>
      <point x="1359" y="1449" type="line"/>
      <point x="1172" y="1430" type="line"/>
      <point x="1123" y="1015"/>
      <point x="1039" y="511"/>
      <point x="989" y="94" type="curve"/>
      <point x="1164" y="69" type="line"/>
      <point x="1156" y="0" type="line"/>
      <point x="819" y="0" type="line"/>
      <point x="1015" y="1428" type="line"/>
      <point x="968" y="1437"/>
      <point x="904" y="1445"/>
      <point x="783" y="1445" type="curve"/>
      <point x="585" y="0" type="line"/>
    </contour>
  </outline>
</glyph>
<glyph name="threequarters" format="1">
  <advance width="2563"/>
  <unicode hex="00BE"/>
  <outline>
    <contour>
      <point x="1855" y="-176" type="line"/>
      <point x="1903" y="172" type="line"/>
      <point x="1384" y="172" type="line"/>
      <point x="1354" y="249" type="line"/>
      <point x="1964" y="1113" type="line"/>
      <point x="2034" y="1114" type="line"/>
      <point x="2108" y="1031" type="line"/>
      <point x="1602" y="380" type="line"/>
      <point x="1506" y="259" type="line"/>
      <point x="1919" y="285" type="line"/>
      <point x="1960" y="578" type="line"/>
      <point x="2121" y="599" type="line"/>
      <point x="2080" y="295" type="line"/>
      <point x="2345" y="312" type="line"/>
      <point x="2330" y="172" type="line"/>
      <point x="2063" y="172" type="line"/>
      <point x="2017" y="-176" type="line"/>
    </contour>
    <contour>
      <point x="262" y="624" type="curve"/>
      <point x="276" y="712" type="line"/>
      <point x="348" y="673"/>
      <point x="458" y="654"/>
      <point x="525" y="655" type="curve" smooth="yes"/>
      <point x="673" y="656"/>
      <point x="878" y="736"/>
      <point x="883" y="915" type="curve"/>
      <point x="888" y="1011"/>
      <point x="821" y="1079"/>
      <point x="691" y="1080" type="curve"/>
      <point x="476" y="1030" type="line"/>
      <point x="492" y="1131" type="line"/>
      <point x="678" y="1169"/>
      <point x="872" y="1246"/>
      <point x="893" y="1423" type="curve"/>
      <point x="901" y="1501"/>
      <point x="846" y="1558"/>
      <point x="710" y="1556" type="curve" smooth="yes"/>
      <point x="597" y="1554"/>
      <point x="480" y="1511"/>
      <point x="396" y="1455" type="curve"/>
      <point x="367" y="1538" type="line"/>
      <point x="481" y="1617"/>
      <point x="632" y="1662"/>
      <point x="776" y="1662" type="curve" smooth="yes"/>
      <point x="970" y="1662"/>
      <point x="1065" y="1564"/>
      <point x="1061" y="1446" type="curve" smooth="yes"/>
      <point x="1057" y="1299"/>
      <point x="939" y="1205"/>
      <point x="798" y="1152" type="curve"/>
      <point x="1005" y="1153"/>
      <point x="1051" y="1015"/>
      <point x="1048" y="922" type="curve" smooth="yes"/>
      <point x="1040" y="680"/>
      <point x="776" y="552"/>
      <point x="542" y="552" type="curve" smooth="yes"/>
      <point x="471" y="552"/>
      <point x="339" y="575"/>
    </contour>
    <contour>
      <point x="876" y="0" type="line"/>
      <point x="1557" y="1530" type="line"/>
      <point x="1689" y="1530" type="line"/>
      <point x="1008" y="0" type="line"/>
    </contour>
  </outline>
</glyph>
<glyph name="questiondown" format="1">
  <advance width="1028"/>
  <unicode hex="00BF"/>
  <outline>
    <contour>
      <point x="567" y="1204" type="curve" smooth="yes"/>
      <point x="502" y="1204"/>
      <point x="474" y="1237"/>
      <point x="475" y="1287" type="curve" smooth="yes"/>
      <point x="476" y="1377"/>
      <point x="558" y="1432"/>
      <point x="624" y="1432" type="curve" smooth="yes"/>
      <point x="674" y="1432"/>
      <point x="714" y="1399"/>
      <point x="713" y="1341" type="curve" smooth="yes"/>
      <point x="712" y="1264"/>
      <point x="629" y="1204"/>
    </contour>
    <contour>
      <point x="84" y="41" type="curve" smooth="yes"/>
      <point x="84" y="495"/>
      <point x="672" y="453"/>
      <point x="672" y="719" type="curve" smooth="yes"/>
      <point x="672" y="787"/>
      <point x="640" y="868"/>
      <point x="622" y="911" type="curve"/>
      <point x="725" y="951" type="line"/>
      <point x="739" y="950" type="line"/>
      <point x="785" y="905"/>
      <point x="819" y="792"/>
      <point x="819" y="692" type="curve" smooth="yes"/>
      <point x="819" y="551"/>
      <point x="651" y="485"/>
      <point x="486" y="394" type="curve" smooth="yes"/>
      <point x="376" y="334"/>
      <point x="265" y="270"/>
      <point x="234" y="197" type="curve"/>
      <point x="225" y="166"/>
      <point x="222" y="138"/>
      <point x="222" y="109" type="curve" smooth="yes"/>
      <point x="222" y="-137"/>
      <point x="384" y="-270"/>
      <point x="576" y="-270" type="curve" smooth="yes"/>
      <point x="634" y="-270"/>
      <point x="700" y="-258"/>
      <point x="748" y="-232" type="curve"/>
      <point x="726" y="-346" type="line"/>
      <point x="698" y="-376"/>
      <point x="608" y="-399"/>
      <point x="533" y="-399" type="curve" smooth="yes"/>
      <point x="179" y="-399"/>
      <point x="84" y="-170"/>
    </contour>
  </outline>
</glyph>
<glyph name="Acircumflex" format="1">
  <advance width="1264"/>
  <unicode hex="00C2"/>
  <outline>
    <contour>
      <point x="4" y="93" type="line"/>
      <point x="726" y="1530" type="line"/>
      <point x="893" y="1530" type="line"/>
      <point x="1128" y="96" type="line"/>
      <point x="1295" y="69" type="line"/>
      <point x="1289" y="0" type="line"/>
      <point x="801" y="0" type="line"/>
      <point x="806" y="69" type="line"/>
      <point x="971" y="93" type="line"/>
      <point x="919" y="449" type="line"/>
      <point x="319" y="449" type="line"/>
      <point x="148" y="94" type="line"/>
      <point x="321" y="69" type="line"/>
      <point x="316" y="0" type="line"/>
      <point x="-148" y="0" type="line"/>
      <point x="-140" y="69" type="line"/>
    </contour>
    <contour>
      <point x="367" y="547" type="line"/>
      <point x="905" y="547" type="line"/>
      <point x="799" y="1274" type="line"/>
      <point x="781" y="1403" type="line"/>
    </contour>
    <contour>
      <point x="507" y="1619" type="line"/>
      <point x="457" y="1666" type="line"/>
      <point x="778" y="2000" type="line"/>
      <point x="920" y="2000" type="line"/>
      <point x="1139" y="1665" type="line"/>
      <point x="1084" y="1617" type="line"/>
      <point x="842" y="1873" type="line"/>
    </contour>
  </outline>
</glyph>
<glyph name="Aring" format="1">
  <advance width="1264"/>
  <unicode hex="00C5"/>
  <outline>
    <contour>
      <point x="4" y="93" type="line"/>
      <point x="704" y="1486" type="line"/>
      <point x="563" y="1509"/>
      <point x="492" y="1603"/>
      <point x="506" y="1737" type="curve" smooth="yes"/>
      <point x="524" y="1918"/>
      <point x="699" y="1990"/>
      <point x="843" y="1990" type="curve" smooth="yes"/>
      <point x="1019" y="1990"/>
      <point x="1121" y="1899"/>
      <point x="1107" y="1745" type="curve" smooth="yes"/>
      <point x="1094" y="1612"/>
      <point x="1004" y="1533"/>
      <point x="898" y="1499" type="curve"/>
      <point x="1128" y="96" type="line"/>
      <point x="1295" y="69" type="line"/>
      <point x="1289" y="0" type="line"/>
      <point x="801" y="0" type="line"/>
      <point x="806" y="69" type="line"/>
      <point x="971" y="93" type="line"/>
      <point x="919" y="449" type="line"/>
      <point x="319" y="449" type="line"/>
      <point x="148" y="94" type="line"/>
      <point x="321" y="69" type="line"/>
      <point x="316" y="0" type="line"/>
      <point x="-148" y="0" type="line"/>
      <point x="-140" y="69" type="line"/>
    </contour>
    <contour>
      <point x="786" y="1546" type="curve" smooth="yes"/>
      <point x="894" y="1544"/>
      <point x="990" y="1593"/>
      <point x="1001" y="1739" type="curve" smooth="yes"/>
      <point x="1009" y="1851"/>
      <point x="937" y="1923"/>
      <point x="831" y="1924" type="curve"/>
      <point x="724" y="1924"/>
      <point x="623" y="1875"/>
      <point x="612" y="1737" type="curve" smooth="yes"/>
      <point x="604" y="1630"/>
      <point x="679" y="1547"/>
    </contour>
    <contour>
      <point x="367" y="547" type="line"/>
      <point x="905" y="547" type="line"/>
      <point x="799" y="1274" type="line"/>
      <point x="781" y="1403" type="line"/>
    </contour>
  </outline>
</glyph>
<glyph name="Egrave" format="1">
  <advance width="1210"/>
  <unicode hex="00C8"/>
  <outline>
    <contour>
      <point x="38" y="0" type="line"/>
      <point x="46" y="69" type="line"/>
      <point x="193" y="93" type="line"/>
      <point x="373" y="1430" type="line"/>
      <point x="241" y="1449" type="line"/>
      <point x="251" y="1530" type="line"/>
      <point x="1162" y="1530" type="line"/>
      <point x="1155" y="1220" type="line"/>
      <point x="1069" y="1220" type="line"/>
      <point x="1033" y="1427" type="line"/>
      <point x="536" y="1443" type="line"/>
      <point x="456" y="840" type="line"/>
      <point x="922" y="846" type="line"/>
      <point x="912" y="721" type="line"/>
      <point x="441" y="734" type="line"/>
      <point x="353" y="94" type="line"/>
      <point x="961" y="113" type="line"/>
      <point x="1074" y="341" type="line"/>
      <point x="1158" y="316" type="line"/>
      <point x="1069" y="0" type="line"/>
    </contour>
    <contour>
      <point x="812" y="1614" type="line"/>
      <point x="715" y="1669"/>
      <point x="530" y="1789"/>
      <point x="481" y="1890" type="curve"/>
      <point x="587" y="2000" type="line"/>
      <point x="858" y="1651" type="line"/>
    </contour>
  </outline>
</glyph>
<glyph name="Igrave" format="1">
  <advance width="717"/>
  <unicode hex="00CC"/>
  <outline>
    <contour>
      <point x="54" y="0" type="line"/>
      <point x="61" y="69" type="line"/>
      <point x="210" y="94" type="line"/>
      <point x="390" y="1430" type="line"/>
      <point x="255" y="1449" type="line"/>
      <point x="265" y="1530" type="line"/>
      <point x="710" y="1530" type="line"/>
      <point x="702" y="1449" type="line"/>
      <point x="551" y="1430" type="line"/>
      <point x="371" y="94" type="line"/>
      <point x="527" y="70" type="line"/>
      <point x="520" y="0" type="line"/>
    </contour>
    <contour>
      <point x="560" y="1614" type="line"/>
      <point x="463" y="1669"/>
      <point x="278" y="1789"/>
      <point x="229" y="1890" type="curve"/>
      <point x="335" y="2000" type="line"/>
      <point x="606" y="1651" type="line"/>
    </contour>
  </outline>
</glyph>
<glyph name="Idieresis" format="1">
  <advance width="717"/>
  <unicode hex="00CF"/>
  <outline>
    <contour>
      <point x="54" y="0" type="line"/>
      <point x="61" y="69" type="line"/>
      <point x="210" y="94" type="line"/>
      <point x="390" y="1430" type="line"/>
      <point x="255" y="1449" type="line"/>
      <point x="265" y="1530" type="line"/>
      <point x="710" y="1530" type="line"/>
      <point x="702" y="1449" type="line"/>
      <point x="551" y="1430" type="line"/>
      <point x="371" y="94" type="line"/>
      <point x="527" y="70" type="line"/>
      <point x="520" y="0" type="line"/>
    </contour>
    <contour>
      <point x="733" y="1717" type="curve" smooth="yes"/>
      <point x="682" y="1717"/>
      <point x="641" y="1759"/>
      <point x="642" y="1818" type="curve" smooth="yes"/>
      <point x="643" y="1886"/>
      <point x="708" y="1938"/>
      <point x="760" y="1938" type="curve" smooth="yes"/>
      <point x="821" y="1938"/>
      <point x="858" y="1897"/>
      <point x="855" y="1840" type="curve" smooth="yes"/>
      <point x="852" y="1772"/>
      <point x="797" y="1717"/>
    </contour>
    <contour>
      <point x="313" y="1717" type="curve" smooth="yes"/>
      <point x="262" y="1717"/>
      <point x="221" y="1761"/>
      <point x="224" y="1818" type="curve" smooth="yes"/>
      <point x="227" y="1886"/>
      <point x="286" y="1938"/>
      <point x="339" y="1938" type="curve" smooth="yes"/>
      <point x="401" y="1938"/>
      <point x="438" y="1897"/>
      <point x="435" y="1840" type="curve" smooth="yes"/>
      <point x="432" y="1772"/>
      <point x="376" y="1717"/>
    </contour>
  </outline>
</glyph>
<glyph name="Ucircumflex" format="1">
  <advance width="1396"/>
  <unicode hex="00DB"/>
  <outline>
    <contour>
      <point x="178" y="426" type="curve" smooth="yes"/>
      <point x="177" y="478"/>
      <point x="180" y="534"/>
      <point x="186" y="593" type="curve"/>
      <point x="311" y="1431" type="line"/>
      <point x="172" y="1450" type="line"/>
      <point x="182" y="1530" type="line"/>
      <point x="637" y="1530" type="line"/>
      <point x="628" y="1450" type="line"/>
      <point x="474" y="1429" type="line"/>
      <point x="351" y="607" type="line"/>
      <point x="343" y="534"/>
      <point x="340" y="475"/>
      <point x="341" y="418" type="curve" smooth="yes"/>
      <point x="345" y="202"/>
      <point x="446" y="69"/>
      <point x="651" y="69" type="curve" smooth="yes"/>
      <point x="902" y="69"/>
      <point x="1043" y="249"/>
      <point x="1088" y="627" type="curve"/>
      <point x="1207" y="1429" type="line"/>
      <point x="1072" y="1449" type="line"/>
      <point x="1081" y="1530" type="line"/>
      <point x="1485" y="1530" type="line"/>
      <point x="1476" y="1449" type="line"/>
      <point x="1347" y="1431" type="line"/>
      <point x="1227" y="627" type="line"/>
      <point x="1166" y="155"/>
      <point x="971" y="-20"/>
      <point x="628" y="-20" type="curve" smooth="yes"/>
      <point x="342" y="-20"/>
      <point x="183" y="150"/>
    </contour>
    <contour>
      <point x="547" y="1619" type="line"/>
      <point x="497" y="1666" type="line"/>
      <point x="818" y="2000" type="line"/>
      <point x="960" y="2000" type="line"/>
      <point x="1179" y="1665" type="line"/>
      <point x="1124" y="1617" type="line"/>
      <point x="882" y="1873" type="line"/>
    </contour>
  </outline>
</glyph>
<glyph name="germandbls" format="1">
  <advance width="1170"/>
  <unicode hex="00DF"/>
  <outline>
    <contour>
      <point x="82" y="0" type="line"/>
      <point x="202" y="927" type="line" smooth="yes"/>
      <point x="280" y="1526"/>
      <point x="557" y="1585"/>
      <point x="774" y="1585" type="curve" smooth="yes"/>
      <point x="952" y="1585"/>
      <point x="1085" y="1488"/>
      <point x="1085" y="1297" type="curve" smooth="yes"/>
      <point x="1085" y="1025"/>
      <point x="815" y="988"/>
      <point x="815" y="850" type="curve" smooth="yes"/>
      <point x="815" y="798"/>
      <point x="863" y="734"/>
      <point x="941" y="626" type="curve"/>
      <point x="991" y="547"/>
      <point x="1057" y="448"/>
      <point x="1057" y="318" type="curve" smooth="yes"/>
      <point x="1057" y="129"/>
      <point x="857" y="-17"/>
      <point x="648" y="-17" type="curve" smooth="yes"/>
      <point x="561" y="-17"/>
      <point x="470" y="3"/>
      <point x="430" y="20" type="curve"/>
      <point x="451" y="171" type="line"/>
      <point x="482" y="139"/>
      <point x="586" y="89"/>
      <point x="674" y="89" type="curve" smooth="yes"/>
      <point x="784" y="90"/>
      <point x="890" y="136"/>
      <point x="890" y="295" type="curve" smooth="yes"/>
      <point x="890" y="385"/>
      <point x="844" y="479"/>
      <point x="806" y="543" type="curve"/>
      <point x="752" y="616"/>
      <point x="671" y="729"/>
      <point x="671" y="811" type="curve" smooth="yes"/>
      <point x="671" y="898"/>
      <point x="712" y="937"/>
      <point x="765" y="993" type="curve"/>
      <point x="860" y="1080"/>
      <point x="924" y="1169"/>
      <point x="924" y="1293" type="curve" smooth="yes"/>
      <point x="924" y="1399"/>
      <point x="863" y="1488"/>
      <point x="729" y="1488" type="curve" smooth="yes"/>
      <point x="553" y="1488"/>
      <point x="410" y="1343"/>
      <point x="350" y="879" type="curve" smooth="yes"/>
      <point x="237" y="0" type="line"/>
    </contour>
  </outline>
</glyph>
<glyph name="atilde" format="1">
  <advance width="1138"/>
  <unicode hex="00E3"/>
  <outline>
    <contour>
      <point x="375" y="-20" type="curve" smooth="yes"/>
      <point x="163" y="-20"/>
      <point x="66" y="149"/>
      <point x="66" y="399" type="curve" smooth="yes"/>
      <point x="66" y="708"/>
      <point x="302" y="1163"/>
      <point x="706" y="1163" type="curve" smooth="yes"/>
      <point x="770" y="1163"/>
      <point x="843" y="1146"/>
      <point x="899" y="1127" type="curve"/>
      <point x="900" y="1128" type="line"/>
      <point x="1018" y="1162" type="line"/>
      <point x="868" y="173" type="line" smooth="yes"/>
      <point x="858" y="104"/>
      <point x="887" y="85"/>
      <point x="906" y="85" type="curve" smooth="yes"/>
      <point x="932" y="85"/>
      <point x="957" y="109"/>
      <point x="996" y="144" type="curve"/>
      <point x="1023" y="100" type="line"/>
      <point x="1012" y="77"/>
      <point x="928" y="-20"/>
      <point x="824" y="-20" type="curve" smooth="yes"/>
      <point x="748" y="-20"/>
      <point x="701" y="17"/>
      <point x="708" y="117" type="curve"/>
      <point x="718" y="190" type="line"/>
      <point x="648" y="90"/>
      <point x="524" y="-20"/>
    </contour>
    <contour>
      <point x="407" y="94" type="curve" smooth="yes"/>
      <point x="558" y="94"/>
      <point x="683" y="244"/>
      <point x="739" y="336" type="curve"/>
      <point x="842" y="1019" type="line"/>
      <point x="798" y="1052"/>
      <point x="739" y="1064"/>
      <point x="681" y="1064" type="curve" smooth="yes"/>
      <point x="389" y="1064"/>
      <point x="230" y="692"/>
      <point x="230" y="421" type="curve" smooth="yes"/>
      <point x="230" y="206"/>
      <point x="291" y="94"/>
    </contour>
    <contour>
      <point x="408" y="1416" type="curve"/>
      <point x="370" y="1485" type="line"/>
      <point x="412" y="1568"/>
      <point x="509" y="1650"/>
      <point x="610" y="1650" type="curve" smooth="yes"/>
      <point x="740" y="1650"/>
      <point x="772" y="1504"/>
      <point x="869" y="1504" type="curve" smooth="yes"/>
      <point x="948" y="1504"/>
      <point x="997" y="1578"/>
      <point x="1029" y="1623" type="curve"/>
      <point x="1076" y="1549" type="line"/>
      <point x="1043" y="1453"/>
      <point x="946" y="1374"/>
      <point x="839" y="1374" type="curve" smooth="yes"/>
      <point x="683" y="1374"/>
      <point x="680" y="1519"/>
      <point x="569" y="1520" type="curve" smooth="yes"/>
      <point x="511" y="1521"/>
      <point x="445" y="1459"/>
    </contour>
  </outline>
</glyph>
<glyph name="ccedilla" format="1">
  <advance width="897"/>
  <unicode hex="00E7"/>
  <outline>
    <contour>
      <point x="165" y="-331" type="line"/>
      <point x="182" y="-340"/>
      <point x="209" y="-348"/>
      <point x="250" y="-348" type="curve" smooth="yes"/>
      <point x="347" y="-348"/>
      <point x="414" y="-285"/>
      <point x="427" y="-142" type="curve"/>
      <point x="431" y="-86"/>
      <point x="429" y="-49"/>
      <point x="423" y="-20" type="curve"/>
      <point x="421" y="-20" type="line" smooth="yes"/>
      <point x="200" y="-20"/>
      <point x="71" y="151"/>
      <point x="71" y="430" type="curve" smooth="yes"/>
      <point x="71" y="760"/>
      <point x="272" y="1163"/>
      <point x="646" y="1163" type="curve" smooth="yes"/>
      <point x="718" y="1163"/>
      <point x="809" y="1144"/>
      <point x="866" y="1115" type="curve"/>
      <point x="825" y="968" type="line"/>
      <point x="767" y="1017"/>
      <point x="681" y="1045"/>
      <point x="610" y="1045" type="curve" smooth="yes"/>
      <point x="395" y="1045"/>
      <point x="238" y="797"/>
      <point x="238" y="453" type="curve" smooth="yes"/>
      <point x="238" y="213"/>
      <point x="324" y="92"/>
      <point x="465" y="92" type="curve" smooth="yes"/>
      <point x="582" y="92"/>
      <point x="659" y="144"/>
      <point x="756" y="217" type="curve"/>
      <point x="788" y="151" type="line"/>
      <point x="748" y="105"/>
      <point x="654" y="19"/>
      <point x="517" y="-10" type="curve"/>
      <point x="533" y="-55"/>
      <point x="538" y="-120"/>
      <point x="532" y="-194" type="curve" smooth="yes"/>
      <point x="514" y="-410"/>
      <point x="418" y="-464"/>
      <point x="275" y="-464" type="curve" smooth="yes"/>
      <point x="222" y="-464"/>
      <point x="159" y="-452"/>
      <point x="137" y="-436" type="curve"/>
    </contour>
  </outline>
</glyph>
<glyph name="eacute" format="1">
  <advance width="1025"/>
  <unicode hex="00E9"/>
  <outline>
    <contour>
      <point x="83" y="437" type="curve" smooth="yes"/>
      <point x="93" y="816"/>
      <point x="330" y="1163"/>
      <point x="658" y="1163" type="curve" smooth="yes"/>
      <point x="848" y="1163"/>
      <point x="940" y="1054"/>
      <point x="940" y="913" type="curve" smooth="yes"/>
      <point x="940" y="599"/>
      <point x="449" y="472"/>
      <point x="250" y="467" type="curve"/>
      <point x="236" y="314"/>
      <point x="285" y="92"/>
      <point x="492" y="92" type="curve" smooth="yes"/>
      <point x="600" y="92"/>
      <point x="718" y="139"/>
      <point x="833" y="254" type="curve"/>
      <point x="871" y="186" type="line"/>
      <point x="814" y="107"/>
      <point x="667" y="-20"/>
      <point x="473" y="-20" type="curve" smooth="yes"/>
      <point x="185" y="-20"/>
      <point x="77" y="211"/>
    </contour>
    <contour>
      <point x="254" y="557" type="curve"/>
      <point x="470" y="564"/>
      <point x="776" y="687"/>
      <point x="776" y="899" type="curve" smooth="yes"/>
      <point x="776" y="1012"/>
      <point x="716" y="1069"/>
      <point x="621" y="1069" type="curve" smooth="yes"/>
      <point x="400" y="1069"/>
      <point x="275" y="770"/>
    </contour>
    <contour>
      <point x="577" y="1255" type="curve"/>
      <point x="534" y="1304" type="line"/>
      <point x="856" y="1729" type="line"/>
      <point x="969" y="1596" type="line"/>
      <point x="931" y="1530"/>
      <point x="698" y="1323"/>
    </contour>
  </outline>
</glyph>
<glyph name="idieresis" format="1">
  <advance width="625"/>
  <unicode hex="00EF"/>
  <outline>
    <contour>
      <point x="156" y="99" type="curve"/>
      <point x="165" y="225"/>
      <point x="242" y="717"/>
      <point x="285" y="1016" type="curve"/>
      <point x="148" y="1056" type="line"/>
      <point x="162" y="1121" type="line"/>
      <point x="420" y="1163" type="line"/>
      <point x="461" y="1142" type="line"/>
      <point x="320" y="158" type="line" smooth="yes"/>
      <point x="313" y="108"/>
      <point x="329" y="85"/>
      <point x="348" y="85" type="curve" smooth="yes"/>
      <point x="377" y="85"/>
      <point x="406" y="104"/>
      <point x="456" y="156" type="curve"/>
      <point x="483" y="112" type="line"/>
      <point x="465" y="84"/>
      <point x="377" y="-20"/>
      <point x="265" y="-20" type="curve" smooth="yes"/>
      <point x="197" y="-20"/>
      <point x="148" y="11"/>
    </contour>
    <contour>
      <point x="619" y="1406" type="curve" smooth="yes"/>
      <point x="567" y="1406"/>
      <point x="525" y="1450"/>
      <point x="529" y="1508" type="curve"/>
      <point x="532" y="1575"/>
      <point x="586" y="1627"/>
      <point x="645" y="1627" type="curve" smooth="yes"/>
      <point x="707" y="1627"/>
      <point x="745" y="1586"/>
      <point x="742" y="1530" type="curve" smooth="yes"/>
      <point x="738" y="1462"/>
      <point x="684" y="1406"/>
    </contour>
    <contour>
      <point x="198" y="1406" type="curve" smooth="yes"/>
      <point x="145" y="1406"/>
      <point x="104" y="1450"/>
      <point x="107" y="1508" type="curve" smooth="yes"/>
      <point x="111" y="1575"/>
      <point x="165" y="1627"/>
      <point x="224" y="1627" type="curve" smooth="yes"/>
      <point x="285" y="1627"/>
      <point x="323" y="1586"/>
      <point x="320" y="1530" type="curve" smooth="yes"/>
      <point x="317" y="1462"/>
      <point x="262" y="1406"/>
    </contour>
  </outline>
</glyph>
<glyph name="eth" format="1">
  <advance width="1134"/>
  <unicode hex="00F0"/>
  <outline>
    <contour>
      <point x="86" y="421" type="curve" smooth="yes"/>
      <point x="86" y="849"/>
      <point x="352" y="1110"/>
      <point x="631" y="1110" type="curve" smooth="yes"/>
      <point x="737" y="1110"/>
      <point x="854" y="1064"/>
      <point x="903" y="976" type="curve"/>
      <point x="861" y="1173"/>
      <point x="811" y="1310"/>
      <point x="677" y="1431" type="curve"/>
      <point x="526" y="1257" type="line"/>
      <point x="440" y="1328" type="line"/>
      <point x="593" y="1498" type="line"/>
      <point x="512" y="1557"/>
      <point x="419" y="1611"/>
      <point x="345" y="1628" type="curve"/>
      <point x="381" y="1725" type="line"/>
      <point x="457" y="1706"/>
      <point x="576" y="1645"/>
      <point x="670" y="1585" type="curve"/>
      <point x="732" y="1653"/>
      <point x="828" y="1771"/>
      <point x="828" y="1771" type="curve"/>
      <point x="911" y="1697" type="line"/>
      <point x="911" y="1697"/>
      <point x="809" y="1582"/>
      <point x="757" y="1524" type="curve"/>
      <point x="762" y="1520" type="line"/>
      <point x="985" y="1330"/>
      <point x="1053" y="1093"/>
      <point x="1053" y="816" type="curve" smooth="yes"/>
      <point x="1053" y="377"/>
      <point x="844" y="-20"/>
      <point x="467" y="-20" type="curve" smooth="yes"/>
      <point x="196" y="-20"/>
      <point x="86" y="207"/>
    </contour>
    <contour>
      <point x="254" y="412" type="curve" smooth="yes"/>
      <point x="254" y="228"/>
      <point x="323" y="67"/>
      <point x="489" y="67" type="curve" smooth="yes"/>
      <point x="679" y="67"/>
      <point x="829" y="308"/>
      <point x="869" y="566" type="curve" smooth="yes"/>
      <point x="880" y="638"/>
      <point x="887" y="742"/>
      <point x="883" y="783" type="curve" smooth="yes"/>
      <point x="877" y="845"/>
      <point x="812" y="1020"/>
      <point x="628" y="1020" type="curve" smooth="yes"/>
      <point x="381" y="1020"/>
      <point x="254" y="711"/>
    </contour>
  </outline>
</glyph>
<glyph name="ograve" format="1">
  <advance width="1123"/>
  <unicode hex="00F2"/>
  <outline>
    <contour>
      <point x="87" y="439" type="curve" smooth="yes"/>
      <point x="81" y="802"/>
      <point x="308" y="1163"/>
      <point x="644" y="1163" type="curve" smooth="yes"/>
      <point x="897" y="1163"/>
      <point x="1026" y="994"/>
      <point x="1031" y="703" type="curve" smooth="yes"/>
      <point x="1037" y="342"/>
      <point x="809" y="-20"/>
      <point x="473" y="-20" type="curve" smooth="yes"/>
      <point x="220" y="-20"/>
      <point x="92" y="148"/>
    </contour>
    <contour>
      <point x="501" y="78" type="curve" smooth="yes"/>
      <point x="751" y="78"/>
      <point x="869" y="429"/>
      <point x="865" y="701" type="curve" smooth="yes"/>
      <point x="862" y="926"/>
      <point x="786" y="1065"/>
      <point x="615" y="1065" type="curve" smooth="yes"/>
      <point x="363" y="1065"/>
      <point x="247" y="713"/>
      <point x="252" y="441" type="curve"/>
      <point x="255" y="212"/>
      <point x="334" y="78"/>
    </contour>
    <contour>
      <point x="660" y="1255" type="line"/>
      <point x="566" y="1315"/>
      <point x="335" y="1504"/>
      <point x="283" y="1596" type="curve"/>
      <point x="404" y="1729" type="line"/>
      <point x="704" y="1304" type="line"/>
    </contour>
  </outline>
</glyph>
<glyph name="oslash" format="1">
  <advance width="1122"/>
  <unicode hex="00F8"/>
  <outline>
    <contour>
      <point x="41" y="-87" type="line"/>
      <point x="179" y="112" type="line"/>
      <point x="120" y="190"/>
      <point x="89" y="301"/>
      <point x="87" y="441" type="curve" smooth="yes"/>
      <point x="81" y="804"/>
      <point x="308" y="1165"/>
      <point x="644" y="1165" type="curve" smooth="yes"/>
      <point x="726" y="1165"/>
      <point x="796" y="1147"/>
      <point x="852" y="1112" type="curve"/>
      <point x="982" y="1299" type="line"/>
      <point x="1054" y="1259" type="line"/>
      <point x="915" y="1060" type="line"/>
      <point x="989" y="982"/>
      <point x="1028" y="861"/>
      <point x="1031" y="705" type="curve" smooth="yes"/>
      <point x="1037" y="344"/>
      <point x="809" y="-18"/>
      <point x="473" y="-18" type="curve" smooth="yes"/>
      <point x="376" y="-18"/>
      <point x="298" y="6"/>
      <point x="238" y="53" type="curve"/>
      <point x="113" y="-127" type="line"/>
    </contour>
    <contour>
      <point x="280" y="247" type="curve"/>
      <point x="771" y="1008" type="line"/>
      <point x="732" y="1046"/>
      <point x="681" y="1067"/>
      <point x="615" y="1067" type="curve" smooth="yes"/>
      <point x="363" y="1067"/>
      <point x="247" y="715"/>
      <point x="252" y="443" type="curve" smooth="yes"/>
      <point x="253" y="367"/>
      <point x="262" y="301"/>
    </contour>
    <contour>
      <point x="323" y="164" type="line"/>
      <point x="364" y="109"/>
      <point x="423" y="80"/>
      <point x="501" y="80" type="curve" smooth="yes"/>
      <point x="751" y="80"/>
      <point x="869" y="431"/>
      <point x="865" y="703" type="curve" smooth="yes"/>
      <point x="863" y="797"/>
      <point x="849" y="875"/>
      <point x="821" y="935" type="curve"/>
    </contour>
  </outline>
</glyph>
<glyph name="ucircumflex" format="1">
  <advance width="1204"/>
  <unicode hex="00FB"/>
  <outline>
    <contour>
      <point x="165" y="254" type="curve" smooth="yes"/>
      <point x="165" y="346"/>
      <point x="185" y="488"/>
      <point x="201" y="606" type="curve" smooth="yes"/>
      <point x="255" y="1002" type="line"/>
      <point x="158" y="1049" type="line"/>
      <point x="172" y="1120" type="line"/>
      <point x="382" y="1163" type="line"/>
      <point x="422" y="1142" type="line"/>
      <point x="353" y="599" type="line" smooth="yes"/>
      <point x="338" y="479"/>
      <point x="321" y="385"/>
      <point x="321" y="279" type="curve" smooth="yes"/>
      <point x="321" y="123"/>
      <point x="383" y="90"/>
      <point x="477" y="90" type="curve" smooth="yes"/>
      <point x="587" y="90"/>
      <point x="718" y="186"/>
      <point x="792" y="279" type="curve"/>
      <point x="907" y="1155" type="line"/>
      <point x="1062" y="1155" type="line"/>
      <point x="932" y="159" type="line" smooth="yes"/>
      <point x="925" y="108"/>
      <point x="936" y="87"/>
      <point x="956" y="87" type="curve" smooth="yes"/>
      <point x="983" y="87"/>
      <point x="1016" y="106"/>
      <point x="1067" y="158" type="curve"/>
      <point x="1093" y="113" type="line"/>
      <point x="1077" y="86"/>
      <point x="981" y="-18"/>
      <point x="869" y="-18" type="curve" smooth="yes"/>
      <point x="794" y="-18"/>
      <point x="758" y="34"/>
      <point x="776" y="119" type="curve" smooth="yes"/>
      <point x="777" y="126"/>
      <point x="778" y="146"/>
      <point x="779" y="169" type="curve"/>
      <point x="697" y="76"/>
      <point x="571" y="-20"/>
      <point x="411" y="-20" type="curve" smooth="yes"/>
      <point x="261" y="-20"/>
      <point x="165" y="44"/>
    </contour>
    <contour>
      <point x="357" y="1228" type="line"/>
      <point x="311" y="1275" type="line"/>
      <point x="652" y="1650" type="line"/>
      <point x="794" y="1650" type="line"/>
      <point x="996" y="1273" type="line"/>
      <point x="935" y="1226" type="line"/>
      <point x="703" y="1523" type="line"/>
    </contour>
  </outline>
</glyph>
<glyph name="abreve" format="1">
  <advance width="1138"/>
  <unicode hex="0103"/>
  <outline>
    <contour>
      <point x="375" y="-20" type="curve" smooth="yes"/>
      <point x="163" y="-20"/>
      <point x="66" y="149"/>
      <point x="66" y="399" type="curve" smooth="yes"/>
      <point x="66" y="708"/>
      <point x="302" y="1163"/>
      <point x="706" y="1163" type="curve" smooth="yes"/>
      <point x="770" y="1163"/>
      <point x="843" y="1146"/>
      <point x="899" y="1127" type="curve"/>
      <point x="900" y="1128" type="line"/>
      <point x="1018" y="1162" type="line"/>
      <point x="868" y="173" type="line" smooth="yes"/>
      <point x="858" y="104"/>
      <point x="887" y="85"/>
      <point x="906" y="85" type="curve" smooth="yes"/>
      <point x="932" y="85"/>
      <point x="957" y="109"/>
      <point x="996" y="144" type="curve"/>
      <point x="1023" y="100" type="line"/>
      <point x="1012" y="77"/>
      <point x="928" y="-20"/>
      <point x="824" y="-20" type="curve" smooth="yes"/>
      <point x="748" y="-20"/>
      <point x="701" y="17"/>
      <point x="708" y="117" type="curve"/>
      <point x="718" y="190" type="line"/>
      <point x="648" y="90"/>
      <point x="524" y="-20"/>
    </contour>
    <contour>
      <point x="407" y="94" type="curve" smooth="yes"/>
      <point x="558" y="94"/>
      <point x="683" y="244"/>
      <point x="739" y="336" type="curve"/>
      <point x="842" y="1019" type="line"/>
      <point x="798" y="1052"/>
      <point x="739" y="1064"/>
      <point x="681" y="1064" type="curve" smooth="yes"/>
      <point x="389" y="1064"/>
      <point x="230" y="692"/>
      <point x="230" y="421" type="curve" smooth="yes"/>
      <point x="230" y="206"/>
      <point x="291" y="94"/>
    </contour>
    <contour>
      <point x="716" y="1304" type="curve" smooth="yes"/>
      <point x="530" y="1304"/>
      <point x="427" y="1468"/>
      <point x="427" y="1628" type="curve" smooth="yes"/>
      <point x="427" y="1634"/>
      <point x="427" y="1643"/>
      <point x="428" y="1648" type="curve"/>
      <point x="513" y="1648" type="line"/>
      <point x="514" y="1640"/>
      <point x="514" y="1628"/>
      <point x="516" y="1618" type="curve" smooth="yes"/>
      <point x="528" y="1527"/>
      <point x="587" y="1422"/>
      <point x="720" y="1422" type="curve" smooth="yes"/>
      <point x="868" y="1422"/>
      <point x="946" y="1569"/>
      <point x="962" y="1649" type="curve"/>
      <point x="1044" y="1649" type="line"/>
      <point x="1045" y="1638"/>
      <point x="1044" y="1627"/>
      <point x="1042" y="1617" type="curve" smooth="yes"/>
      <point x="1025" y="1469"/>
      <point x="884" y="1304"/>
    </contour>
  </outline>
</glyph>
<glyph name="Aogonek" format="1">
  <advance width="1264"/>
  <unicode hex="0104"/>
  <outline>
    <contour>
      <point x="4" y="93" type="line"/>
      <point x="726" y="1530" type="line"/>
      <point x="893" y="1530" type="line"/>
      <point x="1128" y="96" type="line"/>
      <point x="1295" y="69" type="line"/>
      <point x="1289" y="0" type="line"/>
      <point x="1053" y="0" type="line"/>
      <point x="1052" y="-13"/>
      <point x="1053" y="-26"/>
      <point x="1053" y="-38" type="curve"/>
      <point x="965" y="-119"/>
      <point x="897" y="-188"/>
      <point x="914" y="-245" type="curve"/>
      <point x="935" y="-296"/>
      <point x="984" y="-299"/>
      <point x="1008" y="-291" type="curve"/>
      <point x="1037" y="-291"/>
      <point x="1068" y="-283"/>
      <point x="1111" y="-249" type="curve"/>
      <point x="1100" y="-259"/>
      <point x="1102" y="-343"/>
      <point x="1077" y="-343" type="curve"/>
      <point x="1013" y="-379"/>
      <point x="945" y="-403"/>
      <point x="854" y="-394" type="curve"/>
      <point x="771" y="-387"/>
      <point x="735" y="-324"/>
      <point x="739" y="-271" type="curve"/>
      <point x="755" y="-214"/>
      <point x="803" y="-154"/>
      <point x="839" y="-122" type="curve"/>
      <point x="888" y="-58"/>
      <point x="943" y="-29"/>
      <point x="994" y="0" type="curve"/>
      <point x="801" y="0" type="line"/>
      <point x="806" y="69" type="line"/>
      <point x="971" y="93" type="line"/>
      <point x="919" y="449" type="line"/>
      <point x="319" y="449" type="line"/>
      <point x="148" y="94" type="line"/>
      <point x="321" y="69" type="line"/>
      <point x="316" y="0" type="line"/>
      <point x="-148" y="0" type="line"/>
      <point x="-140" y="69" type="line"/>
    </contour>
    <contour>
      <point x="367" y="547" type="line"/>
      <point x="905" y="547" type="line"/>
      <point x="799" y="1274" type="line"/>
      <point x="781" y="1403" type="line"/>
    </contour>
    <contour>
      <point x="1066" y="43" type="line"/>
      <point x="1070" y="46" type="line"/>
    </contour>
  </outline>
</glyph>
<glyph name="cacute" format="1">
  <advance width="897"/>
  <unicode hex="0107"/>
  <outline>
    <contour>
      <point x="421" y="-20" type="curve" smooth="yes"/>
      <point x="200" y="-20"/>
      <point x="71" y="151"/>
      <point x="71" y="430" type="curve" smooth="yes"/>
      <point x="71" y="760"/>
      <point x="272" y="1163"/>
      <point x="646" y="1163" type="curve" smooth="yes"/>
      <point x="718" y="1163"/>
      <point x="809" y="1144"/>
      <point x="866" y="1115" type="curve"/>
      <point x="825" y="968" type="line"/>
      <point x="767" y="1017"/>
      <point x="681" y="1045"/>
      <point x="610" y="1045" type="curve" smooth="yes"/>
      <point x="395" y="1045"/>
      <point x="238" y="797"/>
      <point x="238" y="453" type="curve" smooth="yes"/>
      <point x="238" y="213"/>
      <point x="324" y="92"/>
      <point x="465" y="92" type="curve" smooth="yes"/>
      <point x="582" y="92"/>
      <point x="659" y="144"/>
      <point x="756" y="217" type="curve"/>
      <point x="788" y="151" type="line"/>
      <point x="739" y="95"/>
      <point x="611" y="-20"/>
    </contour>
    <contour>
      <point x="594" y="1255" type="curve"/>
      <point x="551" y="1304" type="line"/>
      <point x="873" y="1729" type="line"/>
      <point x="986" y="1596" type="line"/>
      <point x="948" y="1530"/>
      <point x="715" y="1323"/>
    </contour>
  </outline>
</glyph>
<glyph name="dcaron" format="1">
  <advance width="1416"/>
  <unicode hex="010F"/>
  <outline>
    <contour>
      <point x="408" y="-20" type="curve" smooth="yes"/>
      <point x="182" y="-20"/>
      <point x="76" y="162"/>
      <point x="76" y="412" type="curve" smooth="yes"/>
      <point x="76" y="721"/>
      <point x="308" y="1163"/>
      <point x="717" y="1163" type="curve" smooth="yes"/>
      <point x="771" y="1163"/>
      <point x="833" y="1151"/>
      <point x="885" y="1136" type="curve"/>
      <point x="943" y="1515" type="line"/>
      <point x="815" y="1548" type="line"/>
      <point x="832" y="1615" type="line"/>
      <point x="1071" y="1650" type="line"/>
      <point x="1115" y="1627" type="line"/>
      <point x="901" y="158" type="line"/>
      <point x="895" y="109"/>
      <point x="907" y="85"/>
      <point x="924" y="85" type="curve" smooth="yes"/>
      <point x="951" y="85"/>
      <point x="980" y="104"/>
      <point x="1020" y="140" type="curve"/>
      <point x="1047" y="96" type="line"/>
      <point x="1030" y="71"/>
      <point x="947" y="-20"/>
      <point x="843" y="-20" type="curve" smooth="yes"/>
      <point x="775" y="-20"/>
      <point x="735" y="14"/>
      <point x="739" y="102" type="curve" smooth="yes"/>
      <point x="739" y="103"/>
      <point x="739" y="139"/>
      <point x="740" y="158" type="curve"/>
      <point x="672" y="70"/>
      <point x="553" y="-20"/>
    </contour>
    <contour>
      <point x="433" y="94" type="curve" smooth="yes"/>
      <point x="575" y="94"/>
      <point x="701" y="211"/>
      <point x="758" y="296" type="curve"/>
      <point x="867" y="1012" type="line"/>
      <point x="820" y="1051"/>
      <point x="755" y="1065"/>
      <point x="693" y="1065" type="curve" smooth="yes"/>
      <point x="385" y="1065"/>
      <point x="240" y="681"/>
      <point x="240" y="423" type="curve" smooth="yes"/>
      <point x="240" y="217"/>
      <point x="310" y="94"/>
    </contour>
    <contour>
      <point x="1272" y="1022" type="curve"/>
      <point x="1223" y="1046" type="line"/>
      <point x="1218" y="1066" type="line"/>
      <point x="1247" y="1148"/>
      <point x="1279" y="1260"/>
      <point x="1292" y="1381" type="curve" smooth="yes"/>
      <point x="1301" y="1469"/>
      <point x="1283" y="1556"/>
      <point x="1263" y="1586" type="curve"/>
      <point x="1278" y="1620" type="line"/>
      <point x="1402" y="1657" type="line"/>
      <point x="1436" y="1620"/>
      <point x="1440" y="1524"/>
      <point x="1430" y="1428" type="curve" smooth="yes"/>
      <point x="1411" y="1251"/>
      <point x="1338" y="1102"/>
    </contour>
  </outline>
</glyph>
<glyph name="ebreve" format="1">
  <advance width="1025"/>
  <unicode hex="0115"/>
  <outline>
    <contour>
      <point x="83" y="437" type="curve" smooth="yes"/>
      <point x="93" y="816"/>
      <point x="330" y="1163"/>
      <point x="658" y="1163" type="curve" smooth="yes"/>
      <point x="848" y="1163"/>
      <point x="940" y="1054"/>
      <point x="940" y="913" type="curve" smooth="yes"/>
      <point x="940" y="599"/>
      <point x="449" y="472"/>
      <point x="250" y="467" type="curve"/>
      <point x="236" y="314"/>
      <point x="285" y="92"/>
      <point x="492" y="92" type="curve" smooth="yes"/>
      <point x="600" y="92"/>
      <point x="718" y="139"/>
      <point x="833" y="254" type="curve"/>
      <point x="871" y="186" type="line"/>
      <point x="814" y="107"/>
      <point x="667" y="-20"/>
      <point x="473" y="-20" type="curve" smooth="yes"/>
      <point x="185" y="-20"/>
      <point x="77" y="211"/>
    </contour>
    <contour>
      <point x="254" y="557" type="curve"/>
      <point x="470" y="564"/>
      <point x="776" y="687"/>
      <point x="776" y="899" type="curve" smooth="yes"/>
      <point x="776" y="1012"/>
      <point x="716" y="1069"/>
      <point x="621" y="1069" type="curve" smooth="yes"/>
      <point x="400" y="1069"/>
      <point x="275" y="770"/>
    </contour>
    <contour>
      <point x="639" y="1304" type="curve" smooth="yes"/>
      <point x="453" y="1304"/>
      <point x="350" y="1468"/>
      <point x="350" y="1628" type="curve" smooth="yes"/>
      <point x="350" y="1634"/>
      <point x="350" y="1643"/>
      <point x="351" y="1648" type="curve"/>
      <point x="436" y="1648" type="line"/>
      <point x="437" y="1640"/>
      <point x="437" y="1628"/>
      <point x="439" y="1618" type="curve" smooth="yes"/>
      <point x="451" y="1527"/>
      <point x="510" y="1422"/>
      <point x="643" y="1422" type="curve" smooth="yes"/>
      <point x="791" y="1422"/>
      <point x="869" y="1569"/>
      <point x="885" y="1649" type="curve"/>
      <point x="967" y="1649" type="line"/>
      <point x="968" y="1638"/>
      <point x="967" y="1627"/>
      <point x="965" y="1617" type="curve" smooth="yes"/>
      <point x="948" y="1469"/>
      <point x="807" y="1304"/>
    </contour>
  </outline>
</glyph>
<glyph name="Edotaccent" format="1">
  <advance width="1210"/>
  <unicode hex="0116"/>
  <outline>
    <contour>
      <point x="38" y="0" type="line"/>
      <point x="46" y="69" type="line"/>
      <point x="193" y="93" type="line"/>
      <point x="373" y="1430" type="line"/>
      <point x="241" y="1449" type="line"/>
      <point x="251" y="1530" type="line"/>
      <point x="1162" y="1530" type="line"/>
      <point x="1155" y="1220" type="line"/>
      <point x="1069" y="1220" type="line"/>
      <point x="1033" y="1427" type="line"/>
      <point x="536" y="1443" type="line"/>
      <point x="456" y="840" type="line"/>
      <point x="922" y="846" type="line"/>
      <point x="912" y="721" type="line"/>
      <point x="441" y="734" type="line"/>
      <point x="353" y="94" type="line"/>
      <point x="961" y="113" type="line"/>
      <point x="1074" y="341" type="line"/>
      <point x="1158" y="316" type="line"/>
      <point x="1069" y="0" type="line"/>
    </contour>
    <contour>
      <point x="776" y="1701" type="curve" smooth="yes"/>
      <point x="724" y="1701"/>
      <point x="682" y="1745"/>
      <point x="686" y="1802" type="curve"/>
      <point x="689" y="1870"/>
      <point x="750" y="1922"/>
      <point x="802" y="1922" type="curve" smooth="yes"/>
      <point x="863" y="1922"/>
      <point x="902" y="1881"/>
      <point x="899" y="1824" type="curve" smooth="yes"/>
      <point x="895" y="1756"/>
      <point x="839" y="1701"/>
    </contour>
  </outline>
</glyph>
<glyph name="Gdotaccent" format="1">
  <advance width="1361"/>
  <unicode hex="0120"/>
  <outline>
    <contour>
      <point x="617" y="-17" type="curve" smooth="yes"/>
      <point x="258" y="-17"/>
      <point x="106" y="307"/>
      <point x="101" y="627" type="curve" smooth="yes"/>
      <point x="92" y="1175"/>
      <point x="404" y="1546"/>
      <point x="847" y="1546" type="curve" smooth="yes"/>
      <point x="1051" y="1546"/>
      <point x="1176" y="1511"/>
      <point x="1248" y="1490" type="curve" smooth="yes"/>
      <point x="1286" y="1479" type="line"/>
      <point x="1229" y="1183" type="line"/>
      <point x="1127" y="1183" type="line"/>
      <point x="1120" y="1385" type="line"/>
      <point x="1069" y="1421"/>
      <point x="996" y="1451"/>
      <point x="829" y="1451" type="curve" smooth="yes"/>
      <point x="427" y="1451"/>
      <point x="268" y="1008"/>
      <point x="272" y="643" type="curve" smooth="yes"/>
      <point x="275" y="371"/>
      <point x="381" y="77"/>
      <point x="653" y="77" type="curve" smooth="yes"/>
      <point x="766" y="77"/>
      <point x="915" y="111"/>
      <point x="989" y="178" type="curve"/>
      <point x="1056" y="616" type="line"/>
      <point x="786" y="630" type="line"/>
      <point x="797" y="723" type="line"/>
      <point x="1232" y="723" type="line"/>
      <point x="1139" y="94" type="line"/>
      <point x="1100" y="90"/>
      <point x="1066" y="77"/>
      <point x="1012" y="61" type="curve" smooth="yes"/>
      <point x="913" y="31"/>
      <point x="774" y="-17"/>
    </contour>
    <contour>
      <point x="841" y="1701" type="curve" smooth="yes"/>
      <point x="789" y="1701"/>
      <point x="747" y="1745"/>
      <point x="751" y="1802" type="curve"/>
      <point x="754" y="1870"/>
      <point x="815" y="1922"/>
      <point x="867" y="1922" type="curve" smooth="yes"/>
      <point x="928" y="1922"/>
      <point x="967" y="1881"/>
      <point x="964" y="1824" type="curve" smooth="yes"/>
      <point x="960" y="1756"/>
      <point x="904" y="1701"/>
    </contour>
  </outline>
</glyph>
<glyph name="hcircumflex" format="1">
  <advance width="1250"/>
  <unicode hex="0125"/>
  <outline>
    <contour>
      <point x="105" y="0" type="line"/>
      <point x="305" y="1515" type="line"/>
      <point x="190" y="1548" type="line"/>
      <point x="203" y="1615" type="line"/>
      <point x="435" y="1650" type="line"/>
      <point x="479" y="1627" type="line"/>
      <point x="462" y="1506" type="line"/>
      <point x="741" y="1796" type="line"/>
      <point x="883" y="1796" type="line"/>
      <point x="1102" y="1461" type="line"/>
      <point x="1047" y="1413" type="line"/>
      <point x="805" y="1669" type="line"/>
      <point x="470" y="1415" type="line"/>
      <point x="452" y="1431" type="line"/>
      <point x="377" y="873" type="line"/>
      <point x="490" y="1027"/>
      <point x="667" y="1163"/>
      <point x="838" y="1163" type="curve" smooth="yes"/>
      <point x="978" y="1163"/>
      <point x="1063" y="1089"/>
      <point x="1063" y="867" type="curve" smooth="yes"/>
      <point x="1063" y="767"/>
      <point x="1032" y="617"/>
      <point x="1010" y="505" type="curve"/>
      <point x="993" y="403"/>
      <point x="966" y="260"/>
      <point x="958" y="157" type="curve"/>
      <point x="956" y="110"/>
      <point x="964" y="84"/>
      <point x="985" y="84" type="curve" smooth="yes"/>
      <point x="1015" y="84"/>
      <point x="1042" y="104"/>
      <point x="1093" y="147" type="curve"/>
      <point x="1119" y="103" type="line"/>
      <point x="1105" y="77"/>
      <point x="1013" y="-20"/>
      <point x="901" y="-20" type="curve" smooth="yes"/>
      <point x="832" y="-20"/>
      <point x="787" y="11"/>
      <point x="792" y="96" type="curve"/>
      <point x="796" y="190"/>
      <point x="828" y="345"/>
      <point x="847" y="457" type="curve"/>
      <point x="869" y="574"/>
      <point x="903" y="734"/>
      <point x="903" y="859" type="curve" smooth="yes"/>
      <point x="903" y="996"/>
      <point x="857" y="1036"/>
      <point x="770" y="1036" type="curve" smooth="yes"/>
      <point x="645" y="1036"/>
      <point x="468" y="900"/>
      <point x="360" y="742" type="curve"/>
      <point x="260" y="0" type="line"/>
    </contour>
  </outline>
</glyph>
<glyph name="Hbar" format="1">
  <advance width="1534"/>
  <unicode hex="0126"/>
  <outline>
    <contour>
      <point x="41" y="0" type="line"/>
      <point x="48" y="69" type="line"/>
      <point x="197" y="94" type="line"/>
      <point x="322" y="1026" type="line"/>
      <point x="100" y="1026" type="line"/>
      <point x="112" y="1130" type="line"/>
      <point x="336" y="1130" type="line"/>
      <point x="377" y="1430" type="line"/>
      <point x="242" y="1449" type="line"/>
      <point x="252" y="1530" type="line"/>
      <point x="697" y="1530" type="line"/>
      <point x="689" y="1449" type="line"/>
      <point x="538" y="1430" type="line"/>
      <point x="497" y="1130" type="line"/>
      <point x="1196" y="1130" type="line"/>
      <point x="1236" y="1430" type="line"/>
      <point x="1088" y="1449" type="line"/>
      <point x="1095" y="1530" type="line"/>
      <point x="1545" y="1530" type="line"/>
      <point x="1536" y="1449" type="line"/>
      <point x="1396" y="1430" type="line"/>
      <point x="1356" y="1130" type="line"/>
      <point x="1561" y="1130" type="line"/>
      <point x="1549" y="1026" type="line"/>
      <point x="1342" y="1026" type="line"/>
      <point x="1217" y="95" type="line"/>
      <point x="1371" y="69" type="line"/>
      <point x="1363" y="0" type="line"/>
      <point x="890" y="0" type="line"/>
      <point x="897" y="70" type="line"/>
      <point x="1057" y="95" type="line"/>
      <point x="1132" y="655" type="line"/>
      <point x="433" y="655" type="line"/>
      <point x="358" y="94" type="line"/>
      <point x="514" y="70" type="line"/>
      <point x="507" y="0" type="line"/>
    </contour>
    <contour>
      <point x="447" y="759" type="line"/>
      <point x="1146" y="759" type="line"/>
      <point x="1182" y="1026" type="line"/>
      <point x="483" y="1026" type="line"/>
    </contour>
  </outline>
</glyph>
<glyph name="Imacron" format="1">
  <advance width="717"/>
  <unicode hex="012A"/>
  <outline>
    <contour>
      <point x="54" y="0" type="line"/>
      <point x="61" y="69" type="line"/>
      <point x="210" y="94" type="line"/>
      <point x="390" y="1430" type="line"/>
      <point x="255" y="1449" type="line"/>
      <point x="265" y="1530" type="line"/>
      <point x="710" y="1530" type="line"/>
      <point x="702" y="1449" type="line"/>
      <point x="551" y="1430" type="line"/>
      <point x="371" y="94" type="line"/>
      <point x="527" y="70" type="line"/>
      <point x="520" y="0" type="line"/>
    </contour>
    <contour>
      <point x="255" y="1745" type="line"/>
      <point x="259" y="1864" type="line"/>
      <point x="769" y="1864" type="line"/>
      <point x="764" y="1745" type="line"/>
    </contour>
  </outline>
</glyph>
<glyph name="imacron" format="1">
  <advance width="625"/>
  <unicode hex="012B"/>
  <outline>
    <contour>
      <point x="156" y="99" type="curve"/>
      <point x="165" y="225"/>
      <point x="242" y="717"/>
      <point x="285" y="1016" type="curve"/>
      <point x="148" y="1056" type="line"/>
      <point x="162" y="1121" type="line"/>
      <point x="420" y="1163" type="line"/>
      <point x="461" y="1142" type="line"/>
      <point x="320" y="158" type="line" smooth="yes"/>
      <point x="313" y="108"/>
      <point x="329" y="85"/>
      <point x="348" y="85" type="curve" smooth="yes"/>
      <point x="377" y="85"/>
      <point x="406" y="104"/>
      <point x="456" y="156" type="curve"/>
      <point x="483" y="112" type="line"/>
      <point x="465" y="84"/>
      <point x="377" y="-20"/>
      <point x="265" y="-20" type="curve" smooth="yes"/>
      <point x="197" y="-20"/>
      <point x="148" y="11"/>
    </contour>
    <contour>
      <point x="136" y="1432" type="line"/>
      <point x="140" y="1551" type="line"/>
      <point x="650" y="1551" type="line"/>
      <point x="645" y="1432" type="line"/>
    </contour>
  </outline>
</glyph>
<glyph name="ibreve" format="1">
  <advance width="625"/>
  <unicode hex="012D"/>
  <outline>
    <contour>
      <point x="156" y="99" type="curve"/>
      <point x="165" y="225"/>
      <point x="242" y="717"/>
      <point x="285" y="1016" type="curve"/>
      <point x="148" y="1056" type="line"/>
      <point x="162" y="1121" type="line"/>
      <point x="420" y="1163" type="line"/>
      <point x="461" y="1142" type="line"/>
      <point x="320" y="158" type="line" smooth="yes"/>
      <point x="313" y="108"/>
      <point x="329" y="85"/>
      <point x="348" y="85" type="curve" smooth="yes"/>
      <point x="377" y="85"/>
      <point x="406" y="104"/>
      <point x="456" y="156" type="curve"/>
      <point x="483" y="112" type="line"/>
      <point x="465" y="84"/>
      <point x="377" y="-20"/>
      <point x="265" y="-20" type="curve" smooth="yes"/>
      <point x="197" y="-20"/>
      <point x="148" y="11"/>
    </contour>
    <contour>
      <point x="406" y="1304" type="curve" smooth="yes"/>
      <point x="220" y="1304"/>
      <point x="117" y="1468"/>
      <point x="117" y="1628" type="curve" smooth="yes"/>
      <point x="117" y="1634"/>
      <point x="117" y="1643"/>
      <point x="118" y="1648" type="curve"/>
      <point x="203" y="1648" type="line"/>
      <point x="204" y="1640"/>
      <point x="204" y="1628"/>
      <point x="206" y="1618" type="curve" smooth="yes"/>
      <point x="218" y="1527"/>
      <point x="277" y="1422"/>
      <point x="410" y="1422" type="curve" smooth="yes"/>
      <point x="558" y="1422"/>
      <point x="636" y="1569"/>
      <point x="652" y="1649" type="curve"/>
      <point x="734" y="1649" type="line"/>
      <point x="735" y="1638"/>
      <point x="734" y="1627"/>
      <point x="732" y="1617" type="curve" smooth="yes"/>
      <point x="715" y="1469"/>
      <point x="574" y="1304"/>
    </contour>
  </outline>
</glyph>
<glyph name="iogonek" format="1">
  <advance width="625"/>
  <unicode hex="012F"/>
  <outline>
    <contour>
      <point x="433" y="1421" type="curve" smooth="yes"/>
      <point x="380" y="1421"/>
      <point x="338" y="1464"/>
      <point x="342" y="1522" type="curve"/>
      <point x="345" y="1590"/>
      <point x="406" y="1642"/>
      <point x="458" y="1642" type="curve" smooth="yes"/>
      <point x="520" y="1642"/>
      <point x="557" y="1600"/>
      <point x="554" y="1544" type="curve" smooth="yes"/>
      <point x="550" y="1476"/>
      <point x="495" y="1421"/>
    </contour>
    <contour>
      <point x="42" y="-175" type="curve" smooth="yes"/>
      <point x="96" y="-98"/>
      <point x="166" y="-55"/>
      <point x="233" y="-17" type="curve"/>
      <point x="182" y="-8"/>
      <point x="149" y="25"/>
      <point x="156" y="99" type="curve"/>
      <point x="165" y="225"/>
      <point x="242" y="717"/>
      <point x="285" y="1016" type="curve"/>
      <point x="148" y="1056" type="line"/>
      <point x="162" y="1121" type="line"/>
      <point x="420" y="1163" type="line"/>
      <point x="461" y="1142" type="line"/>
      <point x="320" y="158" type="line" smooth="yes"/>
      <point x="313" y="108"/>
      <point x="329" y="85"/>
      <point x="348" y="85" type="curve" smooth="yes"/>
      <point x="377" y="85"/>
      <point x="406" y="104"/>
      <point x="456" y="156" type="curve"/>
      <point x="483" y="112" type="line"/>
      <point x="472" y="94"/>
      <point x="433" y="48"/>
      <point x="379" y="15" type="curve"/>
      <point x="276" y="-61"/>
      <point x="163" y="-142"/>
      <point x="162" y="-226" type="curve"/>
      <point x="158" y="-286"/>
      <point x="190" y="-313"/>
      <point x="227" y="-313" type="curve" smooth="yes"/>
      <point x="279" y="-313"/>
      <point x="331" y="-287"/>
      <point x="381" y="-245" type="curve"/>
      <point x="403" y="-322" type="line"/>
      <point x="351" y="-368"/>
      <point x="269" y="-416"/>
      <point x="153" y="-416" type="curve" smooth="yes"/>
      <point x="46" y="-416"/>
      <point x="4" y="-346"/>
      <point x="7" y="-287" type="curve"/>
      <point x="8" y="-247"/>
      <point x="21" y="-204"/>
    </contour>
  </outline>
</glyph>
<glyph name="Idotaccent" format="1">
  <advance width="717"/>
  <unicode hex="0130"/>
  <outline>
    <contour>
      <point x="54" y="0" type="line"/>
      <point x="61" y="69" type="line"/>
      <point x="210" y="94" type="line"/>
      <point x="390" y="1430" type="line"/>
      <point x="255" y="1449" type="line"/>
      <point x="265" y="1530" type="line"/>
      <point x="710" y="1530" type="line"/>
      <point x="702" y="1449" type="line"/>
      <point x="551" y="1430" type="line"/>
      <point x="371" y="94" type="line"/>
      <point x="527" y="70" type="line"/>
      <point x="520" y="0" type="line"/>
    </contour>
    <contour>
      <point x="524" y="1701" type="curve" smooth="yes"/>
      <point x="472" y="1701"/>
      <point x="430" y="1745"/>
      <point x="434" y="1802" type="curve"/>
      <point x="437" y="1870"/>
      <point x="498" y="1922"/>
      <point x="550" y="1922" type="curve" smooth="yes"/>
      <point x="611" y="1922"/>
      <point x="650" y="1881"/>
      <point x="647" y="1824" type="curve" smooth="yes"/>
      <point x="643" y="1756"/>
      <point x="587" y="1701"/>
    </contour>
  </outline>
</glyph>
<glyph name="Kcommaaccent" format="1">
  <advance width="1352"/>
  <unicode hex="0136"/>
  <outline>
    <contour>
      <point x="37" y="0" type="line"/>
      <point x="44" y="69" type="line"/>
      <point x="193" y="94" type="line"/>
      <point x="374" y="1430" type="line"/>
      <point x="239" y="1449" type="line"/>
      <point x="249" y="1530" type="line"/>
      <point x="694" y="1530" type="line"/>
      <point x="686" y="1449" type="line"/>
      <point x="535" y="1430" type="line"/>
      <point x="431" y="663" type="line"/>
      <point x="1125" y="1430" type="line"/>
      <point x="989" y="1449" type="line"/>
      <point x="998" y="1530" type="line"/>
      <point x="1415" y="1530" type="line"/>
      <point x="1406" y="1449" type="line"/>
      <point x="1283" y="1431" type="line"/>
      <point x="712" y="827" type="line"/>
      <point x="774" y="733"/>
      <point x="887" y="537"/>
      <point x="956" y="422" type="curve"/>
      <point x="1074" y="221"/>
      <point x="1123" y="139"/>
      <point x="1165" y="114" type="curve"/>
      <point x="1310" y="75" type="line"/>
      <point x="1299" y="0" type="line"/>
      <point x="1050" y="0" type="line"/>
      <point x="1002" y="5"/>
      <point x="945" y="152"/>
      <point x="835" y="357" type="curve"/>
      <point x="770" y="473"/>
      <point x="678" y="640"/>
      <point x="622" y="732" type="curve"/>
      <point x="410" y="508" type="line"/>
      <point x="354" y="94" type="line"/>
      <point x="510" y="70" type="line"/>
      <point x="503" y="0" type="line"/>
    </contour>
    <contour>
      <point x="561" y="-145" type="line"/>
      <point x="659" y="-50" type="line"/>
      <point x="742" y="-74"/>
      <point x="787" y="-167"/>
      <point x="780" y="-265" type="curve"/>
      <point x="767" y="-420"/>
      <point x="639" y="-538"/>
      <point x="566" y="-558" type="curve"/>
      <point x="533" y="-525" type="line"/>
      <point x="535" y="-505" type="line"/>
      <point x="586" y="-469"/>
      <point x="623" y="-408"/>
      <point x="628" y="-319" type="curve" smooth="yes"/>
      <point x="632" y="-264"/>
      <point x="600" y="-204"/>
      <point x="556" y="-189" type="curve"/>
    </contour>
  </outline>
</glyph>
<glyph name="kcommaaccent" format="1">
  <advance width="1059"/>
  <unicode hex="0137"/>
  <outline>
    <contour>
      <point x="105" y="0" type="line"/>
      <point x="305" y="1515" type="line"/>
      <point x="190" y="1548" type="line"/>
      <point x="202" y="1615" type="line"/>
      <point x="434" y="1650" type="line"/>
      <point x="478" y="1627" type="line"/>
      <point x="259" y="0" type="line"/>
    </contour>
    <contour>
      <point x="666" y="88" type="curve"/>
      <point x="366" y="610" type="line"/>
      <point x="368" y="611" type="line"/>
      <point x="366" y="611" type="line"/>
      <point x="501" y="711"/>
      <point x="652" y="786"/>
      <point x="748" y="917" type="curve" smooth="yes"/>
      <point x="791" y="975"/>
      <point x="799" y="1029"/>
      <point x="805" y="1072" type="curve"/>
      <point x="816" y="1133"/>
      <point x="869" y="1163"/>
      <point x="915" y="1163" type="curve" smooth="yes"/>
      <point x="960" y="1163"/>
      <point x="999" y="1131"/>
      <point x="1000" y="1082" type="curve" smooth="yes"/>
      <point x="1001" y="1049"/>
      <point x="990" y="1003"/>
      <point x="958" y="956" type="curve" smooth="yes"/>
      <point x="867" y="825"/>
      <point x="626" y="690"/>
      <point x="516" y="624" type="curve"/>
      <point x="794" y="192" type="line"/>
      <point x="831" y="138"/>
      <point x="879" y="96"/>
      <point x="914" y="96" type="curve" smooth="yes"/>
      <point x="941" y="96"/>
      <point x="983" y="111"/>
      <point x="1023" y="151" type="curve"/>
      <point x="1051" y="101" type="line"/>
      <point x="1018" y="47"/>
      <point x="922" y="-20"/>
      <point x="825" y="-20" type="curve" smooth="yes"/>
      <point x="771" y="-20"/>
      <point x="711" y="12"/>
    </contour>
    <contour>
      <point x="367" y="-147" type="line"/>
      <point x="465" y="-52" type="line"/>
      <point x="548" y="-76"/>
      <point x="593" y="-169"/>
      <point x="586" y="-267" type="curve"/>
      <point x="573" y="-422"/>
      <point x="445" y="-540"/>
      <point x="372" y="-560" type="curve"/>
      <point x="339" y="-527" type="line"/>
      <point x="341" y="-507" type="line"/>
      <point x="392" y="-471"/>
      <point x="429" y="-410"/>
      <point x="434" y="-321" type="curve" smooth="yes"/>
      <point x="438" y="-266"/>
      <point x="406" y="-206"/>
      <point x="362" y="-191" type="curve"/>
    </contour>
  </outline>
</glyph>
<glyph name="kgreenlandic" format="1">
  <advance width="1061"/>
  <unicode hex="0138"/>
  <outline>
    <contour>
      <point x="140" y="0" type="line"/>
      <point x="270" y="1015" type="line"/>
      <point x="158" y="1047" type="line"/>
      <point x="175" y="1115" type="line"/>
      <point x="399" y="1150" type="line"/>
      <point x="441" y="1127" type="line"/>
      <point x="293" y="0" type="line"/>
    </contour>
    <contour>
      <point x="682" y="88" type="curve"/>
      <point x="392" y="582" type="line"/>
      <point x="394" y="584" type="line"/>
      <point x="393" y="584" type="line"/>
      <point x="901" y="1130" type="line"/>
      <point x="1087" y="1130" type="line"/>
      <point x="543" y="586" type="line"/>
      <point x="805" y="181" type="line"/>
      <point x="839" y="126"/>
      <point x="882" y="82"/>
      <point x="916" y="82" type="curve" smooth="yes"/>
      <point x="936" y="82"/>
      <point x="959" y="91"/>
      <point x="992" y="109" type="curve"/>
      <point x="1017" y="70" type="line"/>
      <point x="989" y="30"/>
      <point x="908" y="-19"/>
      <point x="826" y="-19" type="curve" smooth="yes"/>
      <point x="772" y="-19"/>
      <point x="725" y="10"/>
    </contour>
  </outline>
</glyph>
<glyph name="Lacute" format="1">
  <advance width="1173"/>
  <unicode hex="0139"/>
  <outline>
    <contour>
      <point x="38" y="0" type="line"/>
      <point x="45" y="70" type="line"/>
      <point x="194" y="94" type="line"/>
      <point x="374" y="1430" type="line"/>
      <point x="239" y="1449" type="line"/>
      <point x="249" y="1530" type="line"/>
      <point x="722" y="1530" type="line"/>
      <point x="713" y="1449" type="line"/>
      <point x="535" y="1430" type="line"/>
      <point x="354" y="94" type="line"/>
      <point x="892" y="103" type="line"/>
      <point x="1022" y="449" type="line"/>
      <point x="1116" y="431" type="line"/>
      <point x="1020" y="0" type="line"/>
    </contour>
    <contour>
      <point x="496" y="1616" type="curve"/>
      <point x="452" y="1653" type="line"/>
      <point x="734" y="2002" type="line"/>
      <point x="833" y="1892" type="line"/>
      <point x="779" y="1788"/>
      <point x="593" y="1671"/>
    </contour>
  </outline>
</glyph>
<glyph name="lacute" format="1">
  <advance width="599"/>
  <unicode hex="013A"/>
  <outline>
    <contour>
      <point x="136" y="102" type="curve" smooth="yes"/>
      <point x="141" y="170" type="line"/>
      <point x="313" y="1387" type="line"/>
      <point x="196" y="1421" type="line"/>
      <point x="213" y="1488" type="line"/>
      <point x="439" y="1522" type="line"/>
      <point x="480" y="1499" type="line"/>
      <point x="292" y="158" type="line"/>
      <point x="288" y="110"/>
      <point x="299" y="85"/>
      <point x="317" y="85" type="curve" smooth="yes"/>
      <point x="339" y="85"/>
      <point x="363" y="97"/>
      <point x="397" y="124" type="curve"/>
      <point x="423" y="80" type="line"/>
      <point x="409" y="59"/>
      <point x="333" y="-20"/>
      <point x="237" y="-20" type="curve" smooth="yes"/>
      <point x="168" y="-20"/>
      <point x="130" y="15"/>
    </contour>
    <contour>
      <point x="413" y="1614" type="curve"/>
      <point x="369" y="1651" type="line"/>
      <point x="651" y="2000" type="line"/>
      <point x="750" y="1890" type="line"/>
      <point x="696" y="1786"/>
      <point x="510" y="1669"/>
    </contour>
  </outline>
</glyph>
<glyph name="Ldot" format="1">
  <advance width="1173"/>
  <unicode hex="013F"/>
  <outline>
    <contour>
      <point x="38" y="0" type="line"/>
      <point x="45" y="70" type="line"/>
      <point x="194" y="94" type="line"/>
      <point x="374" y="1430" type="line"/>
      <point x="239" y="1449" type="line"/>
      <point x="249" y="1530" type="line"/>
      <point x="722" y="1530" type="line"/>
      <point x="713" y="1449" type="line"/>
      <point x="535" y="1430" type="line"/>
      <point x="354" y="94" type="line"/>
      <point x="892" y="103" type="line"/>
      <point x="1022" y="449" type="line"/>
      <point x="1116" y="431" type="line"/>
      <point x="1020" y="0" type="line"/>
    </contour>
    <contour>
      <point x="906" y="861" type="curve" smooth="yes"/>
      <point x="915" y="933"/>
      <point x="972" y="983"/>
      <point x="1033" y="983" type="curve" smooth="yes"/>
      <point x="1109" y="983"/>
      <point x="1135" y="938"/>
      <point x="1127" y="878" type="curve" smooth="yes"/>
      <point x="1117" y="801"/>
      <point x="1056" y="755"/>
      <point x="993" y="755" type="curve" smooth="yes"/>
      <point x="935" y="755"/>
      <point x="897" y="792"/>
    </contour>
  </outline>
</glyph>
<glyph name="Lslash" format="1">
  <advance width="1172"/>
  <unicode hex="0141"/>
  <outline>
    <contour>
      <point x="38" y="2" type="line"/>
      <point x="45" y="72" type="line"/>
      <point x="194" y="96" type="line"/>
      <point x="259" y="580" type="line"/>
      <point x="83" y="506" type="line"/>
      <point x="54" y="601" type="line"/>
      <point x="275" y="696" type="line"/>
      <point x="374" y="1432" type="line"/>
      <point x="239" y="1451" type="line"/>
      <point x="249" y="1532" type="line"/>
      <point x="722" y="1532" type="line"/>
      <point x="713" y="1451" type="line"/>
      <point x="535" y="1432" type="line"/>
      <point x="445" y="770" type="line"/>
      <point x="879" y="957" type="line"/>
      <point x="907" y="855" type="line"/>
      <point x="429" y="652" type="line"/>
      <point x="354" y="96" type="line"/>
      <point x="892" y="105" type="line"/>
      <point x="1022" y="451" type="line"/>
      <point x="1116" y="433" type="line"/>
      <point x="1020" y="2" type="line"/>
    </contour>
  </outline>
</glyph>
<glyph name="Ncommaaccent" format="1">
  <advance width="1521"/>
  <unicode hex="0145"/>
  <outline>
    <contour>
      <point x="24" y="0" type="line"/>
      <point x="31" y="69" type="line"/>
      <point x="171" y="92" type="line"/>
      <point x="361" y="1430" type="line"/>
      <point x="216" y="1449" type="line"/>
      <point x="230" y="1530" type="line"/>
      <point x="531" y="1530" type="line"/>
      <point x="1046" y="368" type="line"/>
      <point x="1112" y="172" type="line"/>
      <point x="1278" y="1431" type="line"/>
      <point x="1127" y="1449" type="line"/>
      <point x="1137" y="1530" type="line"/>
      <point x="1572" y="1530" type="line"/>
      <point x="1564" y="1449" type="line"/>
      <point x="1412" y="1430" type="line"/>
      <point x="1198" y="0" type="line"/>
      <point x="1046" y="0" type="line"/>
      <point x="535" y="1136" type="line"/>
      <point x="471" y="1336" type="line"/>
      <point x="310" y="94" type="line"/>
      <point x="474" y="70" type="line"/>
      <point x="468" y="0" type="line"/>
    </contour>
    <contour>
      <point x="584" y="-147" type="line"/>
      <point x="682" y="-52" type="line"/>
      <point x="765" y="-76"/>
      <point x="810" y="-169"/>
      <point x="803" y="-267" type="curve"/>
      <point x="790" y="-422"/>
      <point x="662" y="-540"/>
      <point x="589" y="-560" type="curve"/>
      <point x="556" y="-527" type="line"/>
      <point x="558" y="-507" type="line"/>
      <point x="609" y="-471"/>
      <point x="646" y="-410"/>
      <point x="651" y="-321" type="curve" smooth="yes"/>
      <point x="655" y="-266"/>
      <point x="623" y="-206"/>
      <point x="579" y="-191" type="curve"/>
    </contour>
  </outline>
</glyph>
<glyph name="ncommaaccent" format="1">
  <advance width="1253"/>
  <unicode hex="0146"/>
  <outline>
    <contour>
      <point x="114" y="0" type="line"/>
      <point x="247" y="1002" type="line"/>
      <point x="149" y="1049" type="line"/>
      <point x="163" y="1121" type="line"/>
      <point x="374" y="1163" type="line"/>
      <point x="414" y="1143" type="line"/>
      <point x="387" y="886" type="line"/>
      <point x="501" y="1034"/>
      <point x="677" y="1163"/>
      <point x="838" y="1163" type="curve" smooth="yes"/>
      <point x="979" y="1163"/>
      <point x="1066" y="1089"/>
      <point x="1066" y="868" type="curve" smooth="yes"/>
      <point x="1066" y="768"/>
      <point x="1033" y="617"/>
      <point x="1013" y="505" type="curve" smooth="yes"/>
      <point x="995" y="403"/>
      <point x="967" y="260"/>
      <point x="961" y="157" type="curve" smooth="yes"/>
      <point x="959" y="112"/>
      <point x="965" y="85"/>
      <point x="984" y="85" type="curve" smooth="yes"/>
      <point x="1008" y="85"/>
      <point x="1040" y="102"/>
      <point x="1081" y="139" type="curve"/>
      <point x="1107" y="95" type="line"/>
      <point x="1092" y="71"/>
      <point x="1003" y="-21"/>
      <point x="900" y="-21" type="curve" smooth="yes"/>
      <point x="832" y="-21"/>
      <point x="790" y="11"/>
      <point x="795" y="96" type="curve"/>
      <point x="799" y="190"/>
      <point x="830" y="345"/>
      <point x="850" y="457" type="curve" smooth="yes"/>
      <point x="871" y="574"/>
      <point x="906" y="734"/>
      <point x="906" y="859" type="curve" smooth="yes"/>
      <point x="906" y="996"/>
      <point x="869" y="1037"/>
      <point x="769" y="1037" type="curve" smooth="yes"/>
      <point x="649" y="1037"/>
      <point x="476" y="902"/>
      <point x="368" y="745" type="curve"/>
      <point x="269" y="0" type="line"/>
    </contour>
    <contour>
      <point x="422" y="-147" type="line"/>
      <point x="520" y="-52" type="line"/>
      <point x="603" y="-76"/>
      <point x="648" y="-169"/>
      <point x="641" y="-267" type="curve"/>
      <point x="628" y="-422"/>
      <point x="500" y="-540"/>
      <point x="427" y="-560" type="curve"/>
      <point x="394" y="-527" type="line"/>
      <point x="396" y="-507" type="line"/>
      <point x="447" y="-471"/>
      <point x="484" y="-410"/>
      <point x="489" y="-321" type="curve" smooth="yes"/>
      <point x="493" y="-266"/>
      <point x="461" y="-206"/>
      <point x="417" y="-191" type="curve"/>
    </contour>
  </outline>
</glyph>
<glyph name="Ncaron" format="1">
  <advance width="1521"/>
  <unicode hex="0147"/>
  <outline>
    <contour>
      <point x="24" y="0" type="line"/>
      <point x="31" y="69" type="line"/>
      <point x="171" y="92" type="line"/>
      <point x="361" y="1430" type="line"/>
      <point x="216" y="1449" type="line"/>
      <point x="230" y="1530" type="line"/>
      <point x="531" y="1530" type="line"/>
      <point x="1046" y="368" type="line"/>
      <point x="1112" y="172" type="line"/>
      <point x="1278" y="1431" type="line"/>
      <point x="1127" y="1449" type="line"/>
      <point x="1137" y="1530" type="line"/>
      <point x="1572" y="1530" type="line"/>
      <point x="1564" y="1449" type="line"/>
      <point x="1412" y="1430" type="line"/>
      <point x="1198" y="0" type="line"/>
      <point x="1046" y="0" type="line"/>
      <point x="535" y="1136" type="line"/>
      <point x="471" y="1336" type="line"/>
      <point x="310" y="94" type="line"/>
      <point x="474" y="70" type="line"/>
      <point x="468" y="0" type="line"/>
    </contour>
    <contour>
      <point x="840" y="1614" type="line"/>
      <point x="618" y="1953" type="line"/>
      <point x="671" y="2000" type="line"/>
      <point x="913" y="1736" type="line"/>
      <point x="1236" y="2000" type="line"/>
      <point x="1286" y="1954" type="line"/>
      <point x="981" y="1614" type="line"/>
    </contour>
  </outline>
</glyph>
<glyph name="eng" format="1">
  <advance width="1244"/>
  <unicode hex="014B"/>
  <outline>
    <contour>
      <point x="114" y="0" type="line"/>
      <point x="247" y="1002" type="line"/>
      <point x="149" y="1049" type="line"/>
      <point x="163" y="1121" type="line"/>
      <point x="374" y="1163" type="line"/>
      <point x="414" y="1143" type="line"/>
      <point x="387" y="886" type="line"/>
      <point x="501" y="1034"/>
      <point x="677" y="1162"/>
      <point x="838" y="1162" type="curve" smooth="yes"/>
      <point x="982" y="1162"/>
      <point x="1073" y="1070"/>
      <point x="1066" y="867" type="curve" smooth="yes"/>
      <point x="1057" y="617"/>
      <point x="1002" y="265"/>
      <point x="949" y="0" type="curve"/>
      <point x="881" y="-349"/>
      <point x="731" y="-518"/>
      <point x="508" y="-518" type="curve" smooth="yes"/>
      <point x="445" y="-518"/>
      <point x="390" y="-505"/>
      <point x="368" y="-481" type="curve"/>
      <point x="396" y="-416" type="line"/>
      <point x="420" y="-428"/>
      <point x="461" y="-433"/>
      <point x="480" y="-433" type="curve" smooth="yes"/>
      <point x="687" y="-433"/>
      <point x="759" y="-191"/>
      <point x="804" y="52" type="curve" smooth="yes"/>
      <point x="812" y="97"/>
      <point x="904" y="611"/>
      <point x="907" y="859" type="curve" smooth="yes"/>
      <point x="908" y="996"/>
      <point x="868" y="1037"/>
      <point x="768" y="1037" type="curve" smooth="yes"/>
      <point x="648" y="1037"/>
      <point x="475" y="902"/>
      <point x="368" y="745" type="curve"/>
      <point x="269" y="0" type="line"/>
    </contour>
  </outline>
</glyph>
<glyph name="OE" format="1">
  <advance width="2137"/>
  <unicode hex="0152"/>
  <outline>
    <contour>
      <point x="616" y="-20" type="curve" smooth="yes"/>
      <point x="311" y="-20"/>
      <point x="113" y="240"/>
      <point x="106" y="641" type="curve" smooth="yes"/>
      <point x="96" y="1175"/>
      <point x="415" y="1550"/>
      <point x="817" y="1550" type="curve" smooth="yes"/>
      <point x="1074" y="1550"/>
      <point x="1208" y="1365"/>
      <point x="1255" y="1112" type="curve"/>
      <point x="1309" y="1530" type="line"/>
      <point x="2089" y="1530" type="line"/>
      <point x="2082" y="1220" type="line"/>
      <point x="1996" y="1220" type="line"/>
      <point x="1960" y="1431" type="line"/>
      <point x="1462" y="1443" type="line"/>
      <point x="1376" y="840" type="line"/>
      <point x="1849" y="846" type="line"/>
      <point x="1839" y="721" type="line"/>
      <point x="1367" y="734" type="line"/>
      <point x="1283" y="94" type="line"/>
      <point x="1888" y="113" type="line"/>
      <point x="2001" y="341" type="line"/>
      <point x="2085" y="316" type="line"/>
      <point x="1996" y="0" type="line"/>
      <point x="1111" y="0" type="line"/>
      <point x="1155" y="340" type="line"/>
      <point x="1040" y="119"/>
      <point x="850" y="-20"/>
    </contour>
    <contour>
      <point x="638" y="76" type="curve"/>
      <point x="927" y="75"/>
      <point x="1153" y="416"/>
      <point x="1145" y="872" type="curve" smooth="yes"/>
      <point x="1139" y="1235"/>
      <point x="1023" y="1449"/>
      <point x="790" y="1449" type="curve" smooth="yes"/>
      <point x="492" y="1449"/>
      <point x="263" y="1109"/>
      <point x="268" y="682" type="curve"/>
      <point x="274" y="300"/>
      <point x="383" y="78"/>
    </contour>
  </outline>
</glyph>
<glyph name="scircumflex" format="1">
  <advance width="834"/>
  <unicode hex="015D"/>
  <outline>
    <contour>
      <point x="25" y="43" type="curve"/>
      <point x="54" y="164" type="line"/>
      <point x="97" y="133"/>
      <point x="188" y="89"/>
      <point x="323" y="89" type="curve" smooth="yes"/>
      <point x="440" y="89"/>
      <point x="557" y="126"/>
      <point x="557" y="262" type="curve" smooth="yes"/>
      <point x="557" y="382"/>
      <point x="439" y="449"/>
      <point x="356" y="513" type="curve" smooth="yes"/>
      <point x="284" y="569"/>
      <point x="139" y="684"/>
      <point x="139" y="849" type="curve" smooth="yes"/>
      <point x="139" y="1047"/>
      <point x="320" y="1163"/>
      <point x="523" y="1163" type="curve" smooth="yes"/>
      <point x="630" y="1163"/>
      <point x="734" y="1138"/>
      <point x="767" y="1122" type="curve"/>
      <point x="734" y="987" type="line"/>
      <point x="722" y="1005"/>
      <point x="641" y="1059"/>
      <point x="515" y="1059" type="curve" smooth="yes"/>
      <point x="393" y="1059"/>
      <point x="303" y="1006"/>
      <point x="293" y="898" type="curve" smooth="yes"/>
      <point x="283" y="778"/>
      <point x="385" y="696"/>
      <point x="471" y="633" type="curve"/>
      <point x="566" y="561"/>
      <point x="709" y="460"/>
      <point x="709" y="292" type="curve" smooth="yes"/>
      <point x="709" y="90"/>
      <point x="523" y="-20"/>
      <point x="314" y="-20" type="curve" smooth="yes"/>
      <point x="193" y="-20"/>
      <point x="60" y="11"/>
    </contour>
    <contour>
      <point x="217" y="1228" type="line"/>
      <point x="171" y="1275" type="line"/>
      <point x="512" y="1650" type="line"/>
      <point x="654" y="1650" type="line"/>
      <point x="856" y="1273" type="line"/>
      <point x="795" y="1226" type="line"/>
      <point x="563" y="1523" type="line"/>
    </contour>
  </outline>
</glyph>
<glyph name="scedilla" format="1">
  <advance width="834"/>
  <unicode hex="015F"/>
  <outline>
    <contour>
      <point x="25" y="43" type="curve"/>
      <point x="54" y="164" type="line"/>
      <point x="97" y="133"/>
      <point x="188" y="89"/>
      <point x="323" y="89" type="curve" smooth="yes"/>
      <point x="440" y="89"/>
      <point x="557" y="126"/>
      <point x="557" y="262" type="curve" smooth="yes"/>
      <point x="557" y="382"/>
      <point x="439" y="449"/>
      <point x="356" y="513" type="curve" smooth="yes"/>
      <point x="284" y="569"/>
      <point x="139" y="684"/>
      <point x="139" y="849" type="curve" smooth="yes"/>
      <point x="139" y="1047"/>
      <point x="320" y="1163"/>
      <point x="523" y="1163" type="curve" smooth="yes"/>
      <point x="630" y="1163"/>
      <point x="734" y="1138"/>
      <point x="767" y="1122" type="curve"/>
      <point x="734" y="987" type="line"/>
      <point x="722" y="1005"/>
      <point x="641" y="1059"/>
      <point x="515" y="1059" type="curve" smooth="yes"/>
      <point x="393" y="1059"/>
      <point x="303" y="1006"/>
      <point x="293" y="898" type="curve" smooth="yes"/>
      <point x="283" y="778"/>
      <point x="385" y="696"/>
      <point x="471" y="633" type="curve"/>
      <point x="566" y="561"/>
      <point x="709" y="460"/>
      <point x="709" y="292" type="curve" smooth="yes"/>
      <point x="709" y="125"/>
      <point x="582" y="21"/>
      <point x="421" y="-10" type="curve"/>
      <point x="437" y="-55"/>
      <point x="442" y="-120"/>
      <point x="436" y="-194" type="curve" smooth="yes"/>
      <point x="418" y="-410"/>
      <point x="322" y="-464"/>
      <point x="179" y="-464" type="curve" smooth="yes"/>
      <point x="126" y="-464"/>
      <point x="63" y="-452"/>
      <point x="41" y="-436" type="curve"/>
      <point x="69" y="-331" type="line"/>
      <point x="86" y="-340"/>
      <point x="113" y="-348"/>
      <point x="154" y="-348" type="curve" smooth="yes"/>
      <point x="251" y="-348"/>
      <point x="318" y="-285"/>
      <point x="331" y="-142" type="curve"/>
      <point x="335" y="-86"/>
      <point x="333" y="-49"/>
      <point x="327" y="-20" type="curve"/>
      <point x="314" y="-20" type="line" smooth="yes"/>
      <point x="193" y="-20"/>
      <point x="60" y="11"/>
    </contour>
  </outline>
</glyph>
<glyph name="scaron" format="1">
  <advance width="834"/>
  <unicode hex="0161"/>
  <outline>
    <contour>
      <point x="25" y="43" type="curve"/>
      <point x="54" y="164" type="line"/>
      <point x="97" y="133"/>
      <point x="188" y="89"/>
      <point x="323" y="89" type="curve" smooth="yes"/>
      <point x="440" y="89"/>
      <point x="557" y="126"/>
      <point x="557" y="262" type="curve" smooth="yes"/>
      <point x="557" y="382"/>
      <point x="439" y="449"/>
      <point x="356" y="513" type="curve" smooth="yes"/>
      <point x="284" y="569"/>
      <point x="139" y="684"/>
      <point x="139" y="849" type="curve" smooth="yes"/>
      <point x="139" y="1047"/>
      <point x="320" y="1163"/>
      <point x="523" y="1163" type="curve" smooth="yes"/>
      <point x="630" y="1163"/>
      <point x="734" y="1138"/>
      <point x="767" y="1122" type="curve"/>
      <point x="734" y="987" type="line"/>
      <point x="722" y="1005"/>
      <point x="641" y="1059"/>
      <point x="515" y="1059" type="curve" smooth="yes"/>
      <point x="393" y="1059"/>
      <point x="303" y="1006"/>
      <point x="293" y="898" type="curve" smooth="yes"/>
      <point x="283" y="778"/>
      <point x="385" y="696"/>
      <point x="471" y="633" type="curve"/>
      <point x="566" y="561"/>
      <point x="709" y="460"/>
      <point x="709" y="292" type="curve" smooth="yes"/>
      <point x="709" y="90"/>
      <point x="523" y="-20"/>
      <point x="314" y="-20" type="curve" smooth="yes"/>
      <point x="193" y="-20"/>
      <point x="60" y="11"/>
    </contour>
    <contour>
      <point x="456" y="1255" type="line"/>
      <point x="230" y="1603" type="line"/>
      <point x="284" y="1650" type="line"/>
      <point x="530" y="1377" type="line"/>
      <point x="603" y="1438"/>
      <point x="792" y="1590"/>
      <point x="864" y="1650" type="curve"/>
      <point x="914" y="1604" type="line"/>
      <point x="598" y="1255" type="line"/>
    </contour>
  </outline>
</glyph>
<glyph name="uni0163" format="1">
  <advance width="706"/>
  <unicode hex="0163"/>
  <outline>
    <contour>
      <point x="150" y="147" type="curve" smooth="yes"/>
      <point x="150" y="161"/>
      <point x="150" y="184"/>
      <point x="161" y="268" type="curve" smooth="yes"/>
      <point x="262" y="1043" type="line"/>
      <point x="138" y="1043" type="line"/>
      <point x="154" y="1113" type="line"/>
      <point x="281" y="1151" type="line"/>
      <point x="316" y="1200"/>
      <point x="364" y="1332"/>
      <point x="393" y="1416" type="curve"/>
      <point x="469" y="1416" type="line"/>
      <point x="436" y="1155" type="line"/>
      <point x="697" y="1155" type="line"/>
      <point x="681" y="1043" type="line"/>
      <point x="422" y="1043" type="line"/>
      <point x="326" y="344" type="line" smooth="yes"/>
      <point x="317" y="275"/>
      <point x="312" y="221"/>
      <point x="312" y="188" type="curve" smooth="yes"/>
      <point x="312" y="116"/>
      <point x="330" y="92"/>
      <point x="409" y="92" type="curve" smooth="yes"/>
      <point x="470" y="92"/>
      <point x="572" y="150"/>
      <point x="612" y="180" type="curve"/>
      <point x="626" y="116" type="line"/>
      <point x="589" y="71"/>
      <point x="470" y="0"/>
      <point x="365" y="-16" type="curve"/>
      <point x="380" y="-61"/>
      <point x="384" y="-123"/>
      <point x="378" y="-194" type="curve" smooth="yes"/>
      <point x="360" y="-410"/>
      <point x="264" y="-464"/>
      <point x="121" y="-464" type="curve" smooth="yes"/>
      <point x="68" y="-464"/>
      <point x="5" y="-452"/>
      <point x="-17" y="-436" type="curve"/>
      <point x="11" y="-331" type="line"/>
      <point x="28" y="-340"/>
      <point x="55" y="-348"/>
      <point x="96" y="-348" type="curve" smooth="yes"/>
      <point x="193" y="-348"/>
      <point x="260" y="-285"/>
      <point x="273" y="-142" type="curve"/>
      <point x="277" y="-83"/>
      <point x="274" y="-45"/>
      <point x="268" y="-14" type="curve"/>
      <point x="194" y="1"/>
      <point x="150" y="52"/>
    </contour>
  </outline>
</glyph>
<glyph name="tcaron" format="1">
  <advance width="714"/>
  <unicode hex="0165"/>
  <outline>
    <contour>
      <point x="150" y="147" type="curve" smooth="yes"/>
      <point x="150" y="161"/>
      <point x="150" y="184"/>
      <point x="161" y="268" type="curve" smooth="yes"/>
      <point x="262" y="1043" type="line"/>
      <point x="138" y="1043" type="line"/>
      <point x="154" y="1113" type="line"/>
      <point x="281" y="1151" type="line"/>
      <point x="316" y="1200"/>
      <point x="364" y="1332"/>
      <point x="393" y="1416" type="curve"/>
      <point x="469" y="1416" type="line"/>
      <point x="436" y="1155" type="line"/>
      <point x="697" y="1155" type="line"/>
      <point x="681" y="1043" type="line"/>
      <point x="422" y="1043" type="line"/>
      <point x="326" y="344" type="line" smooth="yes"/>
      <point x="317" y="275"/>
      <point x="312" y="221"/>
      <point x="312" y="188" type="curve" smooth="yes"/>
      <point x="312" y="116"/>
      <point x="330" y="92"/>
      <point x="409" y="92" type="curve" smooth="yes"/>
      <point x="470" y="92"/>
      <point x="572" y="150"/>
      <point x="612" y="180" type="curve"/>
      <point x="626" y="116" type="line"/>
      <point x="584" y="65"/>
      <point x="438" y="-20"/>
      <point x="326" y="-20" type="curve" smooth="yes"/>
      <point x="217" y="-20"/>
      <point x="150" y="30"/>
    </contour>
    <contour>
      <point x="695" y="1255" type="curve"/>
      <point x="646" y="1279" type="line"/>
      <point x="641" y="1299" type="line"/>
      <point x="670" y="1381"/>
      <point x="702" y="1493"/>
      <point x="715" y="1614" type="curve" smooth="yes"/>
      <point x="724" y="1702"/>
      <point x="706" y="1789"/>
      <point x="686" y="1819" type="curve"/>
      <point x="701" y="1853" type="line"/>
      <point x="825" y="1890" type="line"/>
      <point x="859" y="1853"/>
      <point x="863" y="1757"/>
      <point x="853" y="1661" type="curve" smooth="yes"/>
      <point x="834" y="1484"/>
      <point x="761" y="1335"/>
    </contour>
  </outline>
</glyph>
<glyph name="Utilde" format="1">
  <advance width="1396"/>
  <unicode hex="0168"/>
  <outline>
    <contour>
      <point x="178" y="426" type="curve" smooth="yes"/>
      <point x="177" y="478"/>
      <point x="180" y="534"/>
      <point x="186" y="593" type="curve"/>
      <point x="311" y="1431" type="line"/>
      <point x="172" y="1450" type="line"/>
      <point x="182" y="1530" type="line"/>
      <point x="637" y="1530" type="line"/>
      <point x="628" y="1450" type="line"/>
      <point x="474" y="1429" type="line"/>
      <point x="351" y="607" type="line"/>
      <point x="343" y="534"/>
      <point x="340" y="475"/>
      <point x="341" y="418" type="curve" smooth="yes"/>
      <point x="345" y="202"/>
      <point x="446" y="69"/>
      <point x="651" y="69" type="curve" smooth="yes"/>
      <point x="902" y="69"/>
      <point x="1043" y="249"/>
      <point x="1088" y="627" type="curve"/>
      <point x="1207" y="1429" type="line"/>
      <point x="1072" y="1449" type="line"/>
      <point x="1081" y="1530" type="line"/>
      <point x="1485" y="1530" type="line"/>
      <point x="1476" y="1449" type="line"/>
      <point x="1347" y="1431" type="line"/>
      <point x="1227" y="627" type="line"/>
      <point x="1166" y="155"/>
      <point x="971" y="-20"/>
      <point x="628" y="-20" type="curve" smooth="yes"/>
      <point x="342" y="-20"/>
      <point x="183" y="150"/>
    </contour>
    <contour>
      <point x="547" y="1731" type="curve"/>
      <point x="508" y="1800" type="line"/>
      <point x="551" y="1883"/>
      <point x="648" y="1965"/>
      <point x="749" y="1965" type="curve" smooth="yes"/>
      <point x="879" y="1965"/>
      <point x="910" y="1819"/>
      <point x="1007" y="1819" type="curve" smooth="yes"/>
      <point x="1087" y="1819"/>
      <point x="1135" y="1892"/>
      <point x="1167" y="1938" type="curve"/>
      <point x="1215" y="1863" type="line"/>
      <point x="1182" y="1768"/>
      <point x="1084" y="1689"/>
      <point x="977" y="1689" type="curve" smooth="yes"/>
      <point x="821" y="1689"/>
      <point x="818" y="1833"/>
      <point x="707" y="1835" type="curve" smooth="yes"/>
      <point x="649" y="1836"/>
      <point x="584" y="1774"/>
    </contour>
  </outline>
</glyph>
<glyph name="utilde" format="1">
  <advance width="1204"/>
  <unicode hex="0169"/>
  <outline>
    <contour>
      <point x="165" y="254" type="curve" smooth="yes"/>
      <point x="165" y="346"/>
      <point x="185" y="488"/>
      <point x="201" y="606" type="curve" smooth="yes"/>
      <point x="255" y="1002" type="line"/>
      <point x="158" y="1049" type="line"/>
      <point x="172" y="1120" type="line"/>
      <point x="382" y="1163" type="line"/>
      <point x="422" y="1142" type="line"/>
      <point x="353" y="599" type="line" smooth="yes"/>
      <point x="338" y="479"/>
      <point x="321" y="385"/>
      <point x="321" y="279" type="curve" smooth="yes"/>
      <point x="321" y="123"/>
      <point x="383" y="90"/>
      <point x="477" y="90" type="curve" smooth="yes"/>
      <point x="587" y="90"/>
      <point x="718" y="186"/>
      <point x="792" y="279" type="curve"/>
      <point x="907" y="1155" type="line"/>
      <point x="1062" y="1155" type="line"/>
      <point x="932" y="159" type="line" smooth="yes"/>
      <point x="925" y="108"/>
      <point x="936" y="87"/>
      <point x="956" y="87" type="curve" smooth="yes"/>
      <point x="983" y="87"/>
      <point x="1016" y="106"/>
      <point x="1067" y="158" type="curve"/>
      <point x="1093" y="113" type="line"/>
      <point x="1077" y="86"/>
      <point x="981" y="-18"/>
      <point x="869" y="-18" type="curve" smooth="yes"/>
      <point x="794" y="-18"/>
      <point x="758" y="34"/>
      <point x="776" y="119" type="curve" smooth="yes"/>
      <point x="777" y="126"/>
      <point x="778" y="146"/>
      <point x="779" y="169" type="curve"/>
      <point x="697" y="76"/>
      <point x="571" y="-20"/>
      <point x="411" y="-20" type="curve" smooth="yes"/>
      <point x="261" y="-20"/>
      <point x="165" y="44"/>
    </contour>
    <contour>
      <point x="366" y="1416" type="curve"/>
      <point x="328" y="1485" type="line"/>
      <point x="370" y="1568"/>
      <point x="467" y="1650"/>
      <point x="568" y="1650" type="curve" smooth="yes"/>
      <point x="698" y="1650"/>
      <point x="730" y="1504"/>
      <point x="827" y="1504" type="curve" smooth="yes"/>
      <point x="906" y="1504"/>
      <point x="955" y="1578"/>
      <point x="987" y="1623" type="curve"/>
      <point x="1034" y="1549" type="line"/>
      <point x="1001" y="1453"/>
      <point x="904" y="1374"/>
      <point x="797" y="1374" type="curve" smooth="yes"/>
      <point x="641" y="1374"/>
      <point x="638" y="1519"/>
      <point x="527" y="1520" type="curve" smooth="yes"/>
      <point x="469" y="1521"/>
      <point x="403" y="1459"/>
    </contour>
  </outline>
</glyph>
<glyph name="Ubreve" format="1">
  <advance width="1396"/>
  <unicode hex="016C"/>
  <outline>
    <contour>
      <point x="178" y="426" type="curve" smooth="yes"/>
      <point x="177" y="478"/>
      <point x="180" y="534"/>
      <point x="186" y="593" type="curve"/>
      <point x="311" y="1431" type="line"/>
      <point x="172" y="1450" type="line"/>
      <point x="182" y="1530" type="line"/>
      <point x="637" y="1530" type="line"/>
      <point x="628" y="1450" type="line"/>
      <point x="474" y="1429" type="line"/>
      <point x="351" y="607" type="line"/>
      <point x="343" y="534"/>
      <point x="340" y="475"/>
      <point x="341" y="418" type="curve" smooth="yes"/>
      <point x="345" y="202"/>
      <point x="446" y="69"/>
      <point x="651" y="69" type="curve" smooth="yes"/>
      <point x="902" y="69"/>
      <point x="1043" y="249"/>
      <point x="1088" y="627" type="curve"/>
      <point x="1207" y="1429" type="line"/>
      <point x="1072" y="1449" type="line"/>
      <point x="1081" y="1530" type="line"/>
      <point x="1485" y="1530" type="line"/>
      <point x="1476" y="1449" type="line"/>
      <point x="1347" y="1431" type="line"/>
      <point x="1227" y="627" type="line"/>
      <point x="1166" y="155"/>
      <point x="971" y="-20"/>
      <point x="628" y="-20" type="curve" smooth="yes"/>
      <point x="342" y="-20"/>
      <point x="183" y="150"/>
    </contour>
    <contour>
      <point x="838" y="1635" type="curve" smooth="yes"/>
      <point x="652" y="1635"/>
      <point x="549" y="1799"/>
      <point x="549" y="1959" type="curve" smooth="yes"/>
      <point x="549" y="1965"/>
      <point x="549" y="1973"/>
      <point x="550" y="1979" type="curve"/>
      <point x="635" y="1979" type="line"/>
      <point x="636" y="1971"/>
      <point x="636" y="1959"/>
      <point x="638" y="1949" type="curve" smooth="yes"/>
      <point x="650" y="1858"/>
      <point x="709" y="1752"/>
      <point x="842" y="1752" type="curve" smooth="yes"/>
      <point x="990" y="1752"/>
      <point x="1068" y="1899"/>
      <point x="1084" y="1979" type="curve"/>
      <point x="1166" y="1979" type="line"/>
      <point x="1167" y="1969"/>
      <point x="1166" y="1958"/>
      <point x="1164" y="1947" type="curve" smooth="yes"/>
      <point x="1147" y="1800"/>
      <point x="1006" y="1635"/>
    </contour>
  </outline>
</glyph>
<glyph name="ubreve" format="1">
  <advance width="1204"/>
  <unicode hex="016D"/>
  <outline>
    <contour>
      <point x="165" y="254" type="curve" smooth="yes"/>
      <point x="165" y="346"/>
      <point x="185" y="488"/>
      <point x="201" y="606" type="curve" smooth="yes"/>
      <point x="255" y="1002" type="line"/>
      <point x="158" y="1049" type="line"/>
      <point x="172" y="1120" type="line"/>
      <point x="382" y="1163" type="line"/>
      <point x="422" y="1142" type="line"/>
      <point x="353" y="599" type="line" smooth="yes"/>
      <point x="338" y="479"/>
      <point x="321" y="385"/>
      <point x="321" y="279" type="curve" smooth="yes"/>
      <point x="321" y="123"/>
      <point x="383" y="90"/>
      <point x="477" y="90" type="curve" smooth="yes"/>
      <point x="587" y="90"/>
      <point x="718" y="186"/>
      <point x="792" y="279" type="curve"/>
      <point x="907" y="1155" type="line"/>
      <point x="1062" y="1155" type="line"/>
      <point x="932" y="159" type="line" smooth="yes"/>
      <point x="925" y="108"/>
      <point x="936" y="87"/>
      <point x="956" y="87" type="curve" smooth="yes"/>
      <point x="983" y="87"/>
      <point x="1016" y="106"/>
      <point x="1067" y="158" type="curve"/>
      <point x="1093" y="113" type="line"/>
      <point x="1077" y="86"/>
      <point x="981" y="-18"/>
      <point x="869" y="-18" type="curve" smooth="yes"/>
      <point x="794" y="-18"/>
      <point x="758" y="34"/>
      <point x="776" y="119" type="curve" smooth="yes"/>
      <point x="777" y="126"/>
      <point x="778" y="146"/>
      <point x="779" y="169" type="curve"/>
      <point x="697" y="76"/>
      <point x="571" y="-20"/>
      <point x="411" y="-20" type="curve" smooth="yes"/>
      <point x="261" y="-20"/>
      <point x="165" y="44"/>
    </contour>
    <contour>
      <point x="674" y="1304" type="curve" smooth="yes"/>
      <point x="488" y="1304"/>
      <point x="385" y="1468"/>
      <point x="385" y="1628" type="curve" smooth="yes"/>
      <point x="385" y="1634"/>
      <point x="385" y="1643"/>
      <point x="386" y="1648" type="curve"/>
      <point x="471" y="1648" type="line"/>
      <point x="472" y="1640"/>
      <point x="472" y="1628"/>
      <point x="474" y="1618" type="curve" smooth="yes"/>
      <point x="486" y="1527"/>
      <point x="545" y="1422"/>
      <point x="678" y="1422" type="curve" smooth="yes"/>
      <point x="826" y="1422"/>
      <point x="904" y="1569"/>
      <point x="920" y="1649" type="curve"/>
      <point x="1002" y="1649" type="line"/>
      <point x="1003" y="1638"/>
      <point x="1002" y="1627"/>
      <point x="1000" y="1617" type="curve" smooth="yes"/>
      <point x="983" y="1469"/>
      <point x="842" y="1304"/>
    </contour>
  </outline>
</glyph>
<glyph name="Uring" format="1">
  <advance width="1396"/>
  <unicode hex="016E"/>
  <outline>
    <contour>
      <point x="178" y="426" type="curve" smooth="yes"/>
      <point x="177" y="478"/>
      <point x="180" y="534"/>
      <point x="186" y="593" type="curve"/>
      <point x="311" y="1431" type="line"/>
      <point x="172" y="1450" type="line"/>
      <point x="182" y="1530" type="line"/>
      <point x="637" y="1530" type="line"/>
      <point x="628" y="1450" type="line"/>
      <point x="474" y="1429" type="line"/>
      <point x="351" y="607" type="line"/>
      <point x="343" y="534"/>
      <point x="340" y="475"/>
      <point x="341" y="418" type="curve" smooth="yes"/>
      <point x="345" y="202"/>
      <point x="446" y="69"/>
      <point x="651" y="69" type="curve" smooth="yes"/>
      <point x="902" y="69"/>
      <point x="1043" y="249"/>
      <point x="1088" y="627" type="curve"/>
      <point x="1207" y="1429" type="line"/>
      <point x="1072" y="1449" type="line"/>
      <point x="1081" y="1530" type="line"/>
      <point x="1485" y="1530" type="line"/>
      <point x="1476" y="1449" type="line"/>
      <point x="1347" y="1431" type="line"/>
      <point x="1227" y="627" type="line"/>
      <point x="1166" y="155"/>
      <point x="971" y="-20"/>
      <point x="628" y="-20" type="curve" smooth="yes"/>
      <point x="342" y="-20"/>
      <point x="183" y="150"/>
    </contour>
    <contour>
      <point x="815" y="1481" type="curve" smooth="yes"/>
      <point x="627" y="1481"/>
      <point x="530" y="1582"/>
      <point x="546" y="1737" type="curve" smooth="yes"/>
      <point x="564" y="1918"/>
      <point x="739" y="1990"/>
      <point x="883" y="1990" type="curve" smooth="yes"/>
      <point x="1059" y="1990"/>
      <point x="1161" y="1899"/>
      <point x="1147" y="1745" type="curve" smooth="yes"/>
      <point x="1130" y="1563"/>
      <point x="965" y="1481"/>
    </contour>
    <contour>
      <point x="826" y="1546" type="curve" smooth="yes"/>
      <point x="934" y="1544"/>
      <point x="1030" y="1593"/>
      <point x="1041" y="1739" type="curve" smooth="yes"/>
      <point x="1049" y="1851"/>
      <point x="977" y="1923"/>
      <point x="871" y="1924" type="curve"/>
      <point x="764" y="1924"/>
      <point x="663" y="1875"/>
      <point x="652" y="1737" type="curve" smooth="yes"/>
      <point x="644" y="1630"/>
      <point x="719" y="1547"/>
    </contour>
  </outline>
</glyph>
<glyph name="uring" format="1">
  <advance width="1204"/>
  <unicode hex="016F"/>
  <outline>
    <contour>
      <point x="165" y="254" type="curve" smooth="yes"/>
      <point x="165" y="346"/>
      <point x="185" y="488"/>
      <point x="201" y="606" type="curve" smooth="yes"/>
      <point x="255" y="1002" type="line"/>
      <point x="158" y="1049" type="line"/>
      <point x="172" y="1120" type="line"/>
      <point x="382" y="1163" type="line"/>
      <point x="422" y="1142" type="line"/>
      <point x="353" y="599" type="line" smooth="yes"/>
      <point x="338" y="479"/>
      <point x="321" y="385"/>
      <point x="321" y="279" type="curve" smooth="yes"/>
      <point x="321" y="123"/>
      <point x="383" y="90"/>
      <point x="477" y="90" type="curve" smooth="yes"/>
      <point x="587" y="90"/>
      <point x="718" y="186"/>
      <point x="792" y="279" type="curve"/>
      <point x="907" y="1155" type="line"/>
      <point x="1062" y="1155" type="line"/>
      <point x="932" y="159" type="line" smooth="yes"/>
      <point x="925" y="108"/>
      <point x="936" y="87"/>
      <point x="956" y="87" type="curve" smooth="yes"/>
      <point x="983" y="87"/>
      <point x="1016" y="106"/>
      <point x="1067" y="158" type="curve"/>
      <point x="1093" y="113" type="line"/>
      <point x="1077" y="86"/>
      <point x="981" y="-18"/>
      <point x="869" y="-18" type="curve" smooth="yes"/>
      <point x="794" y="-18"/>
      <point x="758" y="34"/>
      <point x="776" y="119" type="curve" smooth="yes"/>
      <point x="777" y="126"/>
      <point x="778" y="146"/>
      <point x="779" y="169" type="curve"/>
      <point x="697" y="76"/>
      <point x="571" y="-20"/>
      <point x="411" y="-20" type="curve" smooth="yes"/>
      <point x="261" y="-20"/>
      <point x="165" y="44"/>
    </contour>
    <contour>
      <point x="686" y="1256" type="curve" smooth="yes"/>
      <point x="492" y="1256"/>
      <point x="400" y="1360"/>
      <point x="415" y="1517" type="curve" smooth="yes"/>
      <point x="433" y="1702"/>
      <point x="605" y="1778"/>
      <point x="754" y="1778" type="curve" smooth="yes"/>
      <point x="934" y="1778"/>
      <point x="1033" y="1686"/>
      <point x="1018" y="1530" type="curve"/>
      <point x="1002" y="1341"/>
      <point x="840" y="1256"/>
    </contour>
    <contour>
      <point x="696" y="1320" type="curve"/>
      <point x="810" y="1320"/>
      <point x="903" y="1373"/>
      <point x="914" y="1524" type="curve" smooth="yes"/>
      <point x="922" y="1637"/>
      <point x="853" y="1712"/>
      <point x="742" y="1713" type="curve" smooth="yes"/>
      <point x="631" y="1714"/>
      <point x="530" y="1660"/>
      <point x="520" y="1517" type="curve" smooth="yes"/>
      <point x="512" y="1407"/>
      <point x="585" y="1323"/>
    </contour>
  </outline>
</glyph>
<glyph name="uhungarumlaut" format="1">
  <advance width="1204"/>
  <unicode hex="0171"/>
  <outline>
    <contour>
      <point x="165" y="254" type="curve" smooth="yes"/>
      <point x="165" y="346"/>
      <point x="185" y="488"/>
      <point x="201" y="606" type="curve" smooth="yes"/>
      <point x="255" y="1002" type="line"/>
      <point x="158" y="1049" type="line"/>
      <point x="172" y="1120" type="line"/>
      <point x="382" y="1163" type="line"/>
      <point x="422" y="1142" type="line"/>
      <point x="353" y="599" type="line" smooth="yes"/>
      <point x="338" y="479"/>
      <point x="321" y="385"/>
      <point x="321" y="279" type="curve" smooth="yes"/>
      <point x="321" y="123"/>
      <point x="383" y="90"/>
      <point x="477" y="90" type="curve" smooth="yes"/>
      <point x="587" y="90"/>
      <point x="718" y="186"/>
      <point x="792" y="279" type="curve"/>
      <point x="907" y="1155" type="line"/>
      <point x="1062" y="1155" type="line"/>
      <point x="932" y="159" type="line" smooth="yes"/>
      <point x="925" y="108"/>
      <point x="936" y="87"/>
      <point x="956" y="87" type="curve" smooth="yes"/>
      <point x="983" y="87"/>
      <point x="1016" y="106"/>
      <point x="1067" y="158" type="curve"/>
      <point x="1093" y="113" type="line"/>
      <point x="1077" y="86"/>
      <point x="981" y="-18"/>
      <point x="869" y="-18" type="curve" smooth="yes"/>
      <point x="794" y="-18"/>
      <point x="758" y="34"/>
      <point x="776" y="119" type="curve" smooth="yes"/>
      <point x="777" y="126"/>
      <point x="778" y="146"/>
      <point x="779" y="169" type="curve"/>
      <point x="697" y="76"/>
      <point x="571" y="-20"/>
      <point x="411" y="-20" type="curve" smooth="yes"/>
      <point x="261" y="-20"/>
      <point x="165" y="44"/>
    </contour>
    <contour>
      <point x="869" y="1257" type="curve"/>
      <point x="817" y="1292" type="line"/>
      <point x="1064" y="1707" type="line"/>
      <point x="1180" y="1613" type="line"/>
      <point x="1145" y="1507"/>
      <point x="974" y="1312"/>
    </contour>
    <contour>
      <point x="443" y="1257" type="curve"/>
      <point x="392" y="1292" type="line"/>
      <point x="629" y="1707" type="line"/>
      <point x="745" y="1614" type="line"/>
      <point x="706" y="1497"/>
      <point x="549" y="1325"/>
    </contour>
  </outline>
</glyph>
<glyph name="uogonek" format="1">
  <advance width="1204"/>
  <unicode hex="0173"/>
  <outline>
    <contour>
      <point x="165" y="254" type="curve" smooth="yes"/>
      <point x="165" y="346"/>
      <point x="185" y="488"/>
      <point x="201" y="606" type="curve" smooth="yes"/>
      <point x="255" y="1002" type="line"/>
      <point x="158" y="1049" type="line"/>
      <point x="172" y="1120" type="line"/>
      <point x="382" y="1163" type="line"/>
      <point x="422" y="1142" type="line"/>
      <point x="353" y="599" type="line" smooth="yes"/>
      <point x="338" y="479"/>
      <point x="321" y="385"/>
      <point x="321" y="279" type="curve" smooth="yes"/>
      <point x="321" y="123"/>
      <point x="383" y="90"/>
      <point x="477" y="90" type="curve" smooth="yes"/>
      <point x="587" y="90"/>
      <point x="718" y="186"/>
      <point x="792" y="279" type="curve"/>
      <point x="907" y="1155" type="line"/>
      <point x="1062" y="1155" type="line"/>
      <point x="932" y="159" type="line" smooth="yes"/>
      <point x="925" y="108"/>
      <point x="936" y="87"/>
      <point x="956" y="87" type="curve" smooth="yes"/>
      <point x="983" y="87"/>
      <point x="1016" y="106"/>
      <point x="1067" y="158" type="curve"/>
      <point x="1093" y="113" type="line"/>
      <point x="1081" y="93"/>
      <point x="1028" y="33"/>
      <point x="957" y="2" type="curve"/>
      <point x="859" y="-70"/>
      <point x="758" y="-146"/>
      <point x="757" y="-226" type="curve"/>
      <point x="754" y="-286"/>
      <point x="786" y="-313"/>
      <point x="822" y="-313" type="curve" smooth="yes"/>
      <point x="874" y="-313"/>
      <point x="926" y="-287"/>
      <point x="976" y="-245" type="curve"/>
      <point x="998" y="-322" type="line"/>
      <point x="946" y="-368"/>
      <point x="864" y="-416"/>
      <point x="748" y="-416" type="curve" smooth="yes"/>
      <point x="641" y="-416"/>
      <point x="600" y="-346"/>
      <point x="602" y="-287" type="curve" smooth="yes"/>
      <point x="604" y="-247"/>
      <point x="616" y="-204"/>
      <point x="638" y="-175" type="curve"/>
      <point x="694" y="-96"/>
      <point x="766" y="-53"/>
      <point x="835" y="-14" type="curve"/>
      <point x="783" y="0"/>
      <point x="761" y="48"/>
      <point x="776" y="119" type="curve" smooth="yes"/>
      <point x="777" y="126"/>
      <point x="778" y="146"/>
      <point x="779" y="169" type="curve"/>
      <point x="697" y="76"/>
      <point x="571" y="-20"/>
      <point x="411" y="-20" type="curve" smooth="yes"/>
      <point x="261" y="-20"/>
      <point x="165" y="44"/>
    </contour>
  </outline>
</glyph>
<glyph name="zcaron" format="1">
  <advance width="1001"/>
  <unicode hex="017E"/>
  <outline>
    <contour>
      <point x="4" y="28" type="line"/>
      <point x="649" y="850" type="line"/>
      <point x="774" y="997" type="line"/>
      <point x="677" y="1000"/>
      <point x="366" y="1011"/>
      <point x="354" y="1003" type="curve"/>
      <point x="275" y="999"/>
      <point x="205" y="916"/>
      <point x="198" y="818" type="curve"/>
      <point x="145" y="818" type="line"/>
      <point x="143" y="903"/>
      <point x="165" y="1103"/>
      <point x="221" y="1143" type="curve" smooth="yes"/>
      <point x="238" y="1155"/>
      <point x="275" y="1163"/>
      <point x="325" y="1163" type="curve" smooth="yes"/>
      <point x="477" y="1163"/>
      <point x="705" y="1127"/>
      <point x="823" y="1127" type="curve" smooth="yes"/>
      <point x="850" y="1127"/>
      <point x="906" y="1136"/>
      <point x="939" y="1163" type="curve"/>
      <point x="938" y="1159" type="line"/>
      <point x="984" y="1116" type="line"/>
      <point x="315" y="253" type="line"/>
      <point x="218" y="137" type="line"/>
      <point x="325" y="135"/>
      <point x="614" y="129"/>
      <point x="643" y="129" type="curve" smooth="yes"/>
      <point x="747" y="129"/>
      <point x="808" y="192"/>
      <point x="826" y="315" type="curve"/>
      <point x="878" y="315" type="line"/>
      <point x="871" y="195"/>
      <point x="852" y="36"/>
      <point x="795" y="-2" type="curve" smooth="yes"/>
      <point x="778" y="-13"/>
      <point x="744" y="-22"/>
      <point x="695" y="-22" type="curve" smooth="yes"/>
      <point x="548" y="-22"/>
      <point x="276" y="13"/>
      <point x="157" y="13" type="curve" smooth="yes"/>
      <point x="133" y="13"/>
      <point x="95" y="5"/>
      <point x="68" y="-14" type="curve"/>
      <point x="67" y="-15" type="line"/>
      <point x="59" y="-22" type="line"/>
    </contour>
    <contour>
      <point x="513" y="1255" type="line"/>
      <point x="287" y="1603" type="line"/>
      <point x="341" y="1650" type="line"/>
      <point x="587" y="1377" type="line"/>
      <point x="660" y="1438"/>
      <point x="849" y="1590"/>
      <point x="921" y="1650" type="curve"/>
      <point x="971" y="1604" type="line"/>
      <point x="655" y="1255" type="line"/>
    </contour>
  </outline>
</glyph>
<glyph name="aeacute" format="1">
  <advance width="1704"/>
  <unicode hex="01FD"/>
  <outline>
    <contour>
      <point x="356" y="-20" type="curve" smooth="yes"/>
      <point x="150" y="-20"/>
      <point x="73" y="146"/>
      <point x="73" y="396" type="curve" smooth="yes"/>
      <point x="73" y="704"/>
      <point x="304" y="1162"/>
      <point x="714" y="1162" type="curve" smooth="yes"/>
      <point x="785" y="1162"/>
      <point x="872" y="1141"/>
      <point x="929" y="1119" type="curve"/>
      <point x="939" y="1128" type="line"/>
      <point x="1037" y="1162" type="line"/>
      <point x="999" y="1013" type="line"/>
      <point x="1094" y="1105"/>
      <point x="1212" y="1162"/>
      <point x="1343" y="1162" type="curve" smooth="yes"/>
      <point x="1533" y="1162"/>
      <point x="1621" y="1051"/>
      <point x="1621" y="910" type="curve" smooth="yes"/>
      <point x="1621" y="596"/>
      <point x="1129" y="472"/>
      <point x="933" y="467" type="curve"/>
      <point x="921" y="282"/>
      <point x="953" y="92"/>
      <point x="1156" y="92" type="curve" smooth="yes"/>
      <point x="1268" y="92"/>
      <point x="1409" y="139"/>
      <point x="1529" y="254" type="curve"/>
      <point x="1567" y="186" type="line"/>
      <point x="1508" y="107"/>
      <point x="1339" y="-20"/>
      <point x="1137" y="-20" type="curve" smooth="yes"/>
      <point x="925" y="-20"/>
      <point x="814" y="96"/>
      <point x="779" y="273" type="curve"/>
      <point x="712" y="143"/>
      <point x="573" y="-20"/>
    </contour>
    <contour>
      <point x="937" y="557" type="curve"/>
      <point x="1150" y="564"/>
      <point x="1457" y="686"/>
      <point x="1457" y="899" type="curve" smooth="yes"/>
      <point x="1457" y="1011"/>
      <point x="1404" y="1069"/>
      <point x="1306" y="1069" type="curve" smooth="yes"/>
      <point x="1089" y="1069"/>
      <point x="957" y="770"/>
    </contour>
    <contour>
      <point x="392" y="94" type="curve" smooth="yes"/>
      <point x="577" y="94"/>
      <point x="712" y="291"/>
      <point x="766" y="409" type="curve"/>
      <point x="766" y="437" type="line"/>
      <point x="767" y="518"/>
      <point x="780" y="597"/>
      <point x="802" y="672" type="curve"/>
      <point x="861" y="1011" type="line"/>
      <point x="816" y="1050"/>
      <point x="751" y="1064"/>
      <point x="689" y="1064" type="curve" smooth="yes"/>
      <point x="390" y="1064"/>
      <point x="233" y="677"/>
      <point x="233" y="406" type="curve" smooth="yes"/>
      <point x="233" y="191"/>
      <point x="288" y="94"/>
    </contour>
    <contour>
      <point x="840" y="1255" type="curve"/>
      <point x="797" y="1304" type="line"/>
      <point x="1119" y="1729" type="line"/>
      <point x="1232" y="1596" type="line"/>
      <point x="1194" y="1530"/>
      <point x="961" y="1323"/>
    </contour>
  </outline>
</glyph>
<glyph name="uni0219" format="1">
  <advance width="834"/>
  <unicode hex="0219"/>
  <outline>
    <contour>
      <point x="236" y="-147" type="line"/>
      <point x="334" y="-52" type="line"/>
      <point x="417" y="-76"/>
      <point x="462" y="-169"/>
      <point x="455" y="-267" type="curve"/>
      <point x="442" y="-422"/>
      <point x="314" y="-540"/>
      <point x="241" y="-560" type="curve"/>
      <point x="208" y="-527" type="line"/>
      <point x="210" y="-507" type="line"/>
      <point x="261" y="-471"/>
      <point x="298" y="-410"/>
      <point x="303" y="-321" type="curve" smooth="yes"/>
      <point x="307" y="-266"/>
      <point x="275" y="-206"/>
      <point x="231" y="-191" type="curve"/>
    </contour>
    <contour>
      <point x="25" y="43" type="curve"/>
      <point x="54" y="164" type="line"/>
      <point x="97" y="133"/>
      <point x="188" y="89"/>
      <point x="323" y="89" type="curve" smooth="yes"/>
      <point x="440" y="89"/>
      <point x="557" y="126"/>
      <point x="557" y="262" type="curve" smooth="yes"/>
      <point x="557" y="382"/>
      <point x="439" y="449"/>
      <point x="356" y="513" type="curve" smooth="yes"/>
      <point x="284" y="569"/>
      <point x="139" y="684"/>
      <point x="139" y="849" type="curve" smooth="yes"/>
      <point x="139" y="1047"/>
      <point x="320" y="1163"/>
      <point x="523" y="1163" type="curve" smooth="yes"/>
      <point x="630" y="1163"/>
      <point x="734" y="1138"/>
      <point x="767" y="1122" type="curve"/>
      <point x="734" y="987" type="line"/>
      <point x="722" y="1005"/>
      <point x="641" y="1059"/>
      <point x="515" y="1059" type="curve" smooth="yes"/>
      <point x="393" y="1059"/>
      <point x="303" y="1006"/>
      <point x="293" y="898" type="curve" smooth="yes"/>
      <point x="283" y="778"/>
      <point x="385" y="696"/>
      <point x="471" y="633" type="curve"/>
      <point x="566" y="561"/>
      <point x="709" y="460"/>
      <point x="709" y="292" type="curve" smooth="yes"/>
      <point x="709" y="90"/>
      <point x="523" y="-20"/>
      <point x="314" y="-20" type="curve" smooth="yes"/>
      <point x="193" y="-20"/>
      <point x="60" y="11"/>
    </contour>
  </outline>
</glyph>
<glyph name="uni021A" format="1">
  <advance width="1235"/>
  <unicode hex="021A"/>
  <outline>
    <contour>
      <point x="425" y="-147" type="line"/>
      <point x="523" y="-52" type="line"/>
      <point x="606" y="-76"/>
      <point x="651" y="-169"/>
      <point x="644" y="-267" type="curve"/>
      <point x="631" y="-422"/>
      <point x="503" y="-540"/>
      <point x="430" y="-560" type="curve"/>
      <point x="397" y="-527" type="line"/>
      <point x="399" y="-507" type="line"/>
      <point x="450" y="-471"/>
      <point x="487" y="-410"/>
      <point x="492" y="-321" type="curve" smooth="yes"/>
      <point x="496" y="-266"/>
      <point x="464" y="-206"/>
      <point x="420" y="-191" type="curve"/>
    </contour>
    <contour>
      <point x="221" y="0" type="line"/>
      <point x="228" y="75" type="line"/>
      <point x="469" y="94" type="line"/>
      <point x="659" y="1443" type="line"/>
      <point x="292" y="1422" type="line"/>
      <point x="198" y="1064" type="line"/>
      <point x="107" y="1064" type="line"/>
      <point x="188" y="1530" type="line"/>
      <point x="1318" y="1530" type="line"/>
      <point x="1243" y="1065" type="line"/>
      <point x="1155" y="1064" type="line"/>
      <point x="1185" y="1423" type="line"/>
      <point x="820" y="1443" type="line"/>
      <point x="630" y="94" type="line"/>
      <point x="879" y="75" type="line"/>
      <point x="873" y="0" type="line"/>
    </contour>
  </outline>
</glyph>
<glyph name="circumflex" format="1">
  <advance width="795"/>
  <unicode hex="02C6"/>
  <outline>
    <contour>
      <point x="100" y="1228" type="line"/>
      <point x="54" y="1275" type="line"/>
      <point x="395" y="1650" type="line"/>
      <point x="537" y="1650" type="line"/>
      <point x="739" y="1273" type="line"/>
      <point x="678" y="1226" type="line"/>
      <point x="446" y="1523" type="line"/>
    </contour>
  </outline>
</glyph>
<glyph name="caron" format="1">
  <advance width="794"/>
  <unicode hex="02C7"/>
  <outline>
    <contour>
      <point x="311" y="1255" type="line"/>
      <point x="85" y="1603" type="line"/>
      <point x="139" y="1650" type="line"/>
      <point x="385" y="1377" type="line"/>
      <point x="458" y="1438"/>
      <point x="647" y="1590"/>
      <point x="719" y="1650" type="curve"/>
      <point x="769" y="1604" type="line"/>
      <point x="453" y="1255" type="line"/>
    </contour>
  </outline>
</glyph>
<glyph name="dotaccent" format="1">
  <advance width="388"/>
  <unicode hex="02D9"/>
  <outline>
    <contour>
      <point x="183" y="1421" type="curve" smooth="yes"/>
      <point x="130" y="1421"/>
      <point x="88" y="1464"/>
      <point x="92" y="1522" type="curve"/>
      <point x="95" y="1590"/>
      <point x="156" y="1642"/>
      <point x="208" y="1642" type="curve" smooth="yes"/>
      <point x="270" y="1642"/>
      <point x="307" y="1600"/>
      <point x="304" y="1544" type="curve" smooth="yes"/>
      <point x="300" y="1476"/>
      <point x="245" y="1421"/>
    </contour>
  </outline>
</glyph>
<glyph name="ogonek" format="1">
  <advance width="487"/>
  <unicode hex="02DB"/>
  <outline>
    <contour>
      <point x="94" y="-172" type="curve" smooth="yes"/>
      <point x="150" y="-77"/>
      <point x="232" y="-22"/>
      <point x="298" y="20" type="curve"/>
      <point x="344" y="48" type="line"/>
      <point x="360" y="5" type="line"/>
      <point x="289" y="-60"/>
      <point x="207" y="-141"/>
      <point x="207" y="-217" type="curve"/>
      <point x="204" y="-272"/>
      <point x="224" y="-302"/>
      <point x="260" y="-302" type="curve" smooth="yes"/>
      <point x="309" y="-302"/>
      <point x="358" y="-278"/>
      <point x="403" y="-239" type="curve"/>
      <point x="423" y="-308" type="line"/>
      <point x="376" y="-350"/>
      <point x="300" y="-394"/>
      <point x="194" y="-394" type="curve" smooth="yes"/>
      <point x="96" y="-394"/>
      <point x="57" y="-331"/>
      <point x="60" y="-277" type="curve" smooth="yes"/>
      <point x="61" y="-241"/>
      <point x="77" y="-199"/>
    </contour>
  </outline>
</glyph>
<glyph name="hungarumlaut" format="1">
  <advance width="917"/>
  <unicode hex="02DD"/>
  <outline>
    <contour>
      <point x="533" y="1257" type="curve"/>
      <point x="481" y="1292" type="line"/>
      <point x="728" y="1707" type="line"/>
      <point x="844" y="1613" type="line"/>
      <point x="809" y="1507"/>
      <point x="638" y="1312"/>
    </contour>
    <contour>
      <point x="107" y="1257" type="curve"/>
      <point x="56" y="1292" type="line"/>
      <point x="293" y="1707" type="line"/>
      <point x="409" y="1614" type="line"/>
      <point x="370" y="1497"/>
      <point x="213" y="1325"/>
    </contour>
  </outline>
</glyph>
<glyph name="uni0394" format="1">
  <advance width="1407"/>
  <unicode hex="0394"/>
  <outline>
    <contour>
      <point x="-21" y="0" type="line"/>
      <point x="-33" y="22" type="line"/>
      <point x="733" y="1508" type="line"/>
      <point x="763" y="1508" type="line"/>
      <point x="1332" y="26" type="line"/>
      <point x="1315" y="0" type="line"/>
    </contour>
    <contour>
      <point x="115" y="96" type="line"/>
      <point x="1128" y="96" type="line"/>
      <point x="698" y="1255" type="line"/>
    </contour>
  </outline>
</glyph>
<glyph name="pi" format="1">
  <advance width="1621"/>
  <unicode hex="03C0"/>
  <outline>
    <contour>
      <point x="178" y="74" type="line"/>
      <point x="430" y="138"/>
      <point x="443" y="289"/>
      <point x="485" y="478" type="curve" smooth="yes"/>
      <point x="598" y="994" type="line"/>
      <point x="522" y="994" type="line"/>
      <point x="410" y="995"/>
      <point x="322" y="908"/>
      <point x="301" y="844" type="curve"/>
      <point x="199" y="858" type="line"/>
      <point x="198" y="877"/>
      <point x="203" y="921"/>
      <point x="225" y="956" type="curve" smooth="yes"/>
      <point x="296" y="1072"/>
      <point x="425" y="1119"/>
      <point x="561" y="1119" type="curve" smooth="yes"/>
      <point x="1227" y="1119" type="line" smooth="yes"/>
      <point x="1332" y="1119"/>
      <point x="1377" y="1135"/>
      <point x="1416" y="1214" type="curve"/>
      <point x="1519" y="1214" type="line"/>
      <point x="1490" y="1040"/>
      <point x="1361" y="994"/>
      <point x="1194" y="994" type="curve" smooth="yes"/>
      <point x="1172" y="994" type="line"/>
      <point x="1086" y="363"/>
      <point x="1068" y="285"/>
      <point x="1057" y="203" type="curve"/>
      <point x="1054" y="136"/>
      <point x="1089" y="106"/>
      <point x="1122" y="105" type="curve" smooth="yes"/>
      <point x="1194" y="104"/>
      <point x="1291" y="167"/>
      <point x="1325" y="289" type="curve"/>
      <point x="1434" y="289" type="line"/>
      <point x="1399" y="151"/>
      <point x="1266" y="-24"/>
      <point x="1068" y="-24" type="curve" smooth="yes"/>
      <point x="960" y="-24"/>
      <point x="905" y="43"/>
      <point x="909" y="149" type="curve"/>
      <point x="922" y="302"/>
      <point x="948" y="466"/>
      <point x="1037" y="994" type="curve"/>
      <point x="719" y="994" type="line"/>
      <point x="623" y="432" type="line" smooth="yes"/>
      <point x="566" y="94"/>
      <point x="448" y="2"/>
      <point x="273" y="-26" type="curve"/>
    </contour>
  </outline>
</glyph>
<glyph name="uni1E02" format="1">
  <advance width="1293"/>
  <unicode hex="1E02"/>
  <outline>
    <contour>
      <point x="40" y="0" type="line"/>
      <point x="47" y="69" type="line"/>
      <point x="193" y="94" type="line"/>
      <point x="374" y="1430" type="line"/>
      <point x="242" y="1449" type="line"/>
      <point x="252" y="1530" type="line"/>
      <point x="489" y="1530" type="line"/>
      <point x="580" y="1532"/>
      <point x="673" y="1545"/>
      <point x="772" y="1545" type="curve" smooth="yes"/>
      <point x="1081" y="1545"/>
      <point x="1197" y="1387"/>
      <point x="1200" y="1218" type="curve" smooth="yes"/>
      <point x="1204" y="1000"/>
      <point x="1081" y="870"/>
      <point x="887" y="814" type="curve"/>
      <point x="1051" y="792"/>
      <point x="1189" y="662"/>
      <point x="1192" y="490" type="curve" smooth="yes"/>
      <point x="1198" y="127"/>
      <point x="900" y="-14"/>
      <point x="523" y="-14" type="curve" smooth="yes"/>
      <point x="446" y="-14"/>
      <point x="330" y="0"/>
      <point x="259" y="0" type="curve" smooth="yes"/>
    </contour>
    <contour>
      <point x="455" y="848" type="line"/>
      <point x="522" y="845"/>
      <point x="606" y="848"/>
      <point x="674" y="848" type="curve" smooth="yes"/>
      <point x="882" y="848"/>
      <point x="1045" y="955"/>
      <point x="1041" y="1198" type="curve" smooth="yes"/>
      <point x="1039" y="1359"/>
      <point x="965" y="1451"/>
      <point x="735" y="1451" type="curve" smooth="yes"/>
      <point x="705" y="1451"/>
      <point x="585" y="1447"/>
      <point x="534" y="1438" type="curve"/>
    </contour>
    <contour>
      <point x="355" y="103" type="line"/>
      <point x="394" y="91"/>
      <point x="517" y="84"/>
      <point x="559" y="84" type="curve" smooth="yes"/>
      <point x="834" y="84"/>
      <point x="1025" y="185"/>
      <point x="1022" y="472" type="curve"/>
      <point x="1019" y="649"/>
      <point x="906" y="746"/>
      <point x="704" y="746" type="curve" smooth="yes"/>
      <point x="575" y="746"/>
      <point x="492" y="744"/>
      <point x="441" y="741" type="curve"/>
    </contour>
    <contour>
      <point x="714" y="1701" type="curve" smooth="yes"/>
      <point x="662" y="1701"/>
      <point x="620" y="1745"/>
      <point x="624" y="1802" type="curve"/>
      <point x="627" y="1870"/>
      <point x="688" y="1922"/>
      <point x="740" y="1922" type="curve" smooth="yes"/>
      <point x="801" y="1922"/>
      <point x="840" y="1881"/>
      <point x="837" y="1824" type="curve" smooth="yes"/>
      <point x="833" y="1756"/>
      <point x="777" y="1701"/>
    </contour>
  </outline>
</glyph>
<glyph name="uni1E1E" format="1">
  <advance width="1121"/>
  <unicode hex="1E1E"/>
  <outline>
    <contour>
      <point x="39" y="0" type="line"/>
      <point x="46" y="70" type="line"/>
      <point x="193" y="94" type="line"/>
      <point x="374" y="1430" type="line"/>
      <point x="242" y="1449" type="line"/>
      <point x="252" y="1530" type="line"/>
      <point x="1182" y="1530" type="line"/>
      <point x="1162" y="1220" type="line"/>
      <point x="1065" y="1220" type="line"/>
      <point x="1043" y="1427" type="line"/>
      <point x="537" y="1442" type="line"/>
      <point x="455" y="838" type="line"/>
      <point x="938" y="846" type="line"/>
      <point x="928" y="718" type="line"/>
      <point x="441" y="731" type="line"/>
      <point x="354" y="96" type="line"/>
      <point x="597" y="70" type="line"/>
      <point x="591" y="0" type="line"/>
    </contour>
    <contour>
      <point x="759" y="1701" type="curve" smooth="yes"/>
      <point x="707" y="1701"/>
      <point x="665" y="1745"/>
      <point x="669" y="1802" type="curve"/>
      <point x="672" y="1870"/>
      <point x="733" y="1922"/>
      <point x="785" y="1922" type="curve" smooth="yes"/>
      <point x="846" y="1922"/>
      <point x="885" y="1881"/>
      <point x="882" y="1824" type="curve" smooth="yes"/>
      <point x="878" y="1756"/>
      <point x="822" y="1701"/>
    </contour>
  </outline>
</glyph>
<glyph name="uni1E1F" format="1">
  <advance width="676"/>
  <unicode hex="1E1F"/>
  <outline>
    <contour>
      <point x="138" y="-127" type="curve"/>
      <point x="280" y="1040" type="line"/>
      <point x="141" y="1040" type="line"/>
      <point x="153" y="1101" type="line"/>
      <point x="300" y="1150" type="line"/>
      <point x="314" y="1249" type="line" smooth="yes"/>
      <point x="347" y="1484"/>
      <point x="532" y="1670"/>
      <point x="715" y="1670" type="curve" smooth="yes"/>
      <point x="768" y="1670"/>
      <point x="822" y="1666"/>
      <point x="873" y="1644" type="curve"/>
      <point x="827" y="1510" type="line"/>
      <point x="801" y="1527"/>
      <point x="754" y="1554"/>
      <point x="681" y="1553" type="curve" smooth="yes"/>
      <point x="565" y="1552"/>
      <point x="490" y="1440"/>
      <point x="469" y="1263" type="curve" smooth="yes"/>
      <point x="456" y="1155" type="line"/>
      <point x="707" y="1155" type="line"/>
      <point x="695" y="1040" type="line"/>
      <point x="433" y="1040" type="line"/>
      <point x="292" y="-74" type="line" smooth="yes"/>
      <point x="259" y="-338"/>
      <point x="144" y="-511"/>
      <point x="-48" y="-513" type="curve" smooth="yes"/>
      <point x="-114" y="-514"/>
      <point x="-182" y="-502"/>
      <point x="-210" y="-494" type="curve"/>
      <point x="-168" y="-370" type="line"/>
      <point x="-155" y="-376"/>
      <point x="-88" y="-405"/>
      <point x="-14" y="-404" type="curve" smooth="yes"/>
      <point x="75" y="-403"/>
      <point x="117" y="-285"/>
    </contour>
    <contour>
      <point x="436" y="1719" type="curve" smooth="yes"/>
      <point x="383" y="1719"/>
      <point x="341" y="1762"/>
      <point x="345" y="1820" type="curve"/>
      <point x="348" y="1888"/>
      <point x="409" y="1940"/>
      <point x="461" y="1940" type="curve" smooth="yes"/>
      <point x="523" y="1940"/>
      <point x="560" y="1898"/>
      <point x="557" y="1842" type="curve" smooth="yes"/>
      <point x="553" y="1774"/>
      <point x="498" y="1719"/>
    </contour>
  </outline>
</glyph>
<glyph name="uni1E40" format="1">
  <advance width="1847"/>
  <unicode hex="1E40"/>
  <outline>
    <contour>
      <point x="-61" y="0" type="line"/>
      <point x="-53" y="70" type="line"/>
      <point x="103" y="94" type="line"/>
      <point x="468" y="1430" type="line"/>
      <point x="280" y="1449" type="line"/>
      <point x="290" y="1530" type="line"/>
      <point x="704" y="1530" type="line"/>
      <point x="843" y="463" type="line"/>
      <point x="864" y="204" type="line"/>
      <point x="963" y="459" type="line"/>
      <point x="1465" y="1530" type="line"/>
      <point x="1846" y="1530" type="line"/>
      <point x="1837" y="1449" type="line"/>
      <point x="1658" y="1430" type="line"/>
      <point x="1597" y="95" type="line"/>
      <point x="1759" y="70" type="line"/>
      <point x="1752" y="0" type="line"/>
      <point x="1242" y="0" type="line"/>
      <point x="1250" y="70" type="line"/>
      <point x="1430" y="93" type="line"/>
      <point x="1502" y="1026" type="line"/>
      <point x="1533" y="1427" type="line"/>
      <point x="1381" y="1074" type="line"/>
      <point x="869" y="-4" type="line"/>
      <point x="769" y="-18" type="line"/>
      <point x="620" y="1050" type="line"/>
      <point x="578" y="1427" type="line"/>
      <point x="490" y="1042" type="line"/>
      <point x="249" y="94" type="line"/>
      <point x="433" y="70" type="line"/>
      <point x="426" y="0" type="line"/>
    </contour>
    <contour>
      <point x="1055" y="1701" type="curve" smooth="yes"/>
      <point x="1003" y="1701"/>
      <point x="961" y="1745"/>
      <point x="965" y="1802" type="curve"/>
      <point x="968" y="1870"/>
      <point x="1029" y="1922"/>
      <point x="1081" y="1922" type="curve" smooth="yes"/>
      <point x="1142" y="1922"/>
      <point x="1181" y="1881"/>
      <point x="1178" y="1824" type="curve" smooth="yes"/>
      <point x="1174" y="1756"/>
      <point x="1118" y="1701"/>
    </contour>
  </outline>
</glyph>
<glyph name="Wacute" format="1">
  <advance width="1794"/>
  <unicode hex="1E82"/>
  <outline>
    <contour>
      <point x="381" y="-10" type="line"/>
      <point x="180" y="1429" type="line"/>
      <point x="33" y="1449" type="line"/>
      <point x="43" y="1530" type="line"/>
      <point x="526" y="1530" type="line"/>
      <point x="517" y="1449" type="line"/>
      <point x="333" y="1433" type="line"/>
      <point x="457" y="435" type="line"/>
      <point x="496" y="136" type="line"/>
      <point x="570" y="374" type="line"/>
      <point x="934" y="1286" type="line"/>
      <point x="919" y="1432" type="line"/>
      <point x="774" y="1449" type="line"/>
      <point x="783" y="1530" type="line"/>
      <point x="1265" y="1530" type="line"/>
      <point x="1248" y="1449" type="line"/>
      <point x="1071" y="1432" type="line"/>
      <point x="1170" y="435" type="line"/>
      <point x="1192" y="136" type="line"/>
      <point x="1283" y="398" type="line"/>
      <point x="1723" y="1429" type="line"/>
      <point x="1566" y="1449" type="line"/>
      <point x="1575" y="1530" type="line"/>
      <point x="2003" y="1530" type="line"/>
      <point x="1989" y="1449" type="line"/>
      <point x="1856" y="1429" type="line"/>
      <point x="1232" y="-10" type="line"/>
      <point x="1071" y="-10" type="line"/>
      <point x="968" y="1067" type="line"/>
      <point x="539" y="-10" type="line"/>
    </contour>
    <contour>
      <point x="1036" y="1614" type="curve"/>
      <point x="992" y="1651" type="line"/>
      <point x="1274" y="2000" type="line"/>
      <point x="1373" y="1890" type="line"/>
      <point x="1319" y="1786"/>
      <point x="1133" y="1669"/>
    </contour>
  </outline>
</glyph>
<glyph name="wdieresis" format="1">
  <advance width="1683"/>
  <unicode hex="1E85"/>
  <outline>
    <contour>
      <point x="324" y="-20" type="line"/>
      <point x="268" y="323" type="line"/>
      <point x="174" y="979" type="line"/>
      <point x="164" y="1028"/>
      <point x="151" y="1048"/>
      <point x="126" y="1049" type="curve" smooth="yes"/>
      <point x="96" y="1050"/>
      <point x="72" y="1025"/>
      <point x="51" y="1008" type="curve"/>
      <point x="26" y="1058" type="line"/>
      <point x="40" y="1080"/>
      <point x="114" y="1163"/>
      <point x="210" y="1163" type="curve" smooth="yes"/>
      <point x="303" y="1163"/>
      <point x="324" y="1114"/>
      <point x="335" y="1026" type="curve"/>
      <point x="414" y="311" type="line"/>
      <point x="428" y="111" type="line"/>
      <point x="498" y="290" type="line"/>
      <point x="872" y="1155" type="line"/>
      <point x="1016" y="1155" type="line"/>
      <point x="1087" y="311" type="line"/>
      <point x="1098" y="111" type="line"/>
      <point x="1228" y="316" type="line"/>
      <point x="1290" y="408"/>
      <point x="1449" y="702"/>
      <point x="1460" y="925" type="curve" smooth="yes"/>
      <point x="1463" y="996"/>
      <point x="1431" y="1041"/>
      <point x="1431" y="1077" type="curve" smooth="yes"/>
      <point x="1431" y="1136"/>
      <point x="1465" y="1163"/>
      <point x="1509" y="1163" type="curve" smooth="yes"/>
      <point x="1581" y="1163"/>
      <point x="1615" y="1096"/>
      <point x="1615" y="967" type="curve" smooth="yes"/>
      <point x="1615" y="782"/>
      <point x="1466" y="510"/>
      <point x="1338" y="313" type="curve" smooth="yes"/>
      <point x="1128" y="-8" type="line"/>
      <point x="977" y="-19" type="line"/>
      <point x="941" y="322" type="line"/>
      <point x="899" y="806" type="line"/>
      <point x="892" y="935" type="line"/>
      <point x="849" y="805" type="line"/>
      <point x="608" y="289" type="line"/>
      <point x="460" y="-8" type="line"/>
    </contour>
    <contour>
      <point x="1204" y="1406" type="curve" smooth="yes"/>
      <point x="1152" y="1406"/>
      <point x="1110" y="1450"/>
      <point x="1114" y="1508" type="curve"/>
      <point x="1117" y="1575"/>
      <point x="1171" y="1627"/>
      <point x="1230" y="1627" type="curve" smooth="yes"/>
      <point x="1292" y="1627"/>
      <point x="1330" y="1586"/>
      <point x="1327" y="1530" type="curve" smooth="yes"/>
      <point x="1323" y="1462"/>
      <point x="1269" y="1406"/>
    </contour>
    <contour>
      <point x="783" y="1406" type="curve" smooth="yes"/>
      <point x="730" y="1406"/>
      <point x="689" y="1450"/>
      <point x="692" y="1508" type="curve" smooth="yes"/>
      <point x="696" y="1575"/>
      <point x="750" y="1627"/>
      <point x="809" y="1627" type="curve" smooth="yes"/>
      <point x="870" y="1627"/>
      <point x="908" y="1586"/>
      <point x="905" y="1530" type="curve" smooth="yes"/>
      <point x="902" y="1462"/>
      <point x="847" y="1406"/>
    </contour>
  </outline>
</glyph>
<glyph name="endash" format="1">
  <advance width="1548"/>
  <unicode hex="2013"/>
  <outline>
    <contour>
      <point x="238" y="710" type="line"/>
      <point x="262" y="836" type="line"/>
      <point x="1364" y="836" type="line"/>
      <point x="1340" y="710" type="line"/>
    </contour>
  </outline>
</glyph>
<glyph name="emdash" format="1">
  <advance width="2043"/>
  <unicode hex="2014"/>
  <outline>
    <contour>
      <point x="238" y="710" type="line"/>
      <point x="261" y="836" type="line"/>
      <point x="1858" y="836" type="line"/>
      <point x="1835" y="710" type="line"/>
    </contour>
  </outline>
</glyph>
<glyph name="quoteleft" format="1">
  <advance width="682"/>
  <unicode hex="2018"/>
  <outline>
    <contour>
      <point x="395" y="937" type="line"/>
      <point x="261" y="973"/>
      <point x="217" y="1106"/>
      <point x="217" y="1212" type="curve" smooth="yes"/>
      <point x="217" y="1473"/>
      <point x="416" y="1643"/>
      <point x="597" y="1721" type="curve"/>
      <point x="631" y="1664" type="line"/>
      <point x="629" y="1647" type="line"/>
      <point x="524" y="1610"/>
      <point x="392" y="1448"/>
      <point x="392" y="1281" type="curve" smooth="yes"/>
      <point x="392" y="1191"/>
      <point x="435" y="1104"/>
      <point x="515" y="1088" type="curve"/>
      <point x="511" y="1055" type="line"/>
    </contour>
  </outline>
</glyph>
<glyph name="daggerdbl" format="1">
  <advance width="816"/>
  <unicode hex="2021"/>
  <outline>
    <contour>
      <point x="296" y="-51" type="line"/>
      <point x="342" y="510" type="line"/>
      <point x="371" y="658" type="line"/>
      <point x="141" y="659" type="line"/>
      <point x="160" y="779" type="line"/>
      <point x="398" y="779" type="line"/>
      <point x="405" y="987" type="line"/>
      <point x="448" y="1143" type="line"/>
      <point x="192" y="1143" type="line"/>
      <point x="211" y="1263" type="line"/>
      <point x="484" y="1263" type="line"/>
      <point x="489" y="1469" type="line"/>
      <point x="512" y="1646" type="line"/>
      <point x="664" y="1646" type="line"/>
      <point x="636" y="1469" type="line"/>
      <point x="585" y="1263" type="line"/>
      <point x="843" y="1263" type="line"/>
      <point x="825" y="1143" type="line"/>
      <point x="576" y="1143" type="line"/>
      <point x="572" y="1105"/>
      <point x="565" y="1025"/>
      <point x="566" y="988" type="curve"/>
      <point x="508" y="779" type="line"/>
      <point x="756" y="779" type="line"/>
      <point x="739" y="659" type="line"/>
      <point x="507" y="658" type="line"/>
      <point x="508" y="627"/>
      <point x="499" y="541"/>
      <point x="495" y="510" type="curve"/>
      <point x="391" y="-51" type="line"/>
    </contour>
  </outline>
</glyph>
<glyph name="ellipsis" format="1">
  <advance width="1578"/>
  <unicode hex="2026"/>
  <outline>
    <contour>
      <point x="1165" y="88" type="curve" smooth="yes"/>
      <point x="1174" y="160"/>
      <point x="1231" y="210"/>
      <point x="1292" y="210" type="curve" smooth="yes"/>
      <point x="1368" y="210"/>
      <point x="1394" y="165"/>
      <point x="1386" y="105" type="curve" smooth="yes"/>
      <point x="1376" y="28"/>
      <point x="1315" y="-18"/>
      <point x="1252" y="-18" type="curve" smooth="yes"/>
      <point x="1194" y="-18"/>
      <point x="1156" y="19"/>
    </contour>
    <contour>
      <point x="639" y="88" type="curve" smooth="yes"/>
      <point x="648" y="160"/>
      <point x="705" y="210"/>
      <point x="766" y="210" type="curve" smooth="yes"/>
      <point x="842" y="210"/>
      <point x="868" y="165"/>
      <point x="860" y="105" type="curve" smooth="yes"/>
      <point x="850" y="28"/>
      <point x="789" y="-18"/>
      <point x="726" y="-18" type="curve" smooth="yes"/>
      <point x="668" y="-18"/>
      <point x="630" y="19"/>
    </contour>
    <contour>
      <point x="113" y="88" type="curve" smooth="yes"/>
      <point x="122" y="160"/>
      <point x="179" y="210"/>
      <point x="240" y="210" type="curve" smooth="yes"/>
      <point x="316" y="210"/>
      <point x="342" y="165"/>
      <point x="334" y="105" type="curve" smooth="yes"/>
      <point x="324" y="28"/>
      <point x="263" y="-18"/>
      <point x="200" y="-18" type="curve" smooth="yes"/>
      <point x="142" y="-18"/>
      <point x="104" y="19"/>
    </contour>
  </outline>
</glyph>
<glyph name="minute" format="1">
  <advance width="623"/>
  <unicode hex="2032"/>
  <outline>
    <contour>
      <point x="308" y="1190" type="line"/>
      <point x="397" y="1782" type="line"/>
      <point x="561" y="1782" type="line"/>
      <point x="419" y="1190" type="line"/>
    </contour>
  </outline>
</glyph>
<glyph name="fraction" format="1">
  <advance width="1026"/>
  <unicode hex="2044"/>
  <outline>
    <contour>
      <point x="105" y="0" type="line"/>
      <point x="786" y="1530" type="line"/>
      <point x="918" y="1530" type="line"/>
      <point x="237" y="0" type="line"/>
    </contour>
  </outline>
</glyph>
<glyph name="estimated" format="1">
  <advance width="1367"/>
  <unicode hex="212E"/>
  <outline>
    <contour>
      <point x="343" y="268" type="line"/>
      <point x="429" y="134"/>
      <point x="575" y="78"/>
      <point x="751" y="78" type="curve" smooth="yes"/>
      <point x="896" y="78"/>
      <point x="1056" y="135"/>
      <point x="1124" y="173" type="curve"/>
      <point x="1155" y="82" type="line"/>
      <point x="1070" y="21"/>
      <point x="871" y="-16"/>
      <point x="733" y="-16" type="curve" smooth="yes"/>
      <point x="341" y="-16"/>
      <point x="110" y="241"/>
      <point x="110" y="671" type="curve" smooth="yes"/>
      <point x="110" y="1063"/>
      <point x="321" y="1349"/>
      <point x="737" y="1356" type="curve" smooth="yes"/>
      <point x="1026" y="1361"/>
      <point x="1264" y="1161"/>
      <point x="1275" y="832" type="curve"/>
      <point x="1275" y="746"/>
      <point x="1275" y="682"/>
      <point x="1264" y="631" type="curve"/>
      <point x="343" y="631" type="line"/>
    </contour>
    <contour>
      <point x="343" y="741" type="line"/>
      <point x="1059" y="742" type="line"/>
      <point x="1059" y="1115" type="line"/>
      <point x="999" y="1201"/>
      <point x="896" y="1261"/>
      <point x="727" y="1261" type="curve" smooth="yes"/>
      <point x="567" y="1261"/>
      <point x="428" y="1199"/>
      <point x="343" y="1063" type="curve"/>
    </contour>
  </outline>
</glyph>
<glyph name="product" format="1">
  <advance width="1561"/>
  <unicode hex="220F"/>
  <outline>
    <contour>
      <point x="152" y="-104" type="line"/>
      <point x="326" y="-79" type="line"/>
      <point x="326" y="1425" type="line"/>
      <point x="156" y="1443" type="line"/>
      <point x="156" y="1522" type="line"/>
      <point x="1493" y="1522" type="line"/>
      <point x="1493" y="1443" type="line"/>
      <point x="1323" y="1425" type="line"/>
      <point x="1323" y="-79" type="line"/>
      <point x="1497" y="-104" type="line"/>
      <point x="1497" y="-172" type="line"/>
      <point x="987" y="-172" type="line"/>
      <point x="987" y="-104" type="line"/>
      <point x="1166" y="-79" type="line"/>
      <point x="1166" y="1425" type="line"/>
      <point x="483" y="1425" type="line"/>
      <point x="483" y="-79" type="line"/>
      <point x="661" y="-104" type="line"/>
      <point x="661" y="-172" type="line"/>
      <point x="152" y="-172" type="line"/>
    </contour>
  </outline>
</glyph>
<glyph name="radical" format="1">
  <advance width="1587"/>
  <unicode hex="221A"/>
  <outline>
    <contour>
      <point x="129" y="490" type="curve"/>
      <point x="82" y="578" type="line"/>
      <point x="271" y="709" type="line"/>
      <point x="420" y="709" type="line"/>
      <point x="667" y="-165" type="line"/>
      <point x="1498" y="1917" type="line"/>
      <point x="1661" y="1917" type="line"/>
      <point x="724" y="-353" type="line"/>
      <point x="572" y="-353" type="line"/>
      <point x="276" y="576" type="line"/>
      <point x="241" y="558"/>
      <point x="160" y="506"/>
    </contour>
  </outline>
</glyph>
<glyph name="infinity" format="1">
  <advance width="1884"/>
  <unicode hex="221E"/>
  <outline>
    <contour>
      <point x="558" y="240" type="curve" smooth="yes"/>
      <point x="299" y="236"/>
      <point x="174" y="417"/>
      <point x="174" y="597" type="curve" smooth="yes"/>
      <point x="174" y="822"/>
      <point x="345" y="994"/>
      <point x="573" y="994" type="curve" smooth="yes"/>
      <point x="749" y="994"/>
      <point x="862" y="855"/>
      <point x="960" y="719" type="curve"/>
      <point x="1044" y="856"/>
      <point x="1192" y="991"/>
      <point x="1352" y="994" type="curve" smooth="yes"/>
      <point x="1611" y="998"/>
      <point x="1714" y="817"/>
      <point x="1714" y="637" type="curve" smooth="yes"/>
      <point x="1714" y="412"/>
      <point x="1565" y="240"/>
      <point x="1320" y="240" type="curve" smooth="yes"/>
      <point x="1145" y="240"/>
      <point x="1029" y="380"/>
      <point x="931" y="515" type="curve"/>
      <point x="850" y="378"/>
      <point x="717" y="242"/>
    </contour>
    <contour>
      <point x="575" y="334" type="curve" smooth="yes"/>
      <point x="692" y="334"/>
      <point x="796" y="456"/>
      <point x="881" y="586" type="curve"/>
      <point x="803" y="708"/>
      <point x="703" y="896"/>
      <point x="548" y="896" type="curve" smooth="yes"/>
      <point x="395" y="896"/>
      <point x="315" y="765"/>
      <point x="315" y="626" type="curve" smooth="yes"/>
      <point x="315" y="486"/>
      <point x="405" y="334"/>
    </contour>
    <contour>
      <point x="1011" y="646" type="curve"/>
      <point x="1091" y="521"/>
      <point x="1208" y="330"/>
      <point x="1360" y="330" type="curve" smooth="yes"/>
      <point x="1524" y="330"/>
      <point x="1573" y="478"/>
      <point x="1573" y="608" type="curve" smooth="yes"/>
      <point x="1573" y="743"/>
      <point x="1506" y="892"/>
      <point x="1335" y="892" type="curve" smooth="yes"/>
      <point x="1207" y="892"/>
      <point x="1087" y="755"/>
    </contour>
  </outline>
</glyph>
<glyph name="notequal" format="1">
  <advance width="1026"/>
  <unicode hex="2260"/>
  <outline>
    <contour>
      <point x="159" y="0" type="line"/>
      <point x="323" y="355" type="line"/>
      <point x="82" y="355" type="line"/>
      <point x="96" y="480" type="line"/>
      <point x="380" y="480" type="line"/>
      <point x="558" y="865" type="line"/>
      <point x="152" y="865" type="line"/>
      <point x="166" y="990" type="line"/>
      <point x="615" y="990" type="line"/>
      <point x="770" y="1324" type="line"/>
      <point x="897" y="1324" type="line"/>
      <point x="743" y="990" type="line"/>
      <point x="981" y="990" type="line"/>
      <point x="967" y="865" type="line"/>
      <point x="685" y="865" type="line"/>
      <point x="507" y="480" type="line"/>
      <point x="911" y="480" type="line"/>
      <point x="897" y="355" type="line"/>
      <point x="450" y="355" type="line"/>
      <point x="286" y="0" type="line"/>
    </contour>
  </outline>
</glyph>
<glyph name="lessequal" format="1">
  <advance width="1364"/>
  <unicode hex="2264"/>
  <outline>
    <contour>
      <point x="198" y="698" type="line"/>
      <point x="205" y="760" type="line"/>
      <point x="1205" y="1204" type="line"/>
      <point x="1188" y="1057" type="line"/>
      <point x="403" y="728" type="line"/>
      <point x="1108" y="391" type="line"/>
      <point x="1092" y="246" type="line"/>
    </contour>
    <contour>
      <point x="137" y="-2" type="line"/>
      <point x="152" y="118" type="line"/>
      <point x="1100" y="118" type="line"/>
      <point x="1085" y="-2" type="line"/>
    </contour>
  </outline>
</glyph>
<glyph name="lozenge" format="1">
  <advance width="1364"/>
  <unicode hex="25CA"/>
  <outline>
    <contour>
      <point x="606" y="0" type="line"/>
      <point x="162" y="695" type="line"/>
      <point x="162" y="741" type="line"/>
      <point x="606" y="1436" type="line"/>
      <point x="757" y="1436" type="line"/>
      <point x="1201" y="741" type="line"/>
      <point x="1201" y="695" type="line"/>
      <point x="757" y="0" type="line"/>
    </contour>
    <contour>
      <point x="679" y="120" type="line"/>
      <point x="1051" y="717" type="line"/>
      <point x="682" y="1316" type="line"/>
      <point x="311" y="719" type="line"/>
    </contour>
  </outline>
</glyph>
<glyph name="commaaccent" format="1">
  <advance width="367"/>
  <unicode hex="F6C3"/>
  <outline>
    <contour>
      <point x="62" y="-147" type="line"/>
      <point x="160" y="-52" type="line"/>
      <point x="243" y="-76"/>
      <point x="288" y="-169"/>
      <point x="281" y="-267" type="curve"/>
      <point x="268" y="-422"/>
      <point x="140" y="-540"/>
      <point x="67" y="-560" type="curve"/>
      <point x="34" y="-527" type="line"/>
      <point x="36" y="-507" type="line"/>
      <point x="87" y="-471"/>
      <point x="124" y="-410"/>
      <point x="129" y="-321" type="curve" smooth="yes"/>
      <point x="133" y="-266"/>
      <point x="101" y="-206"/>
      <point x="57" y="-191" type="curve"/>
    </contour>
  </outline>
</glyph>
<glyph name="f_f" format="1">
  <advance width="1352"/>
  <unicode hex="FB00"/>
  <outline>
    <contour>
      <point x="138" y="-127" type="curve"/>
      <point x="280" y="1040" type="line"/>
      <point x="141" y="1040" type="line"/>
      <point x="153" y="1101" type="line"/>
      <point x="300" y="1150" type="line"/>
      <point x="314" y="1249" type="line" smooth="yes"/>
      <point x="347" y="1484"/>
      <point x="532" y="1670"/>
      <point x="715" y="1670" type="curve" smooth="yes"/>
      <point x="768" y="1670"/>
      <point x="822" y="1666"/>
      <point x="873" y="1644" type="curve"/>
      <point x="827" y="1510" type="line"/>
      <point x="801" y="1527"/>
      <point x="754" y="1554"/>
      <point x="681" y="1553" type="curve" smooth="yes"/>
      <point x="565" y="1552"/>
      <point x="490" y="1440"/>
      <point x="469" y="1263" type="curve" smooth="yes"/>
      <point x="456" y="1155" type="line"/>
      <point x="707" y="1155" type="line"/>
      <point x="695" y="1040" type="line"/>
      <point x="433" y="1040" type="line"/>
      <point x="292" y="-74" type="line" smooth="yes"/>
      <point x="259" y="-338"/>
      <point x="144" y="-511"/>
      <point x="-48" y="-513" type="curve" smooth="yes"/>
      <point x="-114" y="-514"/>
      <point x="-182" y="-502"/>
      <point x="-210" y="-494" type="curve"/>
      <point x="-168" y="-370" type="line"/>
      <point x="-155" y="-376"/>
      <point x="-88" y="-405"/>
      <point x="-14" y="-404" type="curve" smooth="yes"/>
      <point x="75" y="-403"/>
      <point x="117" y="-285"/>
    </contour>
    <contour>
      <point x="814" y="-127" type="curve"/>
      <point x="956" y="1040" type="line"/>
      <point x="817" y="1040" type="line"/>
      <point x="829" y="1101" type="line"/>
      <point x="976" y="1150" type="line"/>
      <point x="990" y="1249" type="line" smooth="yes"/>
      <point x="1023" y="1484"/>
      <point x="1208" y="1670"/>
      <point x="1391" y="1670" type="curve" smooth="yes"/>
      <point x="1444" y="1670"/>
      <point x="1498" y="1666"/>
      <point x="1549" y="1644" type="curve"/>
      <point x="1503" y="1510" type="line"/>
      <point x="1477" y="1527"/>
      <point x="1430" y="1554"/>
      <point x="1357" y="1553" type="curve" smooth="yes"/>
      <point x="1241" y="1552"/>
      <point x="1166" y="1440"/>
      <point x="1145" y="1263" type="curve" smooth="yes"/>
      <point x="1132" y="1155" type="line"/>
      <point x="1383" y="1155" type="line"/>
      <point x="1371" y="1040" type="line"/>
      <point x="1109" y="1040" type="line"/>
      <point x="968" y="-74" type="line" smooth="yes"/>
      <point x="935" y="-338"/>
      <point x="820" y="-511"/>
      <point x="628" y="-513" type="curve" smooth="yes"/>
      <point x="562" y="-514"/>
      <point x="494" y="-502"/>
      <point x="466" y="-494" type="curve"/>
      <point x="508" y="-370" type="line"/>
      <point x="521" y="-376"/>
      <point x="588" y="-405"/>
      <point x="662" y="-404" type="curve" smooth="yes"/>
      <point x="751" y="-403"/>
      <point x="793" y="-285"/>
    </contour>
  </outline>
</glyph>
